<svg xmlns="http://www.w3.org/2000/svg" xmlns:xlink="http://www.w3.org/1999/xlink" version="1.1" width="215.832pt" height="159.139pt" viewBox="0 0 215.832 159.139">
<path transform="matrix(1,0,0,-1,192.955,136.263)" stroke-width="1.19553" stroke-linecap="butt" stroke-miterlimit="10" stroke-linejoin="miter" fill="none" stroke="#000000" d="M-170.08086 0V24.55553"/>
<path transform="matrix(0,-1,-1,-0,22.874146,111.70747)" stroke-width=".9564" stroke-linecap="round" stroke-linejoin="round" fill="none" stroke="#000000" d="M-1.91284 2.55046C-1.75343 1.59402 0 .15938 .4782 0 0-.15938-1.75343-1.59402-1.91284-2.55046"/>
<path transform="matrix(1,0,0,-1,192.955,136.263)" d="M-174.12133 8.3004H-166.04039V17.211522H-174.12133Z" fill="#ffffff"/>
<text fill="#ff0000" xml:space="preserve" transform="matrix(1 0 -0 1 0 159.139)" font-size="9.9626" font-family="CMSSBX10" font-weight="bold"><tspan y="-32.173" x="19.832">F</tspan></text>
<path transform="matrix(1,0,0,-1,192.955,136.263)" stroke-width="1.19553" stroke-linecap="butt" stroke-miterlimit="10" stroke-linejoin="miter" fill="none" stroke="#000000" d="M-170.08086 28.3468V52.90233"/>
<path transform="matrix(0,-1,-1,-0,22.874146,83.36067)" stroke-width=".9564" stroke-linecap="round" stroke-linejoin="round" fill="none" stroke="#000000" d="M-1.91284 2.55046C-1.75343 1.59402 0 .15938 .4782 0 0-.15938-1.75343-1.59402-1.91284-2.55046"/>
<path transform="matrix(1,0,0,-1,192.955,136.263)" d="M-175.03458 36.6472H-165.12712V45.558324H-175.03458Z" fill="#ffffff"/>
<text fill="#ff0000" xml:space="preserve" transform="matrix(1 0 -0 1 .000005722046 159.13899)" font-size="9.9626" font-family="CMSSBX10" font-weight="bold"><tspan y="-60.519" x="18.919">O</tspan></text>
<path transform="matrix(1,0,0,-1,192.955,136.263)" stroke-width="1.19553" stroke-linecap="butt" stroke-miterlimit="10" stroke-linejoin="miter" fill="none" stroke="#000000" d="M-170.08086 56.69362H-145.52533"/>
<path transform="matrix(1,0,0,-1,47.429674,79.56938)" stroke-width=".9564" stroke-linecap="round" stroke-linejoin="round" fill="none" stroke="#000000" d="M-1.91284 2.55046C-1.75343 1.59402 0 .15938 .4782 0 0-.15938-1.75343-1.59402-1.91284-2.55046"/>
<path transform="matrix(1,0,0,-1,192.955,136.263)" d="M-161.82198 52.23805H-152.82779V61.14917H-161.82198Z" fill="#ffffff"/>
<text fill="#ff0000" xml:space="preserve" transform="matrix(1 0 -0 1 -.0000038146974 159.139)" font-size="9.9626" font-family="CMSSBX10" font-weight="bold"><tspan y="-76.11" x="32.131">R</tspan></text>
<path transform="matrix(1,0,0,-1,192.955,136.263)" stroke-width="1.19553" stroke-linecap="butt" stroke-miterlimit="10" stroke-linejoin="miter" fill="none" stroke="#000000" d="M-141.73404 56.69362H-117.17851"/>
<path transform="matrix(1,0,0,-1,75.77649,79.56938)" stroke-width=".9564" stroke-linecap="round" stroke-linejoin="round" fill="none" stroke="#000000" d="M-1.91284 2.55046C-1.75343 1.59402 0 .15938 .4782 0 0-.15938-1.75343-1.59402-1.91284-2.55046"/>
<path transform="matrix(1,0,0,-1,192.955,136.263)" d="M-133.17075 52.23805H-124.78539V61.14917H-133.17075Z" fill="#ffffff"/>
<text fill="#ff0000" xml:space="preserve" transform="matrix(1 0 -0 1 -.0000038146974 159.139)" font-size="9.9626" font-family="CMSSBX10" font-weight="bold"><tspan y="-76.11" x="60.782">E</tspan></text>
<path transform="matrix(1,0,0,-1,192.955,136.263)" stroke-width="1.19553" stroke-linecap="butt" stroke-miterlimit="10" stroke-linejoin="miter" fill="none" stroke="#000000" d="M-113.38724 56.69362H-88.83171"/>
<path transform="matrix(1,0,0,-1,104.12329,79.56938)" stroke-width=".9564" stroke-linecap="round" stroke-linejoin="round" fill="none" stroke="#000000" d="M-1.91284 2.55046C-1.75343 1.59402 0 .15938 .4782 0 0-.15938-1.75343-1.59402-1.91284-2.55046"/>
<path transform="matrix(1,0,0,-1,192.955,136.263)" d="M-105.28058 52.23805H-95.98197V61.14917H-105.28058Z" fill="#ffffff"/>
<text fill="#ff0000" xml:space="preserve" transform="matrix(1 0 -0 1 .0000076293949 159.139)" font-size="9.9626" font-family="CMSSBX10" font-weight="bold"><tspan y="-76.11" x="88.672">X</tspan></text>
<path transform="matrix(1,0,0,-1,192.955,136.263)" stroke-width="1.19553" stroke-linecap="butt" stroke-miterlimit="10" stroke-linejoin="miter" fill="none" stroke="#000000" d="M-85.04042 56.69362H-60.4849"/>
<path transform="matrix(1,0,0,-1,132.4701,79.56938)" stroke-width=".9564" stroke-linecap="round" stroke-linejoin="round" fill="none" stroke="#000000" d="M-1.91284 2.55046C-1.75343 1.59402 0 .15938 .4782 0 0-.15938-1.75343-1.59402-1.91284-2.55046"/>
<path transform="matrix(1,0,0,-1,192.955,136.263)" d="M-76.93378 52.23805H-67.63517V61.14917H-76.93378Z" fill="#ffffff"/>
<text fill="#ff0000" xml:space="preserve" transform="matrix(1 0 -0 1 .0000076293949 159.139)" font-size="9.9626" font-family="CMSSBX10" font-weight="bold"><tspan y="-76.11" x="117.019">A</tspan></text>
<path transform="matrix(1,0,0,-1,192.955,136.263)" stroke-width="1.19553" stroke-linecap="butt" stroke-miterlimit="10" stroke-linejoin="miter" fill="none" stroke="#000000" d="M-56.69362 56.69362H-32.13809"/>
<path transform="matrix(1,0,0,-1,160.81691,79.56938)" stroke-width=".9564" stroke-linecap="round" stroke-linejoin="round" fill="none" stroke="#000000" d="M-1.91284 2.55046C-1.75343 1.59402 0 .15938 .4782 0 0-.15938-1.75343-1.59402-1.91284-2.55046"/>
<path transform="matrix(1,0,0,-1,192.955,136.263)" d="M-49.80464 52.23805H-38.070665V61.14917H-49.80464Z" fill="#ffffff"/>
<text fill="#ff0000" xml:space="preserve" transform="matrix(1 0 -0 1 0 159.139)" font-size="9.9626" font-family="CMSSBX10" font-weight="bold"><tspan y="-76.11" x="144.147">M</tspan></text>
<path transform="matrix(1,0,0,-1,192.955,136.263)" stroke-width="1.19553" stroke-linecap="butt" stroke-miterlimit="10" stroke-linejoin="miter" fill="none" stroke="#000000" d="M-28.3468 56.69362H-3.79128"/>
<path transform="matrix(1,0,0,-1,189.16373,79.56938)" stroke-width=".9564" stroke-linecap="round" stroke-linejoin="round" fill="none" stroke="#000000" d="M-1.91284 2.55046C-1.75343 1.59402 0 .15938 .4782 0 0-.15938-1.75343-1.59402-1.91284-2.55046"/>
<path transform="matrix(1,0,0,-1,192.955,136.263)" d="M-20.08794 52.23805H-11.09375V61.14917H-20.08794Z" fill="#ffffff"/>
<text fill="#ff0000" xml:space="preserve" transform="matrix(1 0 -0 1 0 159.139)" font-size="9.9626" font-family="CMSSBX10" font-weight="bold"><tspan y="-76.11" x="173.864">P</tspan></text>
<path transform="matrix(1,0,0,-1,192.955,136.263)" stroke-width="1.19553" stroke-linecap="butt" stroke-miterlimit="10" stroke-linejoin="miter" fill="none" stroke="#000000" d="M0 56.69362V81.24915"/>
<path transform="matrix(0,-1,-1,-0,192.955,55.013849)" stroke-width=".9564" stroke-linecap="round" stroke-linejoin="round" fill="none" stroke="#000000" d="M-1.91284 2.55046C-1.75343 1.59402 0 .15938 .4782 0 0-.15938-1.75343-1.59402-1.91284-2.55046"/>
<path transform="matrix(1,0,0,-1,192.955,136.263)" d="M-3.88824 64.99402H3.8882602V73.905139H-3.88824Z" fill="#ffffff"/>
<text fill="#ff0000" xml:space="preserve" transform="matrix(1 0 -0 1 0 159.139)" font-size="9.9626" font-family="CMSSBX10" font-weight="bold"><tspan y="-88.866" x="190.063">L</tspan></text>
<path transform="matrix(1,0,0,-1,192.955,136.263)" stroke-width="1.19553" stroke-linecap="butt" stroke-miterlimit="10" stroke-linejoin="miter" fill="none" stroke="#000000" d="M0 85.04042V109.59595"/>
<path transform="matrix(0,-1,-1,-0,192.955,26.667054)" stroke-width=".9564" stroke-linecap="round" stroke-linejoin="round" fill="none" stroke="#000000" d="M-1.91284 2.55046C-1.75343 1.59402 0 .15938 .4782 0 0-.15938-1.75343-1.59402-1.91284-2.55046"/>
<path transform="matrix(1,0,0,-1,192.955,136.263)" d="M-4.19267 93.34082H4.1926805V102.25194H-4.19267Z" fill="#ffffff"/>
<text fill="#ff0000" xml:space="preserve" transform="matrix(1 0 -0 1 0 159.139)" font-size="9.9626" font-family="CMSSBX10" font-weight="bold"><tspan y="-117.212" x="189.759">E</tspan></text>
<path transform="matrix(1,0,0,-1,192.955,136.263)" stroke-width=".3985" stroke-linecap="butt" stroke-miterlimit="10" stroke-linejoin="miter" fill="none" stroke="#000000" d="M22.67752-22.67752H5.66927V-5.66927H22.67752ZM5.66927-5.66927"/>
<path transform="matrix(1,0,0,-1,192.955,136.263)" stroke-width=".3985" stroke-linecap="butt" stroke-miterlimit="10" stroke-linejoin="miter" fill="none" stroke="#000000" d="M-5.66927-22.67752H-22.67752V-5.66927H-5.66927ZM-22.67752-5.66927"/>
<path transform="matrix(1,0,0,-1,192.955,136.263)" stroke-width=".3985" stroke-linecap="butt" stroke-miterlimit="10" stroke-linejoin="miter" fill="none" stroke="#000000" d="M-34.01608-22.67752H-51.02432V-5.66927H-34.01608ZM-51.02432-5.66927"/>
<path transform="matrix(1,0,0,-1,192.955,136.263)" stroke-width=".3985" stroke-linecap="butt" stroke-miterlimit="10" stroke-linejoin="miter" fill="none" stroke="#000000" d="M-62.36288-22.67752H-79.37114V-5.66927H-62.36288ZM-79.37114-5.66927"/>
<path transform="matrix(1,0,0,-1,192.955,136.263)" stroke-width=".3985" stroke-linecap="butt" stroke-miterlimit="10" stroke-linejoin="miter" fill="none" stroke="#000000" d="M-90.7097-22.67752H-107.71794V-5.66927H-90.7097ZM-107.71794-5.66927"/>
<path transform="matrix(1,0,0,-1,192.955,136.263)" stroke-width=".3985" stroke-linecap="butt" stroke-miterlimit="10" stroke-linejoin="miter" fill="none" stroke="#000000" d="M-119.0565-22.67752H-136.06476V-5.66927H-119.0565ZM-136.06476-5.66927"/>
<path transform="matrix(1,0,0,-1,192.955,136.263)" stroke-width=".3985" stroke-linecap="butt" stroke-miterlimit="10" stroke-linejoin="miter" fill="none" stroke="#000000" d="M-147.40332-22.67752H-164.41156V-5.66927H-147.40332ZM-164.41156-5.66927"/>
<path transform="matrix(1,0,0,-1,192.955,136.263)" stroke-width=".3985" stroke-linecap="butt" stroke-miterlimit="10" stroke-linejoin="miter" fill="none" stroke="#000000" d="M-175.75012-22.67752H-192.75838V-5.66927H-175.75012ZM-192.75838-5.66927"/>
<path transform="matrix(1,0,0,-1,192.955,136.263)" stroke-width=".3985" stroke-linecap="butt" stroke-miterlimit="10" stroke-linejoin="miter" fill="none" stroke="#000000" d="M22.67752 5.66927H5.66927V22.67752H22.67752ZM5.66927 22.67752"/>
<path transform="matrix(1,0,0,-1,192.955,136.263)" stroke-width=".3985" stroke-linecap="butt" stroke-miterlimit="10" stroke-linejoin="miter" fill="none" stroke="#000000" d="M-5.66927 5.66927H-22.67752V22.67752H-5.66927ZM-22.67752 22.67752"/>
<path transform="matrix(1,0,0,-1,192.955,136.263)" stroke-width=".3985" stroke-linecap="butt" stroke-miterlimit="10" stroke-linejoin="miter" fill="none" stroke="#000000" d="M-34.01608 5.66927H-51.02432V22.67752H-34.01608ZM-51.02432 22.67752"/>
<path transform="matrix(1,0,0,-1,192.955,136.263)" stroke-width=".3985" stroke-linecap="butt" stroke-miterlimit="10" stroke-linejoin="miter" fill="none" stroke="#000000" d="M-62.36288 5.66927H-79.37114V22.67752H-62.36288ZM-79.37114 22.67752"/>
<path transform="matrix(1,0,0,-1,192.955,136.263)" stroke-width=".3985" stroke-linecap="butt" stroke-miterlimit="10" stroke-linejoin="miter" fill="none" stroke="#000000" d="M-90.7097 5.66927H-107.71794V22.67752H-90.7097ZM-107.71794 22.67752"/>
<path transform="matrix(1,0,0,-1,192.955,136.263)" stroke-width=".3985" stroke-linecap="butt" stroke-miterlimit="10" stroke-linejoin="miter" fill="none" stroke="#000000" d="M-119.0565 5.66927H-136.06476V22.67752H-119.0565ZM-136.06476 22.67752"/>
<path transform="matrix(1,0,0,-1,192.955,136.263)" stroke-width=".3985" stroke-linecap="butt" stroke-miterlimit="10" stroke-linejoin="miter" fill="none" stroke="#000000" d="M-147.40332 5.66927H-164.41156V22.67752H-147.40332ZM-164.41156 22.67752"/>
<path transform="matrix(1,0,0,-1,192.955,136.263)" stroke-width=".3985" stroke-linecap="butt" stroke-miterlimit="10" stroke-linejoin="miter" fill="none" stroke="#000000" d="M-175.75012 5.66927H-192.75838V22.67752H-175.75012ZM-192.75838 22.67752"/>
<path transform="matrix(1,0,0,-1,192.955,136.263)" stroke-width=".3985" stroke-linecap="butt" stroke-miterlimit="10" stroke-linejoin="miter" fill="none" stroke="#000000" d="M22.67752 34.01608H5.66927V51.02432H22.67752ZM5.66927 51.02432"/>
<path transform="matrix(1,0,0,-1,192.955,136.263)" stroke-width=".3985" stroke-linecap="butt" stroke-miterlimit="10" stroke-linejoin="miter" fill="none" stroke="#000000" d="M-5.66927 34.01608H-22.67752V51.02432H-5.66927ZM-22.67752 51.02432"/>
<path transform="matrix(1,0,0,-1,192.955,136.263)" stroke-width=".3985" stroke-linecap="butt" stroke-miterlimit="10" stroke-linejoin="miter" fill="none" stroke="#000000" d="M-34.01608 34.01608H-51.02432V51.02432H-34.01608ZM-51.02432 51.02432"/>
<path transform="matrix(1,0,0,-1,192.955,136.263)" stroke-width=".3985" stroke-linecap="butt" stroke-miterlimit="10" stroke-linejoin="miter" fill="none" stroke="#000000" d="M-62.36288 34.01608H-79.37114V51.02432H-62.36288ZM-79.37114 51.02432"/>
<path transform="matrix(1,0,0,-1,192.955,136.263)" stroke-width=".3985" stroke-linecap="butt" stroke-miterlimit="10" stroke-linejoin="miter" fill="none" stroke="#000000" d="M-90.7097 34.01608H-107.71794V51.02432H-90.7097ZM-107.71794 51.02432"/>
<path transform="matrix(1,0,0,-1,192.955,136.263)" stroke-width=".3985" stroke-linecap="butt" stroke-miterlimit="10" stroke-linejoin="miter" fill="none" stroke="#000000" d="M-119.0565 34.01608H-136.06476V51.02432H-119.0565ZM-136.06476 51.02432"/>
<path transform="matrix(1,0,0,-1,192.955,136.263)" stroke-width=".3985" stroke-linecap="butt" stroke-miterlimit="10" stroke-linejoin="miter" fill="none" stroke="#000000" d="M-147.40332 34.01608H-164.41156V51.02432H-147.40332ZM-164.41156 51.02432"/>
<path transform="matrix(1,0,0,-1,192.955,136.263)" stroke-width=".3985" stroke-linecap="butt" stroke-miterlimit="10" stroke-linejoin="miter" fill="none" stroke="#000000" d="M-175.75012 34.01608H-192.75838V51.02432H-175.75012ZM-192.75838 51.02432"/>
<path transform="matrix(1,0,0,-1,192.955,136.263)" stroke-width=".3985" stroke-linecap="butt" stroke-miterlimit="10" stroke-linejoin="miter" fill="none" stroke="#000000" d="M22.67752 62.36288H5.66927V79.37114H22.67752ZM5.66927 79.37114"/>
<path transform="matrix(1,0,0,-1,192.955,136.263)" stroke-width=".3985" stroke-linecap="butt" stroke-miterlimit="10" stroke-linejoin="miter" fill="none" stroke="#000000" d="M-5.66927 62.36288H-22.67752V79.37114H-5.66927ZM-22.67752 79.37114"/>
<path transform="matrix(1,0,0,-1,192.955,136.263)" stroke-width=".3985" stroke-linecap="butt" stroke-miterlimit="10" stroke-linejoin="miter" fill="none" stroke="#000000" d="M-34.01608 62.36288H-51.02432V79.37114H-34.01608ZM-51.02432 79.37114"/>
<path transform="matrix(1,0,0,-1,192.955,136.263)" stroke-width=".3985" stroke-linecap="butt" stroke-miterlimit="10" stroke-linejoin="miter" fill="none" stroke="#000000" d="M-62.36288 62.36288H-79.37114V79.37114H-62.36288ZM-79.37114 79.37114"/>
<path transform="matrix(1,0,0,-1,192.955,136.263)" stroke-width=".3985" stroke-linecap="butt" stroke-miterlimit="10" stroke-linejoin="miter" fill="none" stroke="#000000" d="M-90.7097 62.36288H-107.71794V79.37114H-90.7097ZM-107.71794 79.37114"/>
<path transform="matrix(1,0,0,-1,192.955,136.263)" stroke-width=".3985" stroke-linecap="butt" stroke-miterlimit="10" stroke-linejoin="miter" fill="none" stroke="#000000" d="M-119.0565 62.36288H-136.06476V79.37114H-119.0565ZM-136.06476 79.37114"/>
<path transform="matrix(1,0,0,-1,192.955,136.263)" stroke-width=".3985" stroke-linecap="butt" stroke-miterlimit="10" stroke-linejoin="miter" fill="none" stroke="#000000" d="M-147.40332 62.36288H-164.41156V79.37114H-147.40332ZM-164.41156 79.37114"/>
<path transform="matrix(1,0,0,-1,192.955,136.263)" stroke-width=".3985" stroke-linecap="butt" stroke-miterlimit="10" stroke-linejoin="miter" fill="none" stroke="#000000" d="M-175.75012 62.36288H-192.75838V79.37114H-175.75012ZM-192.75838 79.37114"/>
<path transform="matrix(1,0,0,-1,192.955,136.263)" stroke-width=".3985" stroke-linecap="butt" stroke-miterlimit="10" stroke-linejoin="miter" fill="none" stroke="#000000" d="M22.67752 90.7097H5.66927V107.71794H22.67752ZM5.66927 107.71794"/>
<path transform="matrix(1,0,0,-1,192.955,136.263)" stroke-width=".3985" stroke-linecap="butt" stroke-miterlimit="10" stroke-linejoin="miter" fill="none" stroke="#000000" d="M-5.66927 90.7097H-22.67752V107.71794H-5.66927ZM-22.67752 107.71794"/>
<path transform="matrix(1,0,0,-1,192.955,136.263)" stroke-width=".3985" stroke-linecap="butt" stroke-miterlimit="10" stroke-linejoin="miter" fill="none" stroke="#000000" d="M-34.01608 90.7097H-51.02432V107.71794H-34.01608ZM-51.02432 107.71794"/>
<path transform="matrix(1,0,0,-1,192.955,136.263)" stroke-width=".3985" stroke-linecap="butt" stroke-miterlimit="10" stroke-linejoin="miter" fill="none" stroke="#000000" d="M-62.36288 90.7097H-79.37114V107.71794H-62.36288ZM-79.37114 107.71794"/>
<path transform="matrix(1,0,0,-1,192.955,136.263)" stroke-width=".3985" stroke-linecap="butt" stroke-miterlimit="10" stroke-linejoin="miter" fill="none" stroke="#000000" d="M-90.7097 90.7097H-107.71794V107.71794H-90.7097ZM-107.71794 107.71794"/>
<path transform="matrix(1,0,0,-1,192.955,136.263)" stroke-width=".3985" stroke-linecap="butt" stroke-miterlimit="10" stroke-linejoin="miter" fill="none" stroke="#000000" d="M-119.0565 90.7097H-136.06476V107.71794H-119.0565ZM-136.06476 107.71794"/>
<path transform="matrix(1,0,0,-1,192.955,136.263)" stroke-width=".3985" stroke-linecap="butt" stroke-miterlimit="10" stroke-linejoin="miter" fill="none" stroke="#000000" d="M-147.40332 90.7097H-164.41156V107.71794H-147.40332ZM-164.41156 107.71794"/>
<path transform="matrix(1,0,0,-1,192.955,136.263)" stroke-width=".3985" stroke-linecap="butt" stroke-miterlimit="10" stroke-linejoin="miter" fill="none" stroke="#000000" d="M-175.75012 90.7097H-192.75838V107.71794H-175.75012ZM-192.75838 107.71794"/>
<path transform="matrix(1,0,0,-1,192.955,136.263)" stroke-width=".3985" stroke-linecap="butt" stroke-miterlimit="10" stroke-linejoin="miter" fill="none" stroke="#000000" d="M22.67752 119.0565H5.66927V136.06476H22.67752ZM5.66927 136.06476"/>
<path transform="matrix(1,0,0,-1,192.955,136.263)" stroke-width=".3985" stroke-linecap="butt" stroke-miterlimit="10" stroke-linejoin="miter" fill="none" stroke="#000000" d="M-5.66927 119.0565H-22.67752V136.06476H-5.66927ZM-22.67752 136.06476"/>
<path transform="matrix(1,0,0,-1,192.955,136.263)" stroke-width=".3985" stroke-linecap="butt" stroke-miterlimit="10" stroke-linejoin="miter" fill="none" stroke="#000000" d="M-34.01608 119.0565H-51.02432V136.06476H-34.01608ZM-51.02432 136.06476"/>
<path transform="matrix(1,0,0,-1,192.955,136.263)" stroke-width=".3985" stroke-linecap="butt" stroke-miterlimit="10" stroke-linejoin="miter" fill="none" stroke="#000000" d="M-62.36288 119.0565H-79.37114V136.06476H-62.36288ZM-79.37114 136.06476"/>
<path transform="matrix(1,0,0,-1,192.955,136.263)" stroke-width=".3985" stroke-linecap="butt" stroke-miterlimit="10" stroke-linejoin="miter" fill="none" stroke="#000000" d="M-90.7097 119.0565H-107.71794V136.06476H-90.7097ZM-107.71794 136.06476"/>
<path transform="matrix(1,0,0,-1,192.955,136.263)" stroke-width=".3985" stroke-linecap="butt" stroke-miterlimit="10" stroke-linejoin="miter" fill="none" stroke="#000000" d="M-119.0565 119.0565H-136.06476V136.06476H-119.0565ZM-136.06476 136.06476"/>
<path transform="matrix(1,0,0,-1,192.955,136.263)" stroke-width=".3985" stroke-linecap="butt" stroke-miterlimit="10" stroke-linejoin="miter" fill="none" stroke="#000000" d="M-147.40332 119.0565H-164.41156V136.06476H-147.40332ZM-164.41156 136.06476"/>
<path transform="matrix(1,0,0,-1,192.955,136.263)" stroke-width=".3985" stroke-linecap="butt" stroke-miterlimit="10" stroke-linejoin="miter" fill="none" stroke="#000000" d="M-175.75012 119.0565H-192.75838V136.06476H-175.75012ZM-192.75838 136.06476"/>
</svg>
