<svg xmlns="http://www.w3.org/2000/svg" xmlns:xlink="http://www.w3.org/1999/xlink" version="1.1" width="102.954pt" height="97.962pt" viewBox="0 0 102.954 97.962">
<path transform="matrix(1,0,0,-1,2.38,89.465999)" d="M53.32494 85.04042C53.32494 87.37502 51.4324 89.26755 49.09781 89.26755 46.76321 89.26755 44.87068 87.37502 44.87068 85.04042 44.87068 82.70583 46.76321 80.8133 49.09781 80.8133 51.4324 80.8133 53.32494 82.70583 53.32494 85.04042ZM49.09781 85.04042"/>
<path transform="matrix(1,0,0,-1,2.38,89.465999)" stroke-width=".3985" stroke-linecap="butt" stroke-miterlimit="10" stroke-linejoin="miter" fill="none" stroke="#000000" d="M53.32494 85.04042C53.32494 87.37502 51.4324 89.26755 49.09781 89.26755 46.76321 89.26755 44.87068 87.37502 44.87068 85.04042 44.87068 82.70583 46.76321 80.8133 49.09781 80.8133 51.4324 80.8133 53.32494 82.70583 53.32494 85.04042ZM49.09781 85.04042"/>
<path transform="matrix(1,0,0,-1,2.38,89.465999)" d="M36.95898 56.69362C36.95898 59.02821 35.06645 60.92073 32.73186 60.92073 30.39726 60.92073 28.50473 59.02821 28.50473 56.69362 28.50473 54.35901 30.39726 52.46649 32.73186 52.46649 35.06645 52.46649 36.95898 54.35901 36.95898 56.69362ZM32.73186 56.69362"/>
<path transform="matrix(1,0,0,-1,2.38,89.465999)" stroke-width=".3985" stroke-linecap="butt" stroke-miterlimit="10" stroke-linejoin="miter" fill="none" stroke="#000000" d="M36.95898 56.69362C36.95898 59.02821 35.06645 60.92073 32.73186 60.92073 30.39726 60.92073 28.50473 59.02821 28.50473 56.69362 28.50473 54.35901 30.39726 52.46649 32.73186 52.46649 35.06645 52.46649 36.95898 54.35901 36.95898 56.69362ZM32.73186 56.69362"/>
<path transform="matrix(1,0,0,-1,2.38,89.465999)" d="M69.69086 56.69362C69.69086 59.02821 67.79834 60.92073 65.46375 60.92073 63.12914 60.92073 61.23662 59.02821 61.23662 56.69362 61.23662 54.35901 63.12914 52.46649 65.46375 52.46649 67.79834 52.46649 69.69086 54.35901 69.69086 56.69362ZM65.46375 56.69362"/>
<path transform="matrix(1,0,0,-1,2.38,89.465999)" stroke-width=".3985" stroke-linecap="butt" stroke-miterlimit="10" stroke-linejoin="miter" fill="none" stroke="#000000" d="M69.69086 56.69362C69.69086 59.02821 67.79834 60.92073 65.46375 60.92073 63.12914 60.92073 61.23662 59.02821 61.23662 56.69362 61.23662 54.35901 63.12914 52.46649 65.46375 52.46649 67.79834 52.46649 69.69086 54.35901 69.69086 56.69362ZM65.46375 56.69362"/>
<path transform="matrix(1,0,0,-1,2.38,89.465999)" d="M20.59305 28.3468C20.59305 30.6814 18.70053 32.57393 16.36592 32.57393 14.03133 32.57393 12.13881 30.6814 12.13881 28.3468 12.13881 26.0122 14.03133 24.11967 16.36592 24.11967 18.70053 24.11967 20.59305 26.0122 20.59305 28.3468ZM16.36592 28.3468"/>
<path transform="matrix(1,0,0,-1,2.38,89.465999)" stroke-width=".3985" stroke-linecap="butt" stroke-miterlimit="10" stroke-linejoin="miter" fill="none" stroke="#000000" d="M20.59305 28.3468C20.59305 30.6814 18.70053 32.57393 16.36592 32.57393 14.03133 32.57393 12.13881 30.6814 12.13881 28.3468 12.13881 26.0122 14.03133 24.11967 16.36592 24.11967 18.70053 24.11967 20.59305 26.0122 20.59305 28.3468ZM16.36592 28.3468"/>
<path transform="matrix(1,0,0,-1,2.38,89.465999)" d="M53.32494 28.3468C53.32494 30.6814 51.4324 32.57393 49.09781 32.57393 46.76321 32.57393 44.87068 30.6814 44.87068 28.3468 44.87068 26.0122 46.76321 24.11967 49.09781 24.11967 51.4324 24.11967 53.32494 26.0122 53.32494 28.3468ZM49.09781 28.3468"/>
<path transform="matrix(1,0,0,-1,2.38,89.465999)" stroke-width=".3985" stroke-linecap="butt" stroke-miterlimit="10" stroke-linejoin="miter" fill="none" stroke="#000000" d="M53.32494 28.3468C53.32494 30.6814 51.4324 32.57393 49.09781 32.57393 46.76321 32.57393 44.87068 30.6814 44.87068 28.3468 44.87068 26.0122 46.76321 24.11967 49.09781 24.11967 51.4324 24.11967 53.32494 26.0122 53.32494 28.3468ZM49.09781 28.3468"/>
<path transform="matrix(1,0,0,-1,2.38,89.465999)" d="M86.05681 28.3468C86.05681 30.6814 84.16429 32.57393 81.82968 32.57393 79.49509 32.57393 77.60257 30.6814 77.60257 28.3468 77.60257 26.0122 79.49509 24.11967 81.82968 24.11967 84.16429 24.11967 86.05681 26.0122 86.05681 28.3468ZM81.82968 28.3468"/>
<path transform="matrix(1,0,0,-1,2.38,89.465999)" stroke-width=".3985" stroke-linecap="butt" stroke-miterlimit="10" stroke-linejoin="miter" fill="none" stroke="#000000" d="M86.05681 28.3468C86.05681 30.6814 84.16429 32.57393 81.82968 32.57393 79.49509 32.57393 77.60257 30.6814 77.60257 28.3468 77.60257 26.0122 79.49509 24.11967 81.82968 24.11967 84.16429 24.11967 86.05681 26.0122 86.05681 28.3468ZM81.82968 28.3468"/>
<text xml:space="preserve" transform="matrix(1 0 -0 1 .00000017881394 97.962)" font-size="9.9626" font-family="CMR10"><tspan y="-8.966" x=".996">.</tspan><tspan y="-4.981" x=".996">.</tspan><tspan y="-.99600008" x=".996">.</tspan></text>
<text xml:space="preserve" transform="matrix(1 0 -0 1 0 97.962)" font-size="9.9626" font-family="CMR10"><tspan y="-8.966" x="33.728">.</tspan><tspan y="-4.981" x="33.728">.</tspan><tspan y="-.99600008" x="33.728">.</tspan></text>
<text xml:space="preserve" transform="matrix(1 0 -0 1 0 97.962)" font-size="9.9626" font-family="CMR10"><tspan y="-8.966" x="66.459">.</tspan><tspan y="-4.981" x="66.459">.</tspan><tspan y="-.99600008" x="66.459">.</tspan></text>
<text xml:space="preserve" transform="matrix(1 0 -0 1 -.0000076293949 97.962)" font-size="9.9626" font-family="CMR10"><tspan y="-8.966" x="99.191">.</tspan><tspan y="-4.981" x="99.191">.</tspan><tspan y="-.99600008" x="99.191">.</tspan></text>
<path transform="matrix(1,0,0,-1,2.38,89.465999)" stroke-width=".79701" stroke-linecap="butt" stroke-miterlimit="10" stroke-linejoin="miter" fill="none" stroke="#000000" d="M46.87767 81.19492 35.67155 61.78548"/>
<path transform="matrix(-.50157,.86877,.86877,.50157,38.05155,27.680516)" d="M1.0361 0C-.25902 .25902-1.55415 .77707-3.1083 1.68365-1.55415 .51805-1.55415-.51805-3.1083-1.68365-1.55415-.77707-.25902-.25902 1.0361 0Z"/>
<path transform="matrix(-.50157,.86877,.86877,.50157,38.05155,27.680516)" stroke-width=".79701" stroke-linecap="butt" stroke-linejoin="round" fill="none" stroke="#000000" d="M1.0361 0C-.25902 .25902-1.55415 .77707-3.1083 1.68365-1.55415 .51805-1.55415-.51805-3.1083-1.68365-1.55415-.77707-.25902-.25902 1.0361 0Z"/>
<path transform="matrix(1,0,0,-1,2.38,89.465999)" stroke-width=".79701" stroke-linecap="butt" stroke-miterlimit="10" stroke-linejoin="miter" fill="none" stroke="#000000" d="M51.31795 81.19492 62.52405 61.78548"/>
<path transform="matrix(.50157,.86877,.86877,-.50157,64.90405,27.680516)" d="M1.0361 0C-.25902 .25902-1.55415 .77707-3.1083 1.68365-1.55415 .51805-1.55415-.51805-3.1083-1.68365-1.55415-.77707-.25902-.25902 1.0361 0Z"/>
<path transform="matrix(.50157,.86877,.86877,-.50157,64.90405,27.680516)" stroke-width=".79701" stroke-linecap="butt" stroke-linejoin="round" fill="none" stroke="#000000" d="M1.0361 0C-.25902 .25902-1.55415 .77707-3.1083 1.68365-1.55415 .51805-1.55415-.51805-3.1083-1.68365-1.55415-.77707-.25902-.25902 1.0361 0Z"/>
<path transform="matrix(1,0,0,-1,2.38,89.465999)" stroke-width=".79701" stroke-linecap="butt" stroke-miterlimit="10" stroke-linejoin="miter" fill="none" stroke="#000000" d="M30.51172 52.8481 19.30562 33.43866"/>
<path transform="matrix(-.50157,.86877,.86877,.50157,21.68562,56.027338)" d="M1.0361 0C-.25902 .25902-1.55415 .77707-3.1083 1.68365-1.55415 .51805-1.55415-.51805-3.1083-1.68365-1.55415-.77707-.25902-.25902 1.0361 0Z"/>
<path transform="matrix(-.50157,.86877,.86877,.50157,21.68562,56.027338)" stroke-width=".79701" stroke-linecap="butt" stroke-linejoin="round" fill="none" stroke="#000000" d="M1.0361 0C-.25902 .25902-1.55415 .77707-3.1083 1.68365-1.55415 .51805-1.55415-.51805-3.1083-1.68365-1.55415-.77707-.25902-.25902 1.0361 0Z"/>
<path transform="matrix(1,0,0,-1,2.38,89.465999)" stroke-width=".79701" stroke-linecap="butt" stroke-miterlimit="10" stroke-linejoin="miter" fill="none" stroke="#000000" d="M34.952 52.8481 46.15811 33.43866"/>
<path transform="matrix(.50157,.86877,.86877,-.50157,48.538114,56.027338)" d="M1.0361 0C-.25902 .25902-1.55415 .77707-3.1083 1.68365-1.55415 .51805-1.55415-.51805-3.1083-1.68365-1.55415-.77707-.25902-.25902 1.0361 0Z"/>
<path transform="matrix(.50157,.86877,.86877,-.50157,48.538114,56.027338)" stroke-width=".79701" stroke-linecap="butt" stroke-linejoin="round" fill="none" stroke="#000000" d="M1.0361 0C-.25902 .25902-1.55415 .77707-3.1083 1.68365-1.55415 .51805-1.55415-.51805-3.1083-1.68365-1.55415-.77707-.25902-.25902 1.0361 0Z"/>
<path transform="matrix(1,0,0,-1,2.38,89.465999)" stroke-width=".79701" stroke-linecap="butt" stroke-miterlimit="10" stroke-linejoin="miter" fill="none" stroke="#000000" d="M63.24359 52.8481 52.0375 33.43866"/>
<path transform="matrix(-.50157,.86877,.86877,.50157,54.4175,56.027338)" d="M1.0361 0C-.25902 .25902-1.55415 .77707-3.1083 1.68365-1.55415 .51805-1.55415-.51805-3.1083-1.68365-1.55415-.77707-.25902-.25902 1.0361 0Z"/>
<path transform="matrix(-.50157,.86877,.86877,.50157,54.4175,56.027338)" stroke-width=".79701" stroke-linecap="butt" stroke-linejoin="round" fill="none" stroke="#000000" d="M1.0361 0C-.25902 .25902-1.55415 .77707-3.1083 1.68365-1.55415 .51805-1.55415-.51805-3.1083-1.68365-1.55415-.77707-.25902-.25902 1.0361 0Z"/>
<path transform="matrix(1,0,0,-1,2.38,89.465999)" stroke-width=".79701" stroke-linecap="butt" stroke-miterlimit="10" stroke-linejoin="miter" fill="none" stroke="#000000" d="M67.68388 52.8481 78.88998 33.43866"/>
<path transform="matrix(.50157,.86877,.86877,-.50157,81.26997,56.027338)" d="M1.0361 0C-.25902 .25902-1.55415 .77707-3.1083 1.68365-1.55415 .51805-1.55415-.51805-3.1083-1.68365-1.55415-.77707-.25902-.25902 1.0361 0Z"/>
<path transform="matrix(.50157,.86877,.86877,-.50157,81.26997,56.027338)" stroke-width=".79701" stroke-linecap="butt" stroke-linejoin="round" fill="none" stroke="#000000" d="M1.0361 0C-.25902 .25902-1.55415 .77707-3.1083 1.68365-1.55415 .51805-1.55415-.51805-3.1083-1.68365-1.55415-.77707-.25902-.25902 1.0361 0Z"/>
<path transform="matrix(1,0,0,-1,2.38,89.465999)" stroke-width=".79701" stroke-linecap="butt" stroke-miterlimit="10" stroke-linejoin="miter" fill="none" stroke="#000000" d="M14.14586 24.5013 3.29884 5.71313"/>
<path transform="matrix(-.5016,.86877,.86877,.5016,5.67884,83.75287)" d="M1.0361 0C-.25902 .25902-1.55415 .77707-3.1083 1.68365-1.55415 .51805-1.55415-.51805-3.1083-1.68365-1.55415-.77707-.25902-.25902 1.0361 0Z"/>
<path transform="matrix(-.5016,.86877,.86877,.5016,5.67884,83.75287)" stroke-width=".79701" stroke-linecap="butt" stroke-linejoin="round" fill="none" stroke="#000000" d="M1.0361 0C-.25902 .25902-1.55415 .77707-3.1083 1.68365-1.55415 .51805-1.55415-.51805-3.1083-1.68365-1.55415-.77707-.25902-.25902 1.0361 0Z"/>
<path transform="matrix(1,0,0,-1,2.38,89.465999)" stroke-width=".79701" stroke-linecap="butt" stroke-miterlimit="10" stroke-linejoin="miter" fill="none" stroke="#000000" d="M18.586 24.5013 29.43301 5.71313"/>
<path transform="matrix(.5016,.86877,.86877,-.5016,31.813012,83.75287)" d="M1.0361 0C-.25902 .25902-1.55415 .77707-3.1083 1.68365-1.55415 .51805-1.55415-.51805-3.1083-1.68365-1.55415-.77707-.25902-.25902 1.0361 0Z"/>
<path transform="matrix(.5016,.86877,.86877,-.5016,31.813012,83.75287)" stroke-width=".79701" stroke-linecap="butt" stroke-linejoin="round" fill="none" stroke="#000000" d="M1.0361 0C-.25902 .25902-1.55415 .77707-3.1083 1.68365-1.55415 .51805-1.55415-.51805-3.1083-1.68365-1.55415-.77707-.25902-.25902 1.0361 0Z"/>
<path transform="matrix(1,0,0,-1,2.38,89.465999)" stroke-width=".79701" stroke-linecap="butt" stroke-miterlimit="10" stroke-linejoin="miter" fill="none" stroke="#000000" d="M46.87775 24.5013 36.0307 5.71313"/>
<path transform="matrix(-.5016,.86877,.86877,.5016,38.4107,83.75287)" d="M1.0361 0C-.25902 .25902-1.55415 .77707-3.1083 1.68365-1.55415 .51805-1.55415-.51805-3.1083-1.68365-1.55415-.77707-.25902-.25902 1.0361 0Z"/>
<path transform="matrix(-.5016,.86877,.86877,.5016,38.4107,83.75287)" stroke-width=".79701" stroke-linecap="butt" stroke-linejoin="round" fill="none" stroke="#000000" d="M1.0361 0C-.25902 .25902-1.55415 .77707-3.1083 1.68365-1.55415 .51805-1.55415-.51805-3.1083-1.68365-1.55415-.77707-.25902-.25902 1.0361 0Z"/>
<path transform="matrix(1,0,0,-1,2.38,89.465999)" stroke-width=".79701" stroke-linecap="butt" stroke-miterlimit="10" stroke-linejoin="miter" fill="none" stroke="#000000" d="M51.31787 24.5013 62.1649 5.71313"/>
<path transform="matrix(.5016,.86877,.86877,-.5016,64.5449,83.75287)" d="M1.0361 0C-.25902 .25902-1.55415 .77707-3.1083 1.68365-1.55415 .51805-1.55415-.51805-3.1083-1.68365-1.55415-.77707-.25902-.25902 1.0361 0Z"/>
<path transform="matrix(.5016,.86877,.86877,-.5016,64.5449,83.75287)" stroke-width=".79701" stroke-linecap="butt" stroke-linejoin="round" fill="none" stroke="#000000" d="M1.0361 0C-.25902 .25902-1.55415 .77707-3.1083 1.68365-1.55415 .51805-1.55415-.51805-3.1083-1.68365-1.55415-.77707-.25902-.25902 1.0361 0Z"/>
<path transform="matrix(1,0,0,-1,2.38,89.465999)" stroke-width=".79701" stroke-linecap="butt" stroke-miterlimit="10" stroke-linejoin="miter" fill="none" stroke="#000000" d="M79.60962 24.5013 68.76259 5.71313"/>
<path transform="matrix(-.5016,.86877,.86877,.5016,71.142589,83.75287)" d="M1.0361 0C-.25902 .25902-1.55415 .77707-3.1083 1.68365-1.55415 .51805-1.55415-.51805-3.1083-1.68365-1.55415-.77707-.25902-.25902 1.0361 0Z"/>
<path transform="matrix(-.5016,.86877,.86877,.5016,71.142589,83.75287)" stroke-width=".79701" stroke-linecap="butt" stroke-linejoin="round" fill="none" stroke="#000000" d="M1.0361 0C-.25902 .25902-1.55415 .77707-3.1083 1.68365-1.55415 .51805-1.55415-.51805-3.1083-1.68365-1.55415-.77707-.25902-.25902 1.0361 0Z"/>
<path transform="matrix(1,0,0,-1,2.38,89.465999)" stroke-width=".79701" stroke-linecap="butt" stroke-miterlimit="10" stroke-linejoin="miter" fill="none" stroke="#000000" d="M84.04976 24.5013 94.89677 5.71313"/>
<path transform="matrix(.5016,.86877,.86877,-.5016,97.276767,83.75287)" d="M1.0361 0C-.25902 .25902-1.55415 .77707-3.1083 1.68365-1.55415 .51805-1.55415-.51805-3.1083-1.68365-1.55415-.77707-.25902-.25902 1.0361 0Z"/>
<path transform="matrix(.5016,.86877,.86877,-.5016,97.276767,83.75287)" stroke-width=".79701" stroke-linecap="butt" stroke-linejoin="round" fill="none" stroke="#000000" d="M1.0361 0C-.25902 .25902-1.55415 .77707-3.1083 1.68365-1.55415 .51805-1.55415-.51805-3.1083-1.68365-1.55415-.77707-.25902-.25902 1.0361 0Z"/>
</svg>
