<?xml version="1.0" encoding="UTF-8" standalone="no"?>
<svg
   xmlns:dc="http://purl.org/dc/elements/1.1/"
   xmlns:cc="http://creativecommons.org/ns#"
   xmlns:rdf="http://www.w3.org/1999/02/22-rdf-syntax-ns#"
   xmlns:svg="http://www.w3.org/2000/svg"
   xmlns="http://www.w3.org/2000/svg"
   viewBox="0 0 1228.8 1228.8"
   height="1228.8"
   width="1228.8"
   xml:space="preserve"
   id="svg2"
   version="1.1"><metadata
     id="metadata8"><rdf:RDF><cc:Work
         rdf:about=""><dc:format>image/svg+xml</dc:format><dc:type
           rdf:resource="http://purl.org/dc/dcmitype/StillImage" /></cc:Work></rdf:RDF></metadata><defs
     id="defs6"><clipPath
       id="clipPath14"
       clipPathUnits="userSpaceOnUse"><path
         id="path12"
         d="M 0,0 H 922 V 922 H 0 Z" /></clipPath></defs><g
     clip-path="url(#clipPath14)"
     transform="matrix(1.3333333,0,0,-1.3333333,0,1228.8)"
     id="g10"><path
       id="path16"
       style="fill:#ad6c2e;fill-opacity:1;fill-rule:nonzero;stroke:none"
       d="m 202.691,697.507 -2.936,0.909 -2.316,2.002 -0.879,1.671 -0.599,1.101 -0.409,3.285 0.84,3.239 0.778,1.049 1.146,1.501 2.725,1.577 3.236,0.391 0.508,-0.151 2.58,-0.833 2.37,-2.066 1.416,-2.837 0.246,-3.315 -0.998,-3.181 -1.975,-2.473 -2.659,-1.524 -2.576,-0.279 -0.498,-0.066" /><path
       id="path18"
       style="fill:#ad6c2e;fill-opacity:1;fill-rule:nonzero;stroke:none"
       d="m 180.078,698.341 -0.647,0.129 -2.203,0.316 -2.497,1.583 -0.658,0.865 -1.266,1.565 -1.072,3.136 0.163,3.337 0.939,1.923 0.514,0.971 2.541,2.034 2.585,0.747 0.74,0.169 3.354,-0.559 2.08,-1.315 0.618,-0.447 1.739,-2.734 0.592,-3.291 -0.657,-3.245 -1.669,-2.607 -0.571,-0.402 -1.788,-1.431 -2.837,-0.744" /><path
       id="path20"
       style="fill:#ad6c2e;fill-opacity:1;fill-rule:nonzero;stroke:none"
       d="m 159.895,693.936 -2.664,-0.509 -0.425,0.103 -2.363,0.374 -2.715,1.493 -2.255,2.461 -1.178,3.098 0.221,3.229 1.329,2.556 0.273,0.428 2.954,2.099 2.035,0.522 1.505,0.233 3.282,-0.758 2.094,-1.593 0.444,-0.377 1.521,-2.987 0.308,-3.289 -0.142,-0.523 -0.556,-2.518 -1.493,-2.426 -0.949,-0.624 -1.226,-0.992" /><path
       id="path22"
       style="fill:#ad6c2e;fill-opacity:1;fill-rule:nonzero;stroke:none"
       d="m 143.236,681.937 -1.268,-0.779 -1.091,-0.786 -2.858,-0.565 -2.75,0.42 -0.353,0.041 -2.935,1.524 -2.193,2.533 -0.12,0.359 -0.784,2.706 0.44,3.271 0.833,1.452 1.026,1.513 2.898,1.962 1.067,0.219 2.206,0.308 3.122,-0.842 2.575,-2.097 1.624,-2.909 0.528,-3.058 -0.357,-1.883 -0.125,-0.973 -1.485,-2.416" /><path
       id="path24"
       style="fill:#ad6c2e;fill-opacity:1;fill-rule:nonzero;stroke:none"
       d="m 131.615,664.926 -1.537,-2.153 -0.593,-0.337 -1.725,-1.165 -2.975,-0.809 -3.344,0.131 -3.021,1.341 -2.096,2.486 -0.734,2.549 -0.156,0.795 0.692,3.627 0.663,1.087 1.436,1.894 2.875,1.715 0.868,0.105 2.379,0.16 3.147,-1.123 2.489,-2.186 1.075,-1.95 0.449,-0.726 0.602,-2.804 -0.387,-1.728 -0.107,-0.909" /><path
       id="path26"
       style="fill:#ad6c2e;fill-opacity:1;fill-rule:nonzero;stroke:none"
       d="m 129.684,646.59 -0.085,-1.483 0.061,-1.069 -1.05,-2.58 -0.747,-0.862 -1.171,-1.526 -2.768,-1.814 -3.275,-0.672 -2.046,0.449 -1.135,0.328 -2.617,2.229 -0.738,1.381 -0.821,2.058 -0.094,3.111 0.057,0.689 1.521,3.165 1.79,1.475 0.768,0.546 3.285,0.681 3.249,-0.569 0.74,-0.415 2.007,-0.964 1.972,-1.874 0.157,-0.42 0.94,-1.864" /><path
       id="path28"
       style="fill:#ad6c2e;fill-opacity:1;fill-rule:nonzero;stroke:none"
       d="m 137.341,624.293 0.119,-1.952 0.011,-1.35 -1.209,-2.873 -2.236,-2.259 -3.054,-1.333 -3.324,-0.113 -2.971,1.073 -2.299,2.066 -0.557,1.22 -0.782,1.495 -0.08,2.924 1.132,2.788 0.187,0.204 1.853,2.101 2.888,1.646 3.297,0.464 2.867,-0.842 0.263,-0.084 2.41,-2.107 1.485,-3.068" /></g></svg>