<?xml version="1.0" encoding="UTF-8" standalone="no"?>
<svg
   xmlns:dc="http://purl.org/dc/elements/1.1/"
   xmlns:cc="http://creativecommons.org/ns#"
   xmlns:rdf="http://www.w3.org/1999/02/22-rdf-syntax-ns#"
   xmlns:svg="http://www.w3.org/2000/svg"
   xmlns="http://www.w3.org/2000/svg"
   viewBox="0 0 1228.8 1228.8"
   height="1228.8"
   width="1228.8"
   xml:space="preserve"
   id="svg2"
   version="1.1"><metadata
     id="metadata8"><rdf:RDF><cc:Work
         rdf:about=""><dc:format>image/svg+xml</dc:format><dc:type
           rdf:resource="http://purl.org/dc/dcmitype/StillImage" /></cc:Work></rdf:RDF></metadata><defs
     id="defs6"><clipPath
       id="clipPath14"
       clipPathUnits="userSpaceOnUse"><path
         id="path12"
         d="M 0,0 H 922 V 922 H 0 Z" /></clipPath></defs><g
     clip-path="url(#clipPath14)"
     transform="matrix(1.3333333,0,0,-1.3333333,0,1228.8)"
     id="g10"><path
       id="path16"
       style="fill:#ad6c2e;fill-opacity:1;fill-rule:nonzero;stroke:none"
       d="m 608.827,654.563 2.21,-1.508 1.483,-2.452 0.597,-2.668 0.108,-0.397 -0.264,-3.295 -1.477,-3.007 -0.34,-0.29 -2.165,-1.663 -3.254,-0.728 -3.592,0.604 -0.221,0.131 -2.551,1.96 -1.634,2.827 -0.352,3.159 1.003,3.151 2.118,2.593 2.688,1.638 2.875,0.571 2.575,-0.606 0.193,-0.02" /><path
       id="path18"
       style="fill:#ad6c2e;fill-opacity:1;fill-rule:nonzero;stroke:none"
       d="m 627.371,651.761 1.533,-0.163 1.047,-0.007 2.53,-1.212 0.6,-0.596 1.654,-1.474 1.615,-2.894 0.44,-3.309 -0.68,-2.3 -0.295,-0.824 -2.357,-2.453 -1.351,-0.617 -2.124,-0.727 -2.644,0.064 -1.111,0.134 -3.056,1.636 -0.374,0.486 -1.506,2.233 -0.512,3.293 0.733,3.235 1.247,2.107 0.269,0.52 1.978,1.908 0.7,0.231 1.664,0.729" /><path
       id="path20"
       style="fill:#ad6c2e;fill-opacity:1;fill-rule:nonzero;stroke:none"
       d="m 645.471,659.565 0.942,0.351 1.591,0.749 2.893,0.028 1.295,-0.452 1.65,-0.5 2.644,-1.993 1.742,-2.853 0.267,-1.821 0.139,-1.388 -1.024,-3.144 -1.461,-1.723 -0.915,-0.914 -3.263,-1.424 -1.052,-0.023 -2.3,0.109 -2.904,1.424 -2.096,2.568 -1.012,3.18 0.057,3.095 0.691,1.798 0.276,0.882 1.84,2.051" /><path
       id="path22"
       style="fill:#ad6c2e;fill-opacity:1;fill-rule:nonzero;stroke:none"
       d="m 660.441,674.732 2.392,2.032 2.949,0.886 3.139,-0.295 2.96,-1.513 2.201,-2.503 1.069,-2.991 -0.12,-3.114 -1.367,-2.865 -0.342,-0.292 -2.198,-1.809 -3.047,-0.898 -1.298,0.146 -1.891,0.244 -2.886,1.679 -2.053,2.604 -0.554,1.73 -0.416,1.234 0.13,3.017 1.139,2.302 0.193,0.406" /><path
       id="path24"
       style="fill:#ad6c2e;fill-opacity:1;fill-rule:nonzero;stroke:none"
       d="m 675.819,693.837 2.925,1.983 2.738,0.56 0.5,0.067 3.195,-0.841 2.568,-2.12 1.601,-2.904 0.555,-2.983 -0.072,-0.397 -0.311,-2.479 -1.448,-2.376 -0.325,-0.198 -2.039,-1.474 -2.911,-0.603 -1.195,0.189 -1.909,0.242 -2.92,1.582 -2.143,2.556 -0.605,1.88 -0.337,1.174 0.4,3.198 1.464,2.55 0.269,0.394" /><path
       id="path26"
       style="fill:#ad6c2e;fill-opacity:1;fill-rule:nonzero;stroke:none"
       d="m 699.174,708.9 2.809,0.345 0.864,0.011 3.194,-1.211 2.251,-2.278 0.021,-0.059 1.057,-3.121 -0.16,-3.233 -0.002,-0.062 -1.086,-2.927 -1.755,-2.173 -0.556,-0.265 -1.705,-1.058 -2.276,-0.108 -0.33,-0.053 -2.619,0.797 -2.54,1.782 -1.707,2.22 -0.339,0.424 -0.164,0.532 -0.758,2.646 0.563,3.172 1.983,2.857 0.407,0.277 2.848,1.485" /><path
       id="path28"
       style="fill:#ad6c2e;fill-opacity:1;fill-rule:nonzero;stroke:none"
       d="m 726.644,710.425 2.162,-0.804 1.224,-0.575 2.328,-2.483 0.257,-0.741 0.697,-2.41 -0.507,-3.296 -1.674,-2.861 -1.713,-1.515 -0.544,-0.529 -2.543,-1.184 -0.951,0.005 -1.703,-0.128 -1.874,0.84 -0.598,0.209 -2.019,1.984 -1.054,2.136 -0.349,0.633 -0.5,3.267 0.747,3.266 0.457,0.632 1.529,1.908 3.003,1.539 0.851,0.081 2.774,0.026" /><path
       id="path30"
       style="fill:#ad6c2e;fill-opacity:1;fill-rule:nonzero;stroke:none"
       d="m 752.127,696.988 0.09,-0.128 1.796,-3.277 0.093,-0.691 0.095,-2.808 -1.111,-2.677 -0.158,-0.308 -2.539,-2.184 -3.125,-1.084 -0.328,0.011 -2.754,-0.123 -2.092,0.588 -0.53,0.094 -1.892,1.364 -0.083,0.047 -1.14,2.094 -0.011,0.239 -0.338,2.381 0.338,2.06 0.088,0.955 1.34,3.018 2.391,2.347 1.004,0.369 2.135,0.605 3.231,-0.51 0.304,-0.081 3.196,-2.301" /></g></svg>