<?xml version="1.0" encoding="UTF-8" standalone="no"?>
<svg
   xmlns:dc="http://purl.org/dc/elements/1.1/"
   xmlns:cc="http://creativecommons.org/ns#"
   xmlns:rdf="http://www.w3.org/1999/02/22-rdf-syntax-ns#"
   xmlns:svg="http://www.w3.org/2000/svg"
   xmlns="http://www.w3.org/2000/svg"
   viewBox="0 0 224 224"
   height="224"
   width="224"
   xml:space="preserve"
   id="svg2"
   version="1.1"><metadata
     id="metadata8"><rdf:RDF><cc:Work
         rdf:about=""><dc:format>image/svg+xml</dc:format><dc:type
           rdf:resource="http://purl.org/dc/dcmitype/StillImage" /></cc:Work></rdf:RDF></metadata><defs
     id="defs6" /><g
     transform="matrix(1.3333333,0,0,-1.3333333,0,224)"
     id="g10"><path
       id="path12"
       style="fill:#583615;fill-opacity:1;fill-rule:nonzero;stroke:none"
       d="m 55.199,102.877 c -0.455,1.79 -0.911,3.58 0.786,5.117 1.698,1.536 5.549,2.819 9.827,4.798 4.278,1.979 8.984,4.653 13.209,6.953 4.225,2.299 7.969,4.224 12.354,5.668 4.385,1.444 9.412,2.407 16.899,3.744 7.487,1.337 17.435,3.048 25.67,6.578 8.236,3.53 14.761,8.878 19.039,13.316 4.278,4.439 6.31,7.969 7.327,9.734 1.016,1.764 1.016,1.764 0.962,-0.696 -0.053,-2.46 -0.16,-7.38 -2.085,-12.621 -1.926,-5.241 -5.669,-10.803 -11.017,-14.974 -5.348,-4.171 -12.3,-6.952 -18.878,-8.931 -6.578,-1.979 -12.782,-3.155 -18.986,-4.332 9.707,-4.252 19.413,-8.503 26.431,-17.126 7.019,-8.623 11.351,-21.618 11.832,-34.372 0.481,-12.754 -2.888,-25.268 -5.053,-32.607 -2.166,-7.34 -3.129,-9.506 -8.423,-15.041 -5.294,-5.534 -14.92,-14.438 -23.944,-21.537 L 40.065,-14.79 c 4.839,11.162 12.939,17.021 22.003,24.28 9.065,7.26 19.094,15.92 25.552,19.892 6.457,3.97 8.515,6.241 11.831,9.984 3.315,3.743 7.887,8.957 9.973,14.492 2.086,5.535 1.685,11.391 -0.066,15.804 -1.751,4.413 -4.852,7.383 -6.402,8.868 -1.551,1.485 -1.551,1.485 -0.227,-0.441 1.323,-1.925 3.971,-5.775 5.094,-9.867 1.123,-4.091 0.722,-8.422 -0.442,-12.795 -1.163,-4.371 -3.088,-8.783 -6.056,-11.07 -2.968,-2.286 -6.979,-2.446 -10.469,-2.045 -3.489,0.401 -6.457,1.363 -9.746,1.724 -3.289,0.361 -6.899,0.121 -10.83,-0.321 L 57.726,42.031 c -4.372,-0.602 -8.864,-1.163 -11.792,-2.086 -2.928,-0.922 -4.292,-2.206 -4.653,-3.93 -0.361,-1.725 0.281,-3.891 0.602,-4.974 0.321,-1.083 0.321,-1.083 -1.003,-0.642 -1.324,0.441 -3.971,1.324 -6.377,1.765 -2.407,0.441 -4.573,0.441 -6.739,1.484 -2.166,1.043 -4.332,3.129 -5.615,4.773 -1.284,1.644 -1.685,2.848 -1.845,4.172 -0.161,1.323 -0.08,2.767 -0.04,3.449 0.04,0.682 0.04,0.602 0.722,-0.12 l 2.727,-2.768 c 0.682,-0.682 0.682,-0.682 0.682,0.16 0,0.843 0,2.527 0.281,4.011 0.28,1.485 0.842,2.768 1.885,3.691 1.043,0.922 2.567,1.484 3.329,1.764 0.762,0.281 0.762,0.281 0.802,-0.441 0.04,-0.722 0.121,-2.166 0.321,-2.888 0.201,-0.722 0.521,-0.722 0.682,-0.722 0.16,0 0.16,0 0.401,0.883 0.241,0.882 0.722,2.647 1.685,4.051 0.962,1.403 2.406,2.446 3.088,2.406 0.682,-0.04 0.602,-1.163 0.762,-2.246 0.161,-1.083 0.562,-2.126 0.762,-2.647 0.201,-0.522 0.201,-0.522 0.281,0.04 0.08,0.562 0.241,1.684 1.364,2.928 1.123,1.243 3.208,2.607 4.251,3.289 1.043,0.682 1.043,0.682 0.843,-0.281 l -0.803,-3.85 c -0.2,-0.963 -0.2,-0.963 0.682,-0.241 0.883,0.722 2.647,2.166 5.054,3.409 2.407,1.244 5.455,2.286 8.383,2.407 2.928,0.12 5.736,-0.682 7.139,-1.364 1.404,-0.681 1.404,-1.243 1.805,-1.243 0.401,0 1.204,0.562 1.244,1.684 0.04,1.123 -0.682,2.808 -1.284,4.533 -0.601,1.724 -1.083,3.489 -2.888,4.813 -1.805,1.324 -4.933,2.206 -7.941,2.607 -3.009,0.401 -5.896,0.321 -8.544,-0.12 -2.647,-0.442 -5.053,-1.244 -6.257,-2.046 -1.203,-0.802 -1.203,-1.604 -0.561,-2.647 0.642,-1.043 1.925,-2.326 2.567,-2.968 l 0.642,-0.642 -0.602,-0.12 c -0.602,-0.121 -1.805,-0.361 -3.73,0.361 -1.926,0.722 -4.573,2.406 -5.896,3.249 -1.324,0.842 -1.324,0.842 -1.244,-0.121 0.08,-0.963 0.241,-2.888 0.562,-4.291 0.321,-1.404 0.802,-2.287 1.043,-2.728 l 0.24,-0.441 -0.802,0.12 c -0.802,0.12 -2.407,0.361 -3.77,1.043 -1.364,0.682 -2.487,1.805 -3.049,2.366 -0.561,0.562 -0.561,0.562 -0.962,-0.16 -0.401,-0.722 -1.204,-2.166 -1.444,-3.449 -0.241,-1.284 0.08,-2.407 0.361,-3.049 0.281,-0.641 0.521,-0.802 0.12,-0.922 -0.401,-0.12 -1.444,-0.201 -2.447,0.642 -1.002,0.842 -1.965,2.607 -2.647,3.649 -0.682,1.044 -1.083,1.364 -1.885,0.803 -0.802,-0.562 -2.005,-2.006 -2.727,-3.891 -0.722,-1.885 -0.963,-4.211 -1.083,-5.375 -0.121,-1.163 -0.121,-1.163 -1.123,0.482 l -4.452,7.54 c -1.444,2.608 -2.327,4.533 -2.648,7.38 -0.321,2.848 -0.08,6.618 0.281,9.466 0.361,2.848 0.842,4.773 1.925,7.42 1.083,2.648 2.768,6.017 4.974,8.383 2.206,2.367 4.933,3.731 6.297,4.412 1.364,0.682 1.364,0.682 0.682,-1.283 -0.682,-1.965 -2.046,-5.896 -2.888,-8.985 -0.842,-3.088 -1.163,-5.334 -0.762,-5.855 0.401,-0.522 1.524,0.682 3.971,2.446 2.447,1.765 6.217,4.091 11.311,6.378 5.094,2.286 11.511,4.532 15.602,7.179 4.091,2.647 5.856,5.696 7.621,8.744 z m 13.459,-9.904 c -1.61,-1.268 -2.585,-2.146 -1.219,-2.634 1.365,-0.487 5.072,-0.585 8.047,-0.829 2.975,-0.244 5.219,-0.634 6.974,0.244 1.756,0.878 3.024,3.024 4.683,5.219 1.658,2.194 3.706,4.438 3.17,5.218 -0.537,0.781 -3.658,0.098 -6.682,-0.585 -3.024,-0.683 -5.95,-1.366 -8.535,-2.536 -2.585,-1.171 -4.829,-2.829 -6.438,-4.097" /></g></svg>