<?xml version="1.0" encoding="UTF-8" standalone="no"?>
<svg
   xmlns:dc="http://purl.org/dc/elements/1.1/"
   xmlns:cc="http://creativecommons.org/ns#"
   xmlns:rdf="http://www.w3.org/1999/02/22-rdf-syntax-ns#"
   xmlns:svg="http://www.w3.org/2000/svg"
   xmlns="http://www.w3.org/2000/svg"
   viewBox="0 0 224 224"
   height="224"
   width="224"
   xml:space="preserve"
   id="svg2"
   version="1.1"><metadata
     id="metadata8"><rdf:RDF><cc:Work
         rdf:about=""><dc:format>image/svg+xml</dc:format><dc:type
           rdf:resource="http://purl.org/dc/dcmitype/StillImage" /></cc:Work></rdf:RDF></metadata><defs
     id="defs6" /><g
     transform="matrix(1.3333333,0,0,-1.3333333,0,224)"
     id="g10"><path
       id="path12"
       style="fill:#583615;fill-opacity:1;fill-rule:nonzero;stroke:none"
       d="m 80.559,145.279 c -0.106,0.416 -0.212,0.833 0.183,1.19 0.395,0.357 1.29,0.656 2.285,1.116 0.995,0.46 2.089,1.082 3.072,1.617 0.982,0.535 1.853,0.982 2.873,1.318 1.02,0.336 2.189,0.56 3.93,0.871 1.741,0.31 4.054,0.708 5.969,1.529 1.916,0.821 3.433,2.065 4.428,3.097 0.995,1.032 1.467,1.853 1.704,2.263 0.236,0.411 0.236,0.411 0.224,-0.161 -0.013,-0.572 -0.038,-1.716 -0.486,-2.935 -0.447,-1.219 -1.318,-2.512 -2.561,-3.483 -1.244,-0.97 -2.861,-1.616 -4.391,-2.076 -1.529,-0.461 -2.972,-0.734 -4.415,-1.008 2.258,-0.989 4.515,-1.977 6.147,-3.982 1.632,-2.006 2.639,-5.028 2.751,-7.994 0.112,-2.966 -0.671,-5.876 -1.175,-7.583 -0.503,-1.707 -0.727,-2.21 -1.958,-3.497 -1.232,-1.287 -3.47,-3.358 -5.569,-5.009 -2.098,-1.651 -4.057,-2.882 -4.98,-4.057 -0.924,-1.175 -2.233,-2.513 -3.313,-3.993 -1.24,-1.52 -9.363,2.818 -8.237,5.413 1.125,2.596 3.009,3.959 5.117,5.647 2.107,1.688 4.44,3.702 5.942,4.626 1.501,0.923 1.98,1.451 2.751,2.322 0.771,0.87 1.834,2.083 2.319,3.37 0.485,1.287 0.392,2.649 -0.015,3.675 -0.407,1.026 -1.129,1.717 -1.489,2.062 -0.361,0.345 -0.361,0.345 -0.053,-0.102 0.308,-0.448 0.924,-1.343 1.185,-2.295 0.261,-0.951 0.168,-1.959 -0.103,-2.975 -0.27,-1.017 -0.718,-2.043 -1.408,-2.575 -0.691,-0.531 -1.623,-0.569 -2.435,-0.475 -0.811,0.093 -1.502,0.317 -2.266,0.401 -0.765,0.084 -1.605,0.028 -2.519,-0.075 l -2.919,-0.392 c -1.017,-0.14 -2.062,-0.27 -2.743,-0.485 -0.68,-0.214 -0.998,-0.513 -1.082,-0.914 -0.084,-0.401 0.066,-0.905 0.14,-1.156 0.075,-0.252 0.075,-0.252 -0.233,-0.15 -0.308,0.103 -0.923,0.308 -1.483,0.411 -0.56,0.102 -1.063,0.102 -1.567,0.345 -0.504,0.242 -1.007,0.727 -1.306,1.11 -0.298,0.382 -0.392,0.662 -0.429,0.97 -0.037,0.308 -0.018,0.644 -0.009,0.802 0.009,0.159 0.009,0.14 0.168,-0.028 l 0.634,-0.643 c 0.159,-0.159 0.159,-0.159 0.159,0.037 0,0.196 0,0.587 0.065,0.933 0.065,0.345 0.196,0.643 0.438,0.858 0.243,0.214 0.597,0.345 0.774,0.41 0.178,0.065 0.178,0.065 0.187,-0.103 0.009,-0.167 0.028,-0.503 0.075,-0.671 0.046,-0.168 0.121,-0.168 0.158,-0.168 0.037,0 0.037,0 0.093,0.205 0.056,0.205 0.168,0.616 0.392,0.942 0.224,0.327 0.56,0.569 0.718,0.56 0.159,-0.009 0.14,-0.271 0.178,-0.522 0.037,-0.252 0.13,-0.495 0.177,-0.616 0.046,-0.121 0.046,-0.121 0.065,0.009 0.019,0.131 0.056,0.392 0.317,0.681 0.261,0.289 0.746,0.606 0.989,0.765 0.243,0.159 0.243,0.159 0.196,-0.065 l -0.187,-0.896 c -0.046,-0.224 -0.046,-0.224 0.159,-0.056 0.205,0.168 0.615,0.504 1.175,0.793 0.56,0.289 1.269,0.532 1.95,0.56 0.681,0.028 1.333,-0.159 1.66,-0.317 0.326,-0.159 0.326,-0.289 0.42,-0.289 0.093,0 0.279,0.13 0.289,0.391 0.009,0.262 -0.159,0.653 -0.299,1.054 -0.14,0.401 -0.252,0.812 -0.671,1.12 -0.42,0.307 -1.148,0.513 -1.847,0.606 -0.7,0.093 -1.371,0.075 -1.987,-0.028 -0.615,-0.103 -1.175,-0.289 -1.455,-0.476 -0.28,-0.186 -0.28,-0.373 -0.131,-0.615 0.15,-0.243 0.448,-0.541 0.597,-0.691 l 0.15,-0.149 -0.14,-0.028 c -0.14,-0.028 -0.42,-0.084 -0.868,0.084 -0.447,0.168 -1.063,0.56 -1.371,0.756 -0.308,0.196 -0.308,0.196 -0.289,-0.028 0.019,-0.224 0.056,-0.672 0.131,-0.998 0.074,-0.327 0.186,-0.532 0.242,-0.635 l 0.056,-0.102 -0.186,0.028 c -0.187,0.028 -0.56,0.084 -0.877,0.242 -0.317,0.159 -0.579,0.42 -0.709,0.551 -0.131,0.13 -0.131,0.13 -0.224,-0.038 -0.093,-0.168 -0.28,-0.503 -0.336,-0.802 -0.056,-0.298 0.019,-0.56 0.084,-0.709 0.065,-0.149 0.121,-0.186 0.028,-0.214 -0.093,-0.028 -0.336,-0.047 -0.569,0.149 -0.233,0.196 -0.457,0.606 -0.615,0.849 -0.159,0.242 -0.252,0.317 -0.439,0.186 -0.186,-0.13 -0.466,-0.466 -0.634,-0.905 -0.168,-0.438 -0.224,-0.979 -0.252,-1.249 -0.028,-0.271 -0.028,-0.271 -0.261,0.112 l -1.035,1.753 c -0.336,0.606 -0.541,1.054 -0.616,1.716 -0.075,0.663 -0.019,1.539 0.065,2.202 0.084,0.662 0.196,1.11 0.448,1.725 0.252,0.616 0.643,1.399 1.157,1.95 0.513,0.55 1.147,0.867 1.464,1.026 0.317,0.158 0.317,0.158 0.158,-0.299 -0.158,-0.457 -0.475,-1.371 -0.671,-2.089 -0.196,-0.718 -0.271,-1.241 -0.177,-1.362 0.093,-0.121 0.354,0.159 0.923,0.569 0.569,0.41 1.446,0.951 2.63,1.483 1.185,0.532 2.677,1.054 3.629,1.67 0.951,0.615 1.362,1.324 1.772,2.033 z m 3.13,-2.303 c -0.374,-0.295 -0.601,-0.499 -0.284,-0.613 0.318,-0.113 1.18,-0.136 1.872,-0.192 0.692,-0.057 1.213,-0.148 1.622,0.056 0.408,0.205 0.703,0.704 1.089,1.214 0.385,0.51 0.862,1.032 0.737,1.214 -0.125,0.181 -0.851,0.022 -1.554,-0.137 -0.703,-0.158 -1.384,-0.317 -1.985,-0.589 -0.601,-0.273 -1.123,-0.658 -1.497,-0.953" /><path
       id="path14"
       style="fill:#583615;fill-opacity:1;fill-rule:nonzero;stroke:none"
       d="m 60.286,83.02 c -1.559,3.487 -2.496,5.711 -3.136,8.573 -0.639,2.861 -0.98,6.361 -1.092,9.761 -0.112,3.4 0.006,6.702 -0.068,8.935 -0.074,2.233 -0.341,3.398 -0.863,4.814 -0.523,1.416 -1.302,3.083 -2.045,3.735 -0.743,0.652 -1.449,0.289 -1.949,-0.503 -0.499,-0.792 -0.791,-2.013 -1.872,-3.04 -1.081,-1.027 -2.95,-1.859 -4.315,-2.457 -1.364,-0.598 -2.223,-0.962 -2.928,-1.604 -0.704,-0.642 -1.252,-1.562 -1.294,-2.476 -0.041,-0.914 0.426,-1.823 -0.051,-2.361 -0.477,-0.538 -1.896,-0.706 -3.039,-0.667 -1.143,0.039 -2.237,0.312 -2.437,0.872 -0.639,0.374 -1.26,0.663 -1.567,0.914 -0.307,0.25 -0.51,0.248 -0.104,0.252 0.406,0.005 1.421,0.015 2.13,0.226 0.708,0.21 1.11,0.621 1.612,1.134 0.503,0.513 1.105,1.128 1.532,1.64 0.426,0.513 0.675,0.921 0.419,1.122 -0.256,0.2 -1.017,0.192 -1.954,0.005 -0.938,-0.188 -2.051,-0.555 -3.062,-0.921 -1.012,-0.366 -1.922,-0.731 -2.219,-1.394 -0.298,-0.663 0.017,-1.624 0.174,-2.105 0.157,-0.481 0.157,-0.481 -0.38,-0.055 -0.538,0.426 -2.061,1.662 -2.421,2.502 -1.098,0.572 -1,-0.12 -1.76,0 -0.564,0.502 -1.882,1.928 -1.79,2.868 0.092,0.94 0.283,2.11 1.011,2.828 0.729,0.718 1.995,0.986 3.208,1.481 1.214,0.495 2.374,1.218 3.178,2.013 0.804,0.795 1.251,1.663 1.472,2.401 0.221,0.739 1.809,1.295 1.749,2.348 -0.06,0.862 2.878,4.225 3.937,4.972 1.058,0.747 2.315,1.928 3.625,2.881 1.31,0.953 2.673,1.678 4.192,2.049 1.519,0.372 3.194,0.389 4.743,0.355 l 4.673,-0.154 c 1.701,-0.033 3.68,-0.013 6.114,0.318 2.438,1.39 -0.692,-1.835 -3.05,-2.114 -2.357,-0.278 -4.135,-0.67 -6.034,-1.147 -1.899,-0.477 -0.312,-0.063 1.622,-0.449 0.87,-0.15 7.304,-0.675 7.74,-0.99 0.145,-0.105 -6.292,0.006 -6.139,-0.122 0.368,-0.307 1.069,-0.418 1.759,-0.688 0.358,-0.14 4.685,-1.453 4.95,-1.74 0.148,-0.161 -4.468,0.195 -4.325,0.035 0.26,-0.288 4.481,-1.361 4.715,-1.625 0.215,-0.244 -3.539,0.286 -3.324,0.011 0.216,-0.276 3.474,-1.863 3.684,-2.171 0.358,-0.528 -2.342,0.19 -2.028,-0.441 0.179,-0.36 0.348,-0.737 0.504,-1.133 0.337,-0.855 0.614,-1.794 0.798,-2.825 0.13,-0.729 0.214,-1.504 0.272,-2.316 0.203,-2.885 0.065,-6.241 0.438,-9.684 0.477,-4.412 1.794,-8.967 2.453,-11.245 0.658,-2.277 0.658,-2.277 0.464,-0.706 -0.194,1.572 -0.582,4.716 -0.429,7.078 0.153,2.362 0.847,3.944 1.666,5.754 0.818,1.811 1.761,3.852 3.464,6.078 1.703,2.227 4.165,4.638 6.195,7.173 2.993,1.887 9.411,-4.191 7.007,-7.39 -2.403,-3.198 -4.554,-6.267 -5.816,-9.351 -1.262,-3.085 -1.636,-6.186 -1.527,-6.946 0.11,-0.761 0.304,-7.02 1.504,-9.3 0.776,-2.978 2.816,-5.858 8.036,-9.158 4.2,-2.46 6.9,-1.92 11.34,-1.74 3.66,0.6 5.52,1.14 10.2,1.5 6.48,0.78 8.82,0 12.84,-1.26 2.34,-0.6 11.7,-4.62 15.3,-8.58 3.549,-4.379 4.135,-4.965 5.154,-10.082 1.018,-5.117 1.03,-11.107 -0.217,-15.69 -1.246,-4.582 -3.751,-7.756 -7.182,-9.797 -3.431,-2.041 -7.787,-2.95 -11.718,-3.321 -3.931,-0.372 -7.436,-0.205 -10.557,-0.238 -3.122,-0.033 -5.861,-0.265 -7.448,-1.449 -1.587,-1.184 -2.022,-3.321 -1.242,-5.065 0.78,-1.743 2.774,-3.093 5.195,-3.981 2.421,-0.889 5.268,-1.316 8.285,-0.954 3.017,0.362 6.204,1.512 8.648,3.162 2.445,1.65 4.149,3.801 4.976,4.85 0.826,1.049 0.776,0.998 0.664,-0.374 -0.113,-1.372 -0.288,-4.064 -1.533,-6.387 -1.244,-2.323 -3.559,-4.277 -6.821,-5.504 -3.262,-1.227 -7.47,-1.728 -11.736,-1.646 -4.265,0.082 -7.582,1.64 -10.59,2.801 -3.007,1.162 -4.692,3.365 -6.78,6 -1.301,3.109 -1.806,6.401 -1.26,9.96 0.547,3.56 2.823,5.534 5.04,7.08 2.218,1.546 3.919,2.17 6.48,2.4 2.562,0.23 5.078,0.955 8.05,0.783 2.972,-0.172 6.224,-0.443 8.551,0.267 2.328,0.71 3.732,2.4 4.216,4.639 0.485,2.239 0.049,5.026 -1.216,7.069 -1.265,2.043 -3.36,3.341 -4.916,4.061 -1.556,0.72 -2.573,0.862 -5.537,0.272 -2.964,-0.59 -7.874,-1.91 -10.33,-2.571 -2.455,-0.66 -2.455,-0.66 -2.044,-1.113 0.411,-0.452 1.232,-1.357 1.65,-2.47 0.418,-1.112 0.432,-2.432 -0.57,-3.763 -1.001,-1.33 -3.018,-2.671 -4.807,-3.858 l -4.589,-2.992 c -1.236,-0.775 -2.144,-1.292 -2.542,-2.033 -0.399,-0.74 -0.287,-1.703 -0.76,-2.571 -0.474,-0.868 -1.532,-1.641 -2.619,-2.058 -1.087,-0.418 -2.203,-0.48 -3.44,-1.103 -1.238,-0.622 -2.596,-1.804 -3.42,-3.158 -0.823,-1.354 -1.112,-2.88 -1.256,-3.643 -0.144,-0.763 -0.144,-0.763 -0.454,-0.309 -0.309,0.453 -0.928,1.361 -1.116,2.4 -0.189,1.038 0.053,2.208 0.879,3.258 0.827,1.049 0.944,2.609 1.65,3.073 0.706,0.465 1.274,0.693 1.02,0.69 -0.254,-0.002 -0.313,0.362 -1.2,0.2 -0.886,-0.161 -1.874,-1.708 -2.835,-2.023 -0.962,-0.314 -1.618,-0.626 -2.066,-1.519 -0.448,-0.893 -0.686,-2.368 -0.804,-3.182 -0.119,-0.813 -0.117,-0.965 -0.299,-0.612 -0.181,0.354 -0.545,1.213 -0.862,2.352 -0.316,1.139 -0.585,2.557 0.012,3.681 0.598,1.123 2.061,1.95 2.793,2.364 0.732,0.414 1.705,0.685 1.121,0.679 -0.584,-0.006 -2.7,-0.57 -3.737,-0.528 -1.013,-0.24 -1.871,-0.705 -2.42,-1.651 -0.548,-0.944 -0.787,-2.369 -0.907,-3.08 -0.119,-0.712 -0.119,-0.712 -0.33,0.047 -0.211,0.759 -0.633,2.278 -0.394,3.727 0.238,1.45 1.009,1.409 1.458,2.175 0.449,0.766 1.112,0.81 1.59,1.17 0.479,0.361 1.125,0.761 1.86,0.87 0.735,0.11 2.295,0.234 3.54,0.12 1.245,-0.113 1.951,1.232 3.65,1.427 1.699,0.196 3.118,0.464 4.077,0.982 0.959,0.518 1.458,1.285 1.826,2.533 0.368,1.247 0.604,2.976 0.515,4.168 -0.089,1.192 -0.502,1.848 -1.472,2.396 -0.97,0.548 -2.498,0.989 -3.262,1.21 -0.764,0.22 -0.764,0.22 -1.138,-0.393 -0.374,-0.613 -1.123,-1.84 -1.776,-2.506 -0.653,-0.667 -1.21,-0.775 -2.586,-0.281 -1.376,0.493 -3.571,1.587 -5.077,2.358 -1.505,0.771 -2.322,1.219 -3.798,1.509 -1.475,0.289 -3.609,0.419 -4.851,0.253 -1.242,-0.165 -1.592,-0.626 -1.432,-1.36 0.16,-0.735 -0.048,-2.094 0.544,-2.926 l 2.243,-1.462 c 0.258,-0.327 0.258,-0.327 -0.326,-0.333 -0.584,-0.006 -1.752,-0.019 -2.515,0.151 -0.763,0.17 -1.122,0.522 -1.537,1.38 -0.416,0.859 -0.887,2.225 -1.122,2.908 -1.423,3.756 -1.208,0.815 -1.173,-0.124 0,-1.17 0.408,-3.356 1.21,-4.82 0.803,-1.464 3.006,-2.107 3.773,-2.632 0.768,-0.525 0.768,-0.525 -0.071,-0.432 -0.839,0.093 -2.516,0.278 -3.687,0.621 -1.172,0.343 -1.837,0.844 -2.381,1.879 -0.544,1.035 -1.592,2.6 -1.804,3.384 -0.211,0.785 -0.3,1.17 -0.21,1.26 -0.147,-0.484 0.036,-2.405 -0.054,-3.473 -0.091,-1.067 0.023,-2.233 0.237,-3.297 0.215,-1.064 0.529,-2.025 0.687,-2.506 0.157,-0.48 0.157,-0.48 -0.486,0.325 -0.643,0.806 -1.929,2.417 -2.946,4.995 -0.072,1.422 0.445,2.614 0.392,3.826 -0.073,1.703 -0.658,3.354 -0.23,4.93 0.221,0.811 0.914,1.277 1.35,1.92 0.433,0.637 2.276,1.906 2.79,2.04 1.823,0.476 2.69,0.71 4.269,0.269 1.578,-0.44 3.304,-0.422 5.334,-0.401 2.031,0.022 4.366,0.046 5.225,0.41 0.859,0.365 0.243,1.069 -1.044,2.731 -1.286,1.662 -3.243,4.281 -5.312,7.966 -2.07,3.684 -4.252,8.434 -5.812,11.92 z m -21.374,37.861 c -0.02,-0.327 0.327,-0.193 0.7,-0.053 l 1.293,0.446 c 0.52,0.16 1.16,0.334 1.5,0.667 0.34,0.333 0.38,0.827 0.54,1.333 0.16,0.507 0.44,1.027 0.294,1.154 -0.147,0.126 -0.72,-0.14 -1.38,-0.48 -0.66,-0.34 -1.407,-0.754 -1.974,-1.354 -0.566,-0.6 -0.953,-1.386 -0.973,-1.713" /></g></svg>