<?xml version="1.0" encoding="UTF-8" standalone="no"?>
<svg
   xmlns:dc="http://purl.org/dc/elements/1.1/"
   xmlns:cc="http://creativecommons.org/ns#"
   xmlns:rdf="http://www.w3.org/1999/02/22-rdf-syntax-ns#"
   xmlns:svg="http://www.w3.org/2000/svg"
   xmlns="http://www.w3.org/2000/svg"
   viewBox="0 0 1228.8 1228.8"
   height="1228.8"
   width="1228.8"
   xml:space="preserve"
   id="svg2"
   version="1.1"><metadata
     id="metadata8"><rdf:RDF><cc:Work
         rdf:about=""><dc:format>image/svg+xml</dc:format><dc:type
           rdf:resource="http://purl.org/dc/dcmitype/StillImage" /></cc:Work></rdf:RDF></metadata><defs
     id="defs6"><clipPath
       id="clipPath14"
       clipPathUnits="userSpaceOnUse"><path
         id="path12"
         d="M 0,0 H 922 V 922 H 0 Z" /></clipPath></defs><g
     clip-path="url(#clipPath14)"
     transform="matrix(1.3333333,0,0,-1.3333333,0,1228.8)"
     id="g10"><path
       id="path16"
       style="fill:#ad6c2e;fill-opacity:1;fill-rule:nonzero;stroke:none"
       d="m 705.284,569.287 -3.321,-0.5 -1.812,0.466 -1.268,0.387 -2.493,2.022 -1.593,2.929 -0.39,3.301 0.786,3.039 0.745,1.01 0.995,1.482 2.544,1.621 3,0.383 0.365,-0.106 2.539,-0.667 0.101,-0.073 2.463,-1.73 1.885,-2.748 0.729,-3.246 -0.565,-3.035 -0.026,-0.125 -1.588,-2.35 -0.232,-0.322 -2.864,-1.738" /><path
       id="path18"
       style="fill:#ad6c2e;fill-opacity:1;fill-rule:nonzero;stroke:none"
       d="m 681.63,562.106 -3.211,-0.197 -2.947,1.059 v 0 l -2.329,2.107 -1.47,2.978 -0.26,3.328 0.971,3.057 1.964,2.406 2.802,1.453 3.155,0.18 2.924,-1.065 2.379,-2.116 1.508,-2.976 0.293,-3.31 -0.932,-3.024 -1.987,-2.411 -2.86,-1.469" /><path
       id="path20"
       style="fill:#ad6c2e;fill-opacity:1;fill-rule:nonzero;stroke:none"
       d="m 658.928,555.569 -3.017,-0.345 -2.915,0.897 -1.754,1.372 -0.743,0.558 -1.745,2.814 -0.581,3.296 0.207,0.951 0.519,2.158 1.897,2.56 2.878,1.693 1.543,0.206 1.734,0.135 3.027,-1.001 2.448,-2.072 1.55,-2.955 0.339,-3.304 -0.851,-3.023 -1.867,-2.41 -1.452,-0.783 -1.217,-0.747" /><path
       id="path22"
       style="fill:#ad6c2e;fill-opacity:1;fill-rule:nonzero;stroke:none"
       d="m 638.436,546.744 -2.814,-0.874 -1.244,0.144 -1.716,0.111 -2.828,1.314 -2.346,2.361 -1.302,3.062 0.022,3.231 0.75,1.769 0.589,1.21 2.577,2.262 2.43,0.84 0.825,0.228 3.256,-0.39 2.775,-1.6 1.97,-2.67 0.842,-3.231 -0.299,-3.13 -1.304,-2.658 -0.564,-0.464 -1.619,-1.515" /><path
       id="path24"
       style="fill:#ad6c2e;fill-opacity:1;fill-rule:nonzero;stroke:none"
       d="m 620.939,533.702 -2.44,-1.545 -1.93,-0.285 -0.981,-0.199 -3.054,0.523 -2.895,1.637 -2.081,2.598 -0.835,3.143 0.153,1.142 0.406,2.097 1.927,2.907 1.032,0.712 1.912,1.131 3.243,0.469 2.771,-0.76 0.305,-0.095 2.578,-2.138 1.582,-2.908 0.038,-0.301 0.453,-2.814 -0.568,-2.907 -1.072,-1.513 -0.544,-0.894" /></g></svg>