<?xml version="1.0" encoding="UTF-8" standalone="no"?>
<svg
   xmlns:dc="http://purl.org/dc/elements/1.1/"
   xmlns:cc="http://creativecommons.org/ns#"
   xmlns:rdf="http://www.w3.org/1999/02/22-rdf-syntax-ns#"
   xmlns:svg="http://www.w3.org/2000/svg"
   xmlns="http://www.w3.org/2000/svg"
   viewBox="0 0 1228.8 1228.8"
   height="1228.8"
   width="1228.8"
   xml:space="preserve"
   id="svg2"
   version="1.1"><metadata
     id="metadata8"><rdf:RDF><cc:Work
         rdf:about=""><dc:format>image/svg+xml</dc:format><dc:type
           rdf:resource="http://purl.org/dc/dcmitype/StillImage" /></cc:Work></rdf:RDF></metadata><defs
     id="defs6"><clipPath
       id="clipPath14"
       clipPathUnits="userSpaceOnUse"><path
         id="path12"
         d="M 0,0 H 922 V 922 H 0 Z" /></clipPath></defs><g
     clip-path="url(#clipPath14)"
     transform="matrix(1.3333333,0,0,-1.3333333,0,1228.8)"
     id="g10"><path
       id="path16"
       style="fill:#ad6c2e;fill-opacity:1;fill-rule:nonzero;stroke:none"
       d="m 307.874,252.066 2.189,-1.387 0.856,-0.601 1.908,-2.86 0.624,-3.226 -0.784,-3.238 -2.034,-2.662 -2.784,-1.656 -3.146,-0.533 -0.91,0.212 -2.33,0.427 -2.761,1.818 -1.429,2.087 -0.415,0.574 -0.406,1.613 -0.4,1.521 0.455,3.31 1.75,2.846 1.316,0.906 1.404,0.946 0.73,0.152 2.603,0.469 3.564,-0.718" /><path
       id="path18"
       style="fill:#ad6c2e;fill-opacity:1;fill-rule:nonzero;stroke:none"
       d="m 332.525,239.068 1.993,-1.916 0.638,-0.675 1.309,-3.195 -0.044,-3.279 v -0.002 l -1.466,-3.03 -2.524,-2.151 h -0.002 l -3.065,-1.058 -3.175,0.1 -0.741,0.338 -2.258,0.907 -2.235,2.258 -0.054,0.049 -1.319,2.875 -0.203,3.223 1.04,3.184 2.223,2.481 3.024,1.31 3.467,0.036 0.078,-0.029 3.314,-1.426" /><path
       id="path20"
       style="fill:#ad6c2e;fill-opacity:1;fill-rule:nonzero;stroke:none"
       d="m 354.037,221.302 0.738,-1.01 1.318,-2.179 0.649,-3.485 -0.749,-3.201 -2.096,-2.562 -2.999,-1.525 -3.211,-0.37 -3.004,0.714 -1.629,1.209 -0.948,0.588 -1.853,2.662 -0.682,3.123 0.474,3.226 0.004,0.006 1.638,2.879 2.693,2.001 0.006,0.005 3.198,0.645 3.359,-0.703 3.094,-2.023" /><path
       id="path22"
       style="fill:#ad6c2e;fill-opacity:1;fill-rule:nonzero;stroke:none"
       d="m 370.322,196.51 0.205,-1.004 0.345,-2.869 -0.674,-2.723 -0.225,-0.699 -2.155,-2.553 -3.032,-1.403 -3.338,-0.063 -2.989,1.105 -0.483,0.431 -1.932,1.499 -1.098,1.974 -0.43,0.638 -0.431,2.944 0.061,0.227 0.527,2.706 1.533,2.611 0.079,0.152 2.52,2.152 3.225,0.97 0.183,-0.024 3.088,-0.577 2.776,-1.909 0.217,-0.174 2.028,-3.411" /><path
       id="path24"
       style="fill:#ad6c2e;fill-opacity:1;fill-rule:nonzero;stroke:none"
       d="m 375.643,168.771 -0.328,-3.557 -1.431,-2.802 -0.1,-0.181 -2.536,-2.08 -3.215,-0.926 -3.307,0.446 -2.787,1.664 -0.122,0.162 -1.922,2.394 -0.967,3.228 0.346,3.358 0.959,1.813 0.518,1.064 2.369,2.144 3.131,1.135 3.341,-0.225 2.942,-1.564 0.837,-0.997 1.285,-1.65 0.987,-3.426" /></g></svg>