<?xml version="1.0" encoding="UTF-8" standalone="no"?>
<svg
   xmlns:dc="http://purl.org/dc/elements/1.1/"
   xmlns:cc="http://creativecommons.org/ns#"
   xmlns:rdf="http://www.w3.org/1999/02/22-rdf-syntax-ns#"
   xmlns:svg="http://www.w3.org/2000/svg"
   xmlns="http://www.w3.org/2000/svg"
   viewBox="0 0 1228.8 1228.8"
   height="1228.8"
   width="1228.8"
   xml:space="preserve"
   id="svg2"
   version="1.1"><metadata
     id="metadata8"><rdf:RDF><cc:Work
         rdf:about=""><dc:format>image/svg+xml</dc:format><dc:type
           rdf:resource="http://purl.org/dc/dcmitype/StillImage" /></cc:Work></rdf:RDF></metadata><defs
     id="defs6"><clipPath
       id="clipPath14"
       clipPathUnits="userSpaceOnUse"><path
         id="path12"
         d="M 0,0 H 922 V 922 H 0 Z" /></clipPath></defs><g
     clip-path="url(#clipPath14)"
     transform="matrix(1.3333333,0,0,-1.3333333,0,1228.8)"
     id="g10"><path
       id="path16"
       style="fill:#ad6c2e;fill-opacity:1;fill-rule:nonzero;stroke:none"
       d="m 682.029,246.528 -3.493,0.417 -0.322,0.177 -2.574,1.52 -1.975,2.608 -0.781,3.246 0.57,3.289 1.707,2.725 2.284,1.674 0.281,0.219 3.182,0.884 3.27,-0.432 1.766,-1.017 1.033,-0.569 0.844,-1.029 1.211,-1.454 1.003,-3.185 -0.34,-3.32 -0.941,-1.671 -0.671,-1.169 -0.969,-0.755 -1.679,-1.258 -3.406,-0.9" /><path
       id="path18"
       style="fill:#ad6c2e;fill-opacity:1;fill-rule:nonzero;stroke:none"
       d="m 655.272,246.284 -3.438,0.837 -1.147,0.825 -1.54,1.191 -1.647,2.843 -0.369,3.321 0.975,3.189 2.02,2.484 1.588,0.884 1.171,0.705 3.246,0.495 3.178,-0.823 0.974,-0.733 1.617,-1.131 1.757,-2.685 0.634,-3.274 -0.718,-3.263 -1.927,-2.653 -1.775,-1.103 -1.095,-0.627 -3.504,-0.482" /><path
       id="path20"
       style="fill:#ad6c2e;fill-opacity:1;fill-rule:nonzero;stroke:none"
       d="m 628.422,249.625 -3.326,1.378 -1.107,1.083 -1.259,1.363 -1.155,3.099 0.221,3.333 1.521,2.966 2.391,2.097 1.572,0.562 1.361,0.561 3.221,-0.006 2.95,-1.298 0.391,-0.41 1.876,-1.779 1.349,-2.902 0.173,-3.332 -1.162,-3.13 -2.294,-2.353 -2.567,-1.109 -0.559,-0.209 -3.597,0.086" /><path
       id="path22"
       style="fill:#ad6c2e;fill-opacity:1;fill-rule:nonzero;stroke:none"
       d="m 602.169,258.205 -2.286,1.58 -0.67,0.529 -1.728,2.948 -0.43,3.245 0.965,3.187 2.16,2.555 2.827,1.525 3.104,0.395 0.72,-0.205 2.384,-0.517 2.566,-1.877 1.051,-1.736 0.625,-0.917 0.69,-3.093 -0.52,-3.289 -1.789,-2.825 -2.77,-1.828 -1.217,-0.242 -2.144,-0.301 -3.538,0.866" /><path
       id="path24"
       style="fill:#ad6c2e;fill-opacity:1;fill-rule:nonzero;stroke:none"
       d="m 578.741,272.021 -2.485,2.51 -0.974,2.342 -0.265,0.729 0.106,3.269 1.407,3.035 2.485,2.22 3.043,1.044 0.754,-0.043 2.475,-0.03 3.028,-1.282 2.275,-2.366 1.184,-2.999 0.038,-3.264 -1.072,-2.797 -0.128,-0.338 -0.253,-0.263 -2.064,-2.114 -2.998,-1.177 -3.318,0.098 -3.238,1.426" /><path
       id="path26"
       style="fill:#ad6c2e;fill-opacity:1;fill-rule:nonzero;stroke:none"
       d="m 558.249,286.717 -2.316,2.082 -0.727,1.549 -0.677,1.245 -0.384,3.171 0.858,3.223 2.067,2.623 2.917,1.532 1.537,0.146 1.871,0.066 3.494,-1.237 1.172,-0.984 1.624,-1.585 1.481,-3.199 0.028,-1.97 -0.066,-1.279 -1.45,-3.004 -2.526,-2.188 -1.231,-0.396 -1.805,-0.713 -3.024,-0.106 -1.607,0.634 -1.236,0.39" /><path
       id="path28"
       style="fill:#ad6c2e;fill-opacity:1;fill-rule:nonzero;stroke:none"
       d="m 535.954,297.121 -2.836,1.858 -1.824,2.679 -0.664,3.148 0.648,3.264 1.901,2.758 2.752,1.767 3.241,0.631 3.368,-0.65 2.851,-1.865 1.83,-2.681 0.596,-2.848 0.062,-0.304 -0.675,-3.28 -1.909,-2.728 -0.255,-0.162 -2.497,-1.597 -3.236,-0.634 -3.353,0.644" /></g></svg>