<?xml version="1.0" encoding="UTF-8" standalone="no"?>
<svg
   xmlns:dc="http://purl.org/dc/elements/1.1/"
   xmlns:cc="http://creativecommons.org/ns#"
   xmlns:rdf="http://www.w3.org/1999/02/22-rdf-syntax-ns#"
   xmlns:svg="http://www.w3.org/2000/svg"
   xmlns="http://www.w3.org/2000/svg"
   viewBox="0 0 1228.8 1228.8"
   height="1228.8"
   width="1228.8"
   xml:space="preserve"
   id="svg2"
   version="1.1"><metadata
     id="metadata8"><rdf:RDF><cc:Work
         rdf:about=""><dc:format>image/svg+xml</dc:format><dc:type
           rdf:resource="http://purl.org/dc/dcmitype/StillImage" /></cc:Work></rdf:RDF></metadata><defs
     id="defs6"><clipPath
       id="clipPath14"
       clipPathUnits="userSpaceOnUse"><path
         id="path12"
         d="M 0,0 H 922 V 922 H 0 Z" /></clipPath></defs><g
     clip-path="url(#clipPath14)"
     transform="matrix(1.3333333,0,0,-1.3333333,0,1228.8)"
     id="g10"><path
       id="path16"
       style="fill:#ad6c2e;fill-opacity:1;fill-rule:nonzero;stroke:none"
       d="m 661.996,429.834 3.639,-0.988 2.552,-1.901 0.186,-0.169 1.468,-2.99 0.165,-3.354 -1.151,-3.107 -2.121,-2.314 -0.204,-0.096 -2.447,-1.452 -2.968,-0.393 -1.095,0.351 -2.04,0.44 -2.06,1.433 -0.852,0.474 -1.17,1.504 -0.862,1.293 -0.113,0.208 0.169,3.353 1.455,2.978 0.109,0.143 0.618,1.002 0.736,1.342 0.343,0.372 2.157,1.369 2.068,0.377 1.418,0.125" /><path
       id="path18"
       style="fill:#ad6c2e;fill-opacity:1;fill-rule:nonzero;stroke:none"
       d="m 688.566,425.293 3.095,-1.334 2.251,-2.32 1.199,-2.985 -0.062,-3.329 -1.371,-3.051 -2.373,-2.225 -3.046,-1.191 -3.393,0.047 -3.102,1.336 -2.254,2.32 -1.157,2.886 -0.038,0.097 0.064,3.313 1.381,3.065 0.08,0.074 2.297,2.151 3.044,1.192 3.385,-0.046" /><path
       id="path20"
       style="fill:#ad6c2e;fill-opacity:1;fill-rule:nonzero;stroke:none"
       d="m 713.792,419.625 3.168,-1.47 0.157,-0.171 2.022,-2.403 1.012,-3.126 -0.321,-3.329 -1.596,-2.92 -2.466,-2.012 -2.773,-0.867 -0.213,-0.078 -3.267,0.135 -2.932,1.412 -2.123,2.384 -1.138,3.035 0.016,0.75 0.045,2.585 1.06,2.368 0.307,0.678 2.405,2.151 3.133,1.073 3.504,-0.195" /><path
       id="path22"
       style="fill:#ad6c2e;fill-opacity:1;fill-rule:nonzero;stroke:none"
       d="m 738.868,411.363 2.914,-1.799 1.918,-2.643 0.753,-3.134 -0.567,-3.28 -1.82,-2.808 -2.666,-1.851 -3.152,-0.739 -3.296,0.532 -2.83,1.768 -1.885,2.631 -0.786,3.146 0.483,3.311 1.736,2.841 2.633,1.863 3.186,0.726 3.379,-0.564" /><path
       id="path24"
       style="fill:#ad6c2e;fill-opacity:1;fill-rule:nonzero;stroke:none"
       d="m 762.995,401.636 2.837,-1.964 1.385,-2.133 0.39,-0.636 0.548,-3.23 -0.788,-3.25 -1.993,-2.667 -2.74,-1.641 -0.7,-0.108 -2.467,-0.445 -3.238,0.699 -2.707,1.907 -1.646,2.592 -0.085,0.128 -0.645,3.145 0.635,3.271 1.876,2.766 2.738,1.769 0.156,0.03 3.076,0.522 3.368,-0.755" /><path
       id="path26"
       style="fill:#ad6c2e;fill-opacity:1;fill-rule:nonzero;stroke:none"
       d="m 786.752,389.801 1.106,-0.918 1.592,-1.545 1.449,-3.144 0.069,-3.26 -1.356,-3.022 -2.467,-2.274 -2.961,-1.22 -3.043,-0.12 -1.675,0.654 -1.253,0.386 -2.42,2.091 -1.397,2.827 -0.299,3.214 0.929,3.221 2.1,2.573 2.897,1.448 3.344,0.207 3.385,-1.118" /><path
       id="path28"
       style="fill:#ad6c2e;fill-opacity:1;fill-rule:nonzero;stroke:none"
       d="m 808.106,368.508 0.749,-3.182 0.099,-0.674 -0.755,-3.454 -0.863,-1.189 -1.157,-1.439 -2.986,-1.515 -3.317,-0.216 -1.658,0.519 -1.372,0.36 -2.451,1.69 -0.267,0.44 -1.366,1.851 -0.151,0.942 -0.401,1.664 0.282,1.422 0.177,1.267 1.281,2.805 0.407,0.473 1.68,2.086 2.432,1.296 0.551,0.271 3.389,-0.178 1.7,-0.886 1.6,-1.025 1.672,-2.185 0.725,-1.143" /><path
       id="path30"
       style="fill:#ad6c2e;fill-opacity:1;fill-rule:nonzero;stroke:none"
       d="m 814.038,340.579 -0.678,-3.665 -1.812,-2.91 -2.674,-1.811 -2.867,-0.429 -0.407,-0.056 -0.392,0.107 -2.861,0.747 -2.656,1.841 -1.785,2.506 -0.645,2.969 0.15,0.67 0.267,2.351 1.527,2.65 2.464,2.048 3.166,1.108 3.307,-0.224 2.848,-1.583 2.097,-2.737 0.808,-2.771 0.143,-0.811" /><path
       id="path32"
       style="fill:#ad6c2e;fill-opacity:1;fill-rule:nonzero;stroke:none"
       d="m 809.737,311.805 -2.414,-3.462 -0.063,-0.069 -3.511,-1.961 -1.144,-0.083 -2.131,0.175 -2.961,1.537 -2.12,2.58 -0.613,2.06 -0.45,0.934 -0.461,2.516 0.012,0.042 0.44,2.376 0.189,0.213 1.31,1.966 0.85,0.527 1.496,1.163 2.994,0.985 2.581,-0.041 0.763,0.001 0.713,-0.303 2.332,-1.041 2.111,-2.559 0.644,-2.259 0.222,-1.255 -0.641,-3.566 -0.148,-0.476" /><path
       id="path34"
       style="fill:#ad6c2e;fill-opacity:1;fill-rule:nonzero;stroke:none"
       d="m 793.424,289.476 -2.558,-2.135 -0.027,-0.024 -3.001,-0.983 -3.208,0.184 -3.025,1.42 -2.217,2.488 -1.005,3.097 0.267,3.336 0.017,0.034 1.557,2.974 2.612,2.191 3.118,1.001 3.238,-0.235 2.977,-1.517 2.136,-2.56 0.948,-3.08 -0.28,-3.216 -1.549,-2.975" /></g></svg>