<?xml version="1.0" encoding="UTF-8" standalone="no"?>
<svg
   xmlns:dc="http://purl.org/dc/elements/1.1/"
   xmlns:cc="http://creativecommons.org/ns#"
   xmlns:rdf="http://www.w3.org/1999/02/22-rdf-syntax-ns#"
   xmlns:svg="http://www.w3.org/2000/svg"
   xmlns="http://www.w3.org/2000/svg"
   viewBox="0 0 1228.8 1228.8"
   height="1228.8"
   width="1228.8"
   xml:space="preserve"
   id="svg2"
   version="1.1"><metadata
     id="metadata8"><rdf:RDF><cc:Work
         rdf:about=""><dc:format>image/svg+xml</dc:format><dc:type
           rdf:resource="http://purl.org/dc/dcmitype/StillImage" /></cc:Work></rdf:RDF></metadata><defs
     id="defs6"><clipPath
       id="clipPath14"
       clipPathUnits="userSpaceOnUse"><path
         id="path12"
         d="M 0,0 H 922 V 922 H 0 Z" /></clipPath></defs><g
     clip-path="url(#clipPath14)"
     transform="matrix(1.3333333,0,0,-1.3333333,0,1228.8)"
     id="g10"><path
       id="path16"
       style="fill:#ad6c2e;fill-opacity:1;fill-rule:nonzero;stroke:none"
       d="m 210.329,560.337 2.685,-0.604 0.297,-0.043 2.556,-1.624 1.847,-2.545 0.841,-3.216 -0.456,-3.307 -1.689,-2.791 -2.691,-1.99 -0.33,-0.088 -3.126,-0.586 -2.91,0.563 -0.548,0.137 -2.716,1.959 -1.664,2.769 -0.392,3.296 0.906,3.222 1.875,2.566 2.535,1.657 0.476,0.077 2.504,0.548" /><path
       id="path18"
       style="fill:#ad6c2e;fill-opacity:1;fill-rule:nonzero;stroke:none"
       d="m 233.802,562.405 0.469,-0.036 2.821,-0.163 2.871,-1.404 2.13,-2.391 1.091,-3.146 -0.195,-3.331 -1.379,-2.897 -2.334,-2.155 -2.619,-0.948 -0.467,-0.158 -3.368,0.227 -2.896,1.439 -2.105,2.418 -1.028,3.162 0.262,3.331 1.411,2.876 2.319,2.117 3.017,1.059" /><path
       id="path20"
       style="fill:#ad6c2e;fill-opacity:1;fill-rule:nonzero;stroke:none"
       d="m 259.492,565.159 3.557,-0.619 2.183,-1.375 0.618,-0.453 1.702,-2.823 0.352,-3.31 -0.944,-3.199 -1.83,-2.522 -0.542,-0.353 -1.911,-1.422 -2.883,-0.693 -2.906,0.624 -0.47,0.335 -2.132,1.239 -1.939,2.476 -0.95,3.185 0.343,3.322 1.585,2.853 2.109,1.691 0.525,0.346 3.533,0.698" /><path
       id="path22"
       style="fill:#ad6c2e;fill-opacity:1;fill-rule:nonzero;stroke:none"
       d="m 287.67,559.45 3.08,-2.596 0.046,-0.082 1.406,-3.215 -0.021,-1.89 -0.111,-1.41 -1.604,-2.937 -2.584,-2.082 -1.249,-0.418 -1.657,-0.679 -2.714,-0.171 -0.072,-0.012 -2.456,0.692 -0.158,0.161 -1.81,1.499 -0.309,0.653 -1.063,1.783 -0.649,3.002 -0.013,0.05 0.296,3.292 1.559,2.978 0.043,0.035 2.644,1.857 2.624,0.499 0.921,0.085 3.519,-0.965 0.332,-0.129" /><path
       id="path24"
       style="fill:#ad6c2e;fill-opacity:1;fill-rule:nonzero;stroke:none"
       d="m 308.115,541.469 0.428,-0.692 1.236,-1.82 0.539,-2.954 -0.528,-3.146 -1.641,-2.931 -2.593,-2.047 -3.129,-0.736 -3.318,0.622 -2.292,1.451 -0.693,0.487 -1.798,2.848 -0.547,3.187 0.409,1.832 0.304,1.271 1.906,2.72 2.822,1.796 1.342,0.223 1.836,0.333 3.077,-0.625 2.64,-1.819" /><path
       id="path26"
       style="fill:#ad6c2e;fill-opacity:1;fill-rule:nonzero;stroke:none"
       d="m 325.542,528.856 0.344,-0.278 1.97,-1.37 0.884,-1.466 0.693,-1.004 0.766,-3.026 -0.294,-3.327 -1.537,-2.946 -2.625,-1.986 -1.419,-0.355 -1.955,-0.354 -3.1,0.614 -0.554,0.152 -3.019,2.175 -0.35,0.545 -1.362,2.452 -0.305,3.243 0.464,1.296 0.686,1.839 1.32,1.419 0.933,1.029 2.777,1.491 2.345,0.345 0.548,0.115 2.79,-0.603" /><path
       id="path28"
       style="fill:#ad6c2e;fill-opacity:1;fill-rule:nonzero;stroke:none"
       d="m 345.917,524.898 1.323,-0.275 1.47,-0.187 2.519,-1.536 0.046,-0.058 1.985,-2.281 1.213,-3.097 -0.065,-3.336 -1.42,-2.915 -0.036,-0.067 -2.709,-2.103 -1.878,-0.551 -1.748,-0.367 -3.253,0.481 -0.448,0.103 -2.895,1.949 -1.294,2.071 -0.404,0.727 -0.311,3.34 0.977,3.163 0.473,0.607 1.363,1.935 2.357,1.681 0.333,0.063 2.402,0.653" /><path
       id="path30"
       style="fill:#ad6c2e;fill-opacity:1;fill-rule:nonzero;stroke:none"
       d="m 365.833,530.294 1.402,0.375 1.02,0.386 2.433,-0.216 0.273,0.021 2.966,-0.913 2.651,-2.007 1.688,-2.88 0.337,-3.293 -0.091,-0.308 -1.398,-3.056 -1.354,-1.375 -1.638,-1.326 -2.46,-0.872 -1.228,-0.311 -3.471,0.416 -0.549,0.325 -2.225,1.492 -1.738,2.852 -0.512,3.283 0.466,2.439 0.084,0.609 1.328,2.565 0.714,0.559 1.302,1.235" /><path
       id="path32"
       style="fill:#ad6c2e;fill-opacity:1;fill-rule:nonzero;stroke:none"
       d="m 381.557,545.443 2.509,1.951 3.033,0.804 3.193,-0.354 0.504,-0.266 2.442,-1.274 1.784,-2.13 0.361,-0.434 0.907,-3.065 -0.358,-3.215 -1.644,-2.972 -2.644,-2.111 -0.226,-0.064 -2.996,-0.737 -3.215,0.488 -2.827,1.766 -1.934,2.71 -0.775,3.061 0.357,2.802 0.021,0.229 1.508,2.811" /></g></svg>