<?xml version="1.0" encoding="UTF-8" standalone="no"?>
<svg
   xmlns:dc="http://purl.org/dc/elements/1.1/"
   xmlns:cc="http://creativecommons.org/ns#"
   xmlns:rdf="http://www.w3.org/1999/02/22-rdf-syntax-ns#"
   xmlns:svg="http://www.w3.org/2000/svg"
   xmlns="http://www.w3.org/2000/svg"
   viewBox="0 0 1228.8 1228.8"
   height="1228.8"
   width="1228.8"
   xml:space="preserve"
   id="svg2"
   version="1.1"><metadata
     id="metadata8"><rdf:RDF><cc:Work
         rdf:about=""><dc:format>image/svg+xml</dc:format><dc:type
           rdf:resource="http://purl.org/dc/dcmitype/StillImage" /></cc:Work></rdf:RDF></metadata><defs
     id="defs6"><clipPath
       id="clipPath14"
       clipPathUnits="userSpaceOnUse"><path
         id="path12"
         d="M 0,0 H 922 V 922 H 0 Z" /></clipPath></defs><g
     clip-path="url(#clipPath14)"
     transform="matrix(1.3333333,0,0,-1.3333333,0,1228.8)"
     id="g10"><path
       id="path16"
       style="fill:#ad6c2e;fill-opacity:1;fill-rule:nonzero;stroke:none"
       d="m 118.604,406.17 -0.648,-0.14 -2.223,-0.63 -1.487,0.199 -1.488,0.104 -2.901,1.28 -1.883,1.765 -0.568,0.514 -0.319,0.71 -1.001,2.349 0.227,3.35 0.854,1.654 0.928,1.526 2.461,1.944 0.688,0.472 3.744,0.99 0.401,-0.042 3.058,-0.524 2.779,-1.784 1.771,-2.819 0.489,-3.317 -0.719,-3.141 -1.538,-2.307 -0.175,-0.306 -2.45,-1.847" /><path
       id="path18"
       style="fill:#ad6c2e;fill-opacity:1;fill-rule:nonzero;stroke:none"
       d="m 101.406,391.676 -2.226,-1.802 -1.135,-0.318 -1.66,-0.677 -3.145,-0.107 -3.182,1.021 -2.49,2.209 -1.258,3.135 0.044,2.249 0.198,1.404 1.944,3.586 1.425,1.325 1.557,1.145 3.331,0.903 3.245,-0.452 2.788,-1.807 1.843,-2.806 0.667,-3.178 -0.49,-3.14 -0.883,-1.435 -0.573,-1.255" /><path
       id="path20"
       style="fill:#ad6c2e;fill-opacity:1;fill-rule:nonzero;stroke:none"
       d="m 91.979,371.354 -1.246,-2.504 -0.18,-0.413 -2.316,-2.225 -2.994,-1.239 -3.347,-0.016 -3.059,1.328 -2.211,2.43 -1.153,3.216 0.014,0.491 0.248,3.192 1.562,3.352 0.001,0.003 2.68,2.327 3.153,1.006 3.293,-0.456 2.855,-1.76 1.958,-2.549 0.908,-2.948 v -0.002 l -0.166,-3.233" /><path
       id="path22"
       style="fill:#ad6c2e;fill-opacity:1;fill-rule:nonzero;stroke:none"
       d="m 87.268,346.74 -0.935,-2.642 -0.041,-0.182 -1.797,-2.391 -2.665,-1.757 -3.265,-0.788 -3.264,0.588 -2.666,1.994 -1.798,3.173 -0.041,0.245 -0.183,3.7 1.113,3.792 0.003,0.004 2.271,2.431 2.965,1.367 3.337,0.077 3.091,-1.276 2.29,-2.323 1.272,-3.035 0.003,-0.004 0.31,-2.973" /><path
       id="path24"
       style="fill:#ad6c2e;fill-opacity:1;fill-rule:nonzero;stroke:none"
       d="m 89.646,324.056 0.048,-0.914 0.239,-2.363 -0.922,-3.097 -0.483,-0.617 -1.481,-1.986 -2.897,-1.66 -3.325,-0.353 -2.368,0.719 -0.75,0.247 -2.574,2.216 -1.208,2.296 -0.446,0.957 -0.298,3.713 0.503,1.673 0.581,1.65 2.236,2.479 3.079,1.282 3.342,-0.068 2.952,-1.203 1.105,-1.039 1.225,-1.058 1.442,-2.874" /><path
       id="path26"
       style="fill:#ad6c2e;fill-opacity:1;fill-rule:nonzero;stroke:none"
       d="m 97.649,300.687 0.282,-1.315 0.476,-1.49 -0.308,-2.983 -0.187,-0.396 -1.004,-2.484 -2.219,-2.475 -3.052,-1.379 -2.962,0.095 -0.452,0.044 -3.17,1.788 -1.432,1.691 -1.032,1.497 -1.071,3.848 0.006,0.069 0.622,3.498 1.846,2.76 2.514,1.442 0.369,0.205 0.422,0.04 2.919,0.31 3.109,-0.772 2.459,-1.641 0.051,-0.028 1.814,-2.324" /><path
       id="path28"
       style="fill:#ad6c2e;fill-opacity:1;fill-rule:nonzero;stroke:none"
       d="m 112.034,285.02 0.147,-0.158 2.106,-1.866 1.149,-2.411 0.206,-0.361 0.45,-3.115 -0.73,-3.248 -1.987,-2.693 -2.982,-1.597 -0.491,-0.053 -3.05,-0.083 -3.421,1.197 -0.261,0.121 -2.87,2.758 -0.889,1.864 -0.55,1.459 0.133,3.378 1.611,2.913 2.662,2.026 2.999,0.957 1.246,-0.057 1.764,0.053 2.758,-1.084" /><path
       id="path30"
       style="fill:#ad6c2e;fill-opacity:1;fill-rule:nonzero;stroke:none"
       d="m 133.84,276.74 2.988,-1.299 1.4,-1.444 0.866,-0.818 1.353,-2.915 0.155,-3.333 -1.203,-3.12 -2.353,-2.331 -1.187,-0.494 -2.011,-0.731 -3.682,0.096 -1.716,0.699 -1.675,0.793 -2.393,2.512 -1.137,3.073 0.091,1.098 0.206,2.241 1.075,1.939 0.53,0.978 2.484,2.093 2.977,1.057 1.584,-0.09 1.648,-0.004" /><path
       id="path32"
       style="fill:#ad6c2e;fill-opacity:1;fill-rule:nonzero;stroke:none"
       d="m 158.529,273.56 3.24,-0.844 2.618,-1.951 1.754,-2.773 0.349,-1.927 0.255,-1.366 -0.319,-1.362 -0.451,-1.882 -1.991,-2.559 -2.937,-1.635 -3.563,-0.458 -3.481,0.859 -2.713,1.956 -0.409,0.677 -1.247,2.17 -0.356,3.33 1.012,3.176 1.57,1.852 0.505,0.625 2.842,1.64 3.322,0.472" /></g></svg>