<?xml version="1.0" encoding="UTF-8" standalone="no"?>
<svg
   xmlns:dc="http://purl.org/dc/elements/1.1/"
   xmlns:cc="http://creativecommons.org/ns#"
   xmlns:rdf="http://www.w3.org/1999/02/22-rdf-syntax-ns#"
   xmlns:svg="http://www.w3.org/2000/svg"
   xmlns="http://www.w3.org/2000/svg"
   viewBox="0 0 1228.8 1228.8"
   height="1228.8"
   width="1228.8"
   xml:space="preserve"
   id="svg2"
   version="1.1"><metadata
     id="metadata8"><rdf:RDF><cc:Work
         rdf:about=""><dc:format>image/svg+xml</dc:format><dc:type
           rdf:resource="http://purl.org/dc/dcmitype/StillImage" /></cc:Work></rdf:RDF></metadata><defs
     id="defs6"><clipPath
       id="clipPath14"
       clipPathUnits="userSpaceOnUse"><path
         id="path12"
         d="M 0,0 H 922 V 922 H 0 Z" /></clipPath></defs><g
     clip-path="url(#clipPath14)"
     transform="matrix(1.3333333,0,0,-1.3333333,0,1228.8)"
     id="g10"><path
       id="path16"
       style="fill:#ad6c2e;fill-opacity:1;fill-rule:nonzero;stroke:none"
       d="m 398.987,322.086 -3.126,1.588 -2.178,2.501 -1.024,3.073 0.206,2.203 0.109,1.119 0.541,0.974 1.074,1.952 2.54,2.047 3.106,0.979 3.345,-0.276 0.986,-0.511 2.246,-1.169 2.288,-2.602 0.959,-3.094 -0.51,-3.258 -1.808,-2.854 -2.581,-1.988 -2.961,-0.964 -2.057,0.175 -1.155,0.105" /><path
       id="path18"
       style="fill:#ad6c2e;fill-opacity:1;fill-rule:nonzero;stroke:none"
       d="m 371.673,333.952 -0.145,0.16 -2.045,3.219 -0.716,3.484 0.099,0.449 0.818,2.783 2.202,2.529 2.998,1.427 2.687,0.199 0.446,0.062 2.959,-0.606 2.274,-1.587 0.063,-0.018 0.336,-0.714 0.673,-0.863 0.042,-0.225 0.955,-2.345 0.235,-3.036 0.017,-0.1 -0.719,-3.233 -1.98,-2.723 -0.095,-0.055 -2.939,-1.365 -3.473,-0.015 -0.367,0.055 -2.133,1.06 -2.192,1.458" /><path
       id="path20"
       style="fill:#ad6c2e;fill-opacity:1;fill-rule:nonzero;stroke:none"
       d="m 355.418,356.83 -1.137,3.092 0.122,3.224 0.024,0.056 1.195,2.877 2.329,2.378 3.102,1.26 3.263,-0.116 0.061,-0.004 3.017,-1.452 2.407,-2.635 0.259,-0.67 0.909,-2.5 -0.133,-3.236 -1.308,-2.98 -2.404,-2.333 -3.113,-1.174 -3.241,0.185 -3.001,1.457 -1.894,2.087 -0.457,0.484" /><path
       id="path22"
       style="fill:#ad6c2e;fill-opacity:1;fill-rule:nonzero;stroke:none"
       d="m 341.041,376.01 -1.676,2.677 -0.158,0.946 -0.558,2.329 0.511,3.261 1.825,2.796 2.787,1.836 3.136,0.641 2.154,-0.379 1.002,-0.251 3.01,-2.159 2.065,-3.079 0.315,-1.451 0.274,-1.954 -0.825,-3.223 -2.1,-2.598 -2.955,-1.541 -3.156,-0.339 -1.676,0.46 -1.353,0.27 -2.622,1.758" /><path
       id="path24"
       style="fill:#ad6c2e;fill-opacity:1;fill-rule:nonzero;stroke:none"
       d="m 322.988,394.87 -1.794,2.9 -0.551,3.237 0.681,3.19 1.907,2.75 2.833,1.755 3.205,0.473 3.192,-0.791 2.791,-2.034 1.827,-2.935 0.565,-3.252 -0.374,-1.715 -0.324,-1.451 -1.932,-2.719 -2.863,-1.728 -1.49,-0.206 -1.737,-0.249 -3.179,0.777 -2.757,1.998" /><path
       id="path26"
       style="fill:#ad6c2e;fill-opacity:1;fill-rule:nonzero;stroke:none"
       d="m 305.314,412.884 -1.273,1.791 -0.643,0.799 -0.827,2.981 0.281,3.203 1.463,3.016 2.522,2.162 3.165,0.872 3.451,-0.474 1.08,-0.593 2.035,-1.29 2.143,-2.898 0.854,-3.255 -0.074,-0.517 -0.464,-2.724 -1.825,-2.806 -2.778,-1.837 -2.648,-0.505 -0.509,-0.111 -3.169,0.494 -2.784,1.692" /></g></svg>