<?xml version="1.0" encoding="UTF-8" standalone="no"?>
<svg
   xmlns:dc="http://purl.org/dc/elements/1.1/"
   xmlns:cc="http://creativecommons.org/ns#"
   xmlns:rdf="http://www.w3.org/1999/02/22-rdf-syntax-ns#"
   xmlns:svg="http://www.w3.org/2000/svg"
   xmlns="http://www.w3.org/2000/svg"
   viewBox="0 0 1228.8 1228.8"
   height="1228.8"
   width="1228.8"
   xml:space="preserve"
   id="svg2"
   version="1.1"><metadata
     id="metadata8"><rdf:RDF><cc:Work
         rdf:about=""><dc:format>image/svg+xml</dc:format><dc:type
           rdf:resource="http://purl.org/dc/dcmitype/StillImage" /></cc:Work></rdf:RDF></metadata><defs
     id="defs6"><clipPath
       id="clipPath14"
       clipPathUnits="userSpaceOnUse"><path
         id="path12"
         d="M 0,0 H 922 V 922 H 0 Z" /></clipPath></defs><g
     clip-path="url(#clipPath14)"
     transform="matrix(1.3333333,0,0,-1.3333333,0,1228.8)"
     id="g10"><path
       id="path16"
       style="fill:#ad6c2e;fill-opacity:1;fill-rule:nonzero;stroke:none"
       d="m 424.669,633.802 1.691,2.808 2.561,1.846 3.079,0.705 3.267,-0.563 2.857,-1.726 1.962,-2.461 0.901,-2.851 -0.34,-2.945 -0.161,-0.256 -1.284,-2.278 -2.389,-1.759 -3.032,-0.86 -3.337,0.231 -2.992,1.412 -2.089,2.364 -0.992,3.023 0.254,2.984 0.044,0.326" /><path
       id="path18"
       style="fill:#ad6c2e;fill-opacity:1;fill-rule:nonzero;stroke:none"
       d="m 434.44,657.033 2.178,2.492 0.215,0.202 3.084,1.191 3.206,-0.121 2.983,-1.451 2.26,-2.447 1.235,-2.84 0.16,-2.842 -0.089,-0.219 -0.664,-2.311 -0.675,-0.672 -1.157,-1.361 -2.521,-1.178 -0.113,-0.063 -3.054,-0.368 -3.215,0.787 -2.734,1.921 -1.742,2.725 -0.027,0.141 -0.376,3.071 0.594,2.109 0.452,1.234" /><path
       id="path20"
       style="fill:#ad6c2e;fill-opacity:1;fill-rule:nonzero;stroke:none"
       d="m 450.845,677.071 0.502,0.333 2.378,1.358 3.17,0.38 3.034,-0.894 2.551,-2.111 1.623,-2.922 0.504,-3.102 -0.582,-2.897 -1.388,-1.93 -0.278,-0.445 -2.453,-1.514 -2.935,-0.386 -2.231,0.51 -0.825,0.164 -2.803,1.754 -1.998,2.685 -0.223,0.86 -0.504,2.233 0.592,3.131 1.866,2.793" /><path
       id="path22"
       style="fill:#ad6c2e;fill-opacity:1;fill-rule:nonzero;stroke:none"
       d="m 470.838,692.376 3.181,1.092 3.173,-0.231 0.511,-0.266 2.315,-1.294 2.053,-2.632 0.947,-3.175 -0.15,-2.503 -0.018,-0.574 -1.13,-2.743 -2.087,-1.982 -0.948,-0.292 -1.781,-0.678 -2.942,0.186 -2.861,1.289 -2.398,2.325 -1.377,3.013 -0.077,3.167 1.188,2.971 1.544,1.565 0.857,0.762" /><path
       id="path24"
       style="fill:#ad6c2e;fill-opacity:1;fill-rule:nonzero;stroke:none"
       d="m 494.429,702.827 1.295,0.128 2.153,0.04 3.038,-1.192 2.165,-2.194 0.058,-0.064 1.154,-3.148 -0.067,-3.301 -0.031,-0.075 -1.033,-2.875 -1.834,-2.229 -1.55,-0.749 -0.921,-0.539 -2.791,-0.152 -2.098,0.814 -0.629,0.199 -2.388,1.927 -1.734,2.829 -0.587,3.28 0.738,3.156 0.441,0.619 1.571,1.918 3.05,1.608" /><path
       id="path26"
       style="fill:#ad6c2e;fill-opacity:1;fill-rule:nonzero;stroke:none"
       d="m 520.699,705.329 1.012,-0.256 2.394,-0.863 2.474,-2.227 0.6,-1.368 0.614,-1.642 -0.175,-3.342 -1.36,-3.008 -1.099,-1.157 -0.958,-1.113 -2.442,-1.422 -1.846,-0.168 -0.788,-0.149 -2.568,0.814 -1.401,1.269 -0.762,0.588 -1.597,2.612 -0.711,3.243 0.52,3.286 1.76,2.732 0.937,0.647 1.874,1.074 3.522,0.45" /></g></svg>