<?xml version="1.0" encoding="UTF-8" standalone="no"?>
<svg
   xmlns:dc="http://purl.org/dc/elements/1.1/"
   xmlns:cc="http://creativecommons.org/ns#"
   xmlns:rdf="http://www.w3.org/1999/02/22-rdf-syntax-ns#"
   xmlns:svg="http://www.w3.org/2000/svg"
   xmlns="http://www.w3.org/2000/svg"
   viewBox="0 0 1228.8 1228.8"
   height="1228.8"
   width="1228.8"
   xml:space="preserve"
   id="svg2"
   version="1.1"><metadata
     id="metadata8"><rdf:RDF><cc:Work
         rdf:about=""><dc:format>image/svg+xml</dc:format><dc:type
           rdf:resource="http://purl.org/dc/dcmitype/StillImage" /></cc:Work></rdf:RDF></metadata><defs
     id="defs6"><clipPath
       id="clipPath14"
       clipPathUnits="userSpaceOnUse"><path
         id="path12"
         d="M 0,0 H 922 V 922 H 0 Z" /></clipPath></defs><g
     clip-path="url(#clipPath14)"
     transform="matrix(1.3333333,0,0,-1.3333333,0,1228.8)"
     id="g10"><path
       id="path16"
       style="fill:#583615;fill-opacity:0.25;fill-rule:nonzero;stroke:none"
       d="m 340.64,596.703 c -2.103,8.262 -4.206,16.526 3.631,23.621 7.837,7.094 25.613,13.019 45.365,22.154 19.751,9.134 41.478,21.481 60.982,32.097 19.505,10.616 36.788,19.504 57.033,26.169 20.245,6.667 43.453,11.111 78.018,17.283 34.565,6.172 80.487,14.074 118.509,30.369 13.488,5.781 22.743,10.795 34.201,18.018 1.191,0.751 11,-1.84 21.24,-3.601 8.35,-1.435 17.883,-2.734 24.841,-3.479 6.72,-0.719 12.491,-0.976 12.24,-1.32 -6.48,-8.878 -13.657,-23.526 -26.848,-33.815 -24.689,-19.258 -56.786,-32.095 -87.154,-41.23 -30.368,-9.135 -59.007,-14.566 -87.647,-19.998 44.809,-19.628 89.618,-39.255 122.022,-79.066 32.403,-39.809 58.297,-102.804 60.519,-161.686 2.221,-58.88 -9.596,-109.026 -24.716,-149.734 -16.562,-33.841 -18.953,-41.682 -43.395,-67.234 -11.366,-11.884 -27.056,-27.128 -44.781,-43.336 -0.498,-0.456 -0.829,-1.264 -1.5,-1.371 -11.041,-1.764 -43.439,-3.564 -60.718,-6.084 -48.237,-5.4 -104.148,-7.768 -172.544,-7.406 -44.278,0.359 -62.201,3.807 -74.604,4.95 -0.831,0.076 1.306,1.044 1.961,1.565 4.94,3.943 9.966,7.926 15.058,12.002 41.847,33.515 88.149,73.497 117.962,91.83 29.812,18.33 39.313,28.816 54.618,46.093 15.306,17.28 36.415,41.353 46.044,66.906 9.628,25.553 7.777,52.589 -0.307,72.962 -8.083,20.373 -22.398,34.082 -29.555,40.938 -7.159,6.855 -7.159,6.855 -1.048,-2.032 6.111,-8.89 18.332,-26.665 23.516,-45.553 5.185,-18.888 3.334,-38.886 -2.036,-59.069 -5.37,-20.183 -14.258,-40.552 -27.961,-51.108 -13.703,-10.556 -32.22,-11.296 -48.33,-9.443 -16.109,1.851 -29.812,6.296 -44.996,7.962 -15.184,1.667 -31.849,0.555 -49.996,-1.482 l -57.958,-7.776 c -20.184,-2.778 -40.923,-5.369 -54.44,-9.63 -13.518,-4.258 -19.814,-10.183 -21.48,-18.146 -1.667,-7.962 1.296,-17.961 2.778,-22.961 1.481,-4.999 1.481,-4.999 -4.63,-2.962 -6.11,2.036 -18.331,6.109 -29.442,8.146 -11.11,2.036 -21.109,2.036 -31.108,6.852 -10,4.813 -19.999,14.443 -25.924,22.035 -5.926,7.592 -7.778,13.147 -8.518,19.259 -0.741,6.11 -0.371,12.776 -0.185,15.922 0.185,3.15 0.185,2.78 3.333,-0.553 l 12.591,-12.778 c 3.148,-3.147 3.148,-3.147 3.148,0.741 0,3.888 0,11.666 1.296,18.517 1.296,6.852 3.889,12.778 8.703,17.036 4.815,4.259 11.852,6.851 15.37,8.147 3.518,1.297 3.518,1.297 3.703,-2.037 0.186,-3.333 0.555,-9.999 1.481,-13.331 0.926,-3.333 2.408,-3.333 3.148,-3.333 0.741,0 0.741,0 1.852,4.073 1.111,4.073 3.333,12.22 7.777,18.701 4.444,6.482 11.11,11.297 14.258,11.111 3.148,-0.185 2.778,-5.37 3.518,-10.369 0.741,-5.001 2.593,-9.814 3.519,-12.222 0.925,-2.408 0.925,-2.408 1.296,0.185 0.37,2.593 1.111,7.777 6.296,13.518 5.184,5.74 14.813,12.036 19.628,15.183 4.814,3.149 4.814,3.149 3.888,-1.295 l -3.703,-17.777 c -0.926,-4.444 -0.926,-4.444 3.148,-1.11 4.073,3.333 12.221,10 23.331,15.738 11.111,5.741 25.184,10.555 38.701,11.111 13.517,0.556 26.479,-3.147 32.96,-6.297 6.481,-3.146 6.481,-5.739 8.333,-5.739 1.851,0 5.555,2.593 5.74,7.778 0.185,5.184 -3.148,12.961 -5.925,20.923 -2.778,7.963 -5,16.11 -13.333,22.22 -8.332,6.112 -22.776,10.186 -36.663,12.036 -13.888,1.853 -27.22,1.483 -39.442,-0.555 -12.221,-2.037 -23.331,-5.74 -28.886,-9.444 -5.555,-3.703 -5.555,-7.406 -2.593,-12.221 2.963,-4.814 8.889,-10.74 11.851,-13.702 l 2.963,-2.962 -2.778,-0.556 c -2.777,-0.555 -8.332,-1.666 -17.22,1.666 -8.889,3.334 -21.11,11.11 -27.22,14.999 -6.111,3.888 -6.111,3.888 -5.741,-0.556 0.371,-4.444 1.111,-13.332 2.593,-19.813 1.481,-6.481 3.703,-10.554 4.814,-12.591 l 1.111,-2.036 -3.703,0.554 c -3.704,0.555 -11.11,1.666 -17.406,4.814 -6.296,3.148 -11.481,8.334 -14.073,10.926 -2.593,2.593 -2.593,2.593 -4.444,-0.742 -1.852,-3.332 -5.556,-9.999 -6.666,-15.923 -1.111,-5.926 0.37,-11.111 1.666,-14.073 1.297,-2.963 2.407,-3.705 0.556,-4.259 -1.852,-0.555 -6.666,-0.926 -11.296,2.962 -4.629,3.889 -9.073,12.037 -12.221,16.85 -3.148,4.816 -5,6.297 -8.703,3.705 -3.703,-2.594 -9.258,-9.26 -12.591,-17.963 -3.334,-8.702 -4.445,-19.442 -5,-24.812 -0.556,-5.369 -0.556,-5.369 -5.185,2.222 l -20.554,34.813 c -6.666,12.035 -10.74,20.923 -12.221,34.07 -1.481,13.148 -0.371,30.553 1.296,43.699 1.666,13.149 3.889,22.037 8.888,34.257 5,12.223 12.777,27.777 22.962,38.701 10.184,10.926 22.775,17.222 29.071,20.37 6.296,3.147 6.296,3.147 3.148,-5.926 -3.148,-9.073 -9.444,-27.22 -13.332,-41.478 -3.889,-14.258 -5.37,-24.628 -3.519,-27.035 1.852,-2.407 7.037,3.149 18.332,11.295 11.296,8.147 28.702,18.888 52.219,29.442 23.516,10.555 53.143,20.925 72.031,33.147 18.887,12.22 27.035,26.293 35.182,40.367 z m 62.135,-45.724 c -7.431,-5.853 -11.934,-9.907 -5.629,-12.158 6.304,-2.252 23.417,-2.703 37.151,-3.828 13.735,-1.126 24.093,-2.928 32.199,1.125 8.106,4.055 13.96,13.96 21.615,24.092 7.656,10.134 17.113,20.491 14.636,24.095 -2.477,3.601 -16.887,0.449 -30.847,-2.703 -13.961,-3.152 -27.47,-6.305 -39.404,-11.709 -11.933,-5.403 -22.291,-13.059 -29.721,-18.914" /></g></svg>