<svg xmlns="http://www.w3.org/2000/svg" xmlns:xlink="http://www.w3.org/1999/xlink" version="1.1" width="414.257pt" height="385.91pt" viewBox="0 0 414.257 385.91">
<text fill="#008000" xml:space="preserve" transform="matrix(2 0 -0 2 -185.206 460.49803)" font-size="9.9626" font-family="CMSY10" font-style="italic"><tspan y="-74.588" x="185.206">&#x00d7;</tspan></text>
<path transform="matrix(1,0,0,-1,107.916,221.30101)" stroke-width=".3985" stroke-linecap="butt" stroke-miterlimit="10" stroke-linejoin="miter" fill="none" stroke="#000000" d="M-107.71794-164.41156V-147.40332H-90.7097V-164.41156ZM-90.7097-147.40332"/>
<path transform="matrix(1,0,0,-1,107.916,221.30101)" stroke-width=".3985" stroke-linecap="butt" stroke-miterlimit="10" stroke-linejoin="miter" fill="none" stroke="#000000" d="M-107.71794-136.06476V-119.0565H-90.7097V-136.06476ZM-90.7097-119.0565"/>
<path transform="matrix(1,0,0,-1,107.916,221.30101)" stroke-width=".3985" stroke-linecap="butt" stroke-miterlimit="10" stroke-linejoin="miter" fill="none" stroke="#000000" d="M-107.71794-107.71794V-90.7097H-90.7097V-107.71794ZM-90.7097-90.7097"/>
<path transform="matrix(1,0,0,-1,107.916,221.30101)" stroke-width=".3985" stroke-linecap="butt" stroke-miterlimit="10" stroke-linejoin="miter" fill="none" stroke="#000000" d="M-107.71794-79.37114V-62.36288H-90.7097V-79.37114ZM-90.7097-62.36288"/>
<path transform="matrix(1,0,0,-1,107.916,221.30101)" stroke-width=".3985" stroke-linecap="butt" stroke-miterlimit="10" stroke-linejoin="miter" fill="none" stroke="#000000" d="M-107.71794-51.02432V-34.01608H-90.7097V-51.02432ZM-90.7097-34.01608"/>
<path transform="matrix(1,0,0,-1,107.916,221.30101)" stroke-width=".3985" stroke-linecap="butt" stroke-miterlimit="10" stroke-linejoin="miter" fill="none" stroke="#000000" d="M-107.71794-22.67752V-5.66927H-90.7097V-22.67752ZM-90.7097-5.66927"/>
<path transform="matrix(1,0,0,-1,107.916,221.30101)" stroke-width=".3985" stroke-linecap="butt" stroke-miterlimit="10" stroke-linejoin="miter" fill="none" stroke="#000000" d="M-107.71794 5.66927V22.67752H-90.7097V5.66927ZM-90.7097 22.67752"/>
<path transform="matrix(1,0,0,-1,107.916,221.30101)" stroke-width=".3985" stroke-linecap="butt" stroke-miterlimit="10" stroke-linejoin="miter" fill="none" stroke="#000000" d="M-107.71794 34.01608V51.02432H-90.7097V34.01608ZM-90.7097 51.02432"/>
<path transform="matrix(1,0,0,-1,107.916,221.30101)" stroke-width=".3985" stroke-linecap="butt" stroke-miterlimit="10" stroke-linejoin="miter" fill="none" stroke="#000000" d="M-107.71794 62.36288V79.37114H-90.7097V62.36288ZM-90.7097 79.37114"/>
<path transform="matrix(1,0,0,-1,107.916,221.30101)" stroke-width=".3985" stroke-linecap="butt" stroke-miterlimit="10" stroke-linejoin="miter" fill="none" stroke="#000000" d="M-107.71794 90.7097V107.71794H-90.7097V90.7097ZM-90.7097 107.71794"/>
<path transform="matrix(1,0,0,-1,107.916,221.30101)" stroke-width=".3985" stroke-linecap="butt" stroke-miterlimit="10" stroke-linejoin="miter" fill="none" stroke="#000000" d="M-107.71794 119.0565V136.06476H-90.7097V119.0565ZM-90.7097 136.06476"/>
<path transform="matrix(1,0,0,-1,107.916,221.30101)" stroke-width=".3985" stroke-linecap="butt" stroke-miterlimit="10" stroke-linejoin="miter" fill="none" stroke="#000000" d="M-107.71794 147.40332V164.41156H-90.7097V147.40332ZM-90.7097 164.41156"/>
<path transform="matrix(1,0,0,-1,107.916,221.30101)" stroke-width=".3985" stroke-linecap="butt" stroke-miterlimit="10" stroke-linejoin="miter" fill="none" stroke="#000000" d="M-107.71794 175.75012V192.75838H-90.7097V175.75012ZM-90.7097 192.75838"/>
<path transform="matrix(1,0,0,-1,107.916,221.30101)" stroke-width=".3985" stroke-linecap="butt" stroke-miterlimit="10" stroke-linejoin="miter" fill="none" stroke="#000000" d="M-107.71794 204.09694V221.10518H-90.7097V204.09694ZM-90.7097 221.10518"/>
<path transform="matrix(1,0,0,-1,107.916,221.30101)" stroke-width=".3985" stroke-linecap="butt" stroke-miterlimit="10" stroke-linejoin="miter" fill="none" stroke="#000000" d="M-79.37114-164.41156V-147.40332H-62.36288V-164.41156ZM-62.36288-147.40332"/>
<path transform="matrix(1,0,0,-1,107.916,221.30101)" stroke-width=".3985" stroke-linecap="butt" stroke-miterlimit="10" stroke-linejoin="miter" fill="none" stroke="#000000" d="M-79.37114-136.06476V-119.0565H-62.36288V-136.06476ZM-62.36288-119.0565"/>
<path transform="matrix(1,0,0,-1,107.916,221.30101)" stroke-width=".3985" stroke-linecap="butt" stroke-miterlimit="10" stroke-linejoin="miter" fill="none" stroke="#000000" d="M-79.37114-107.71794V-90.7097H-62.36288V-107.71794ZM-62.36288-90.7097"/>
<path transform="matrix(1,0,0,-1,107.916,221.30101)" stroke-width=".3985" stroke-linecap="butt" stroke-miterlimit="10" stroke-linejoin="miter" fill="none" stroke="#000000" d="M-79.37114-79.37114V-62.36288H-62.36288V-79.37114ZM-62.36288-62.36288"/>
<path transform="matrix(1,0,0,-1,107.916,221.30101)" stroke-width=".3985" stroke-linecap="butt" stroke-miterlimit="10" stroke-linejoin="miter" fill="none" stroke="#000000" d="M-79.37114-51.02432V-34.01608H-62.36288V-51.02432ZM-62.36288-34.01608"/>
<path transform="matrix(1,0,0,-1,107.916,221.30101)" stroke-width=".3985" stroke-linecap="butt" stroke-miterlimit="10" stroke-linejoin="miter" fill="none" stroke="#000000" d="M-79.37114-22.67752V-5.66927H-62.36288V-22.67752ZM-62.36288-5.66927"/>
<path transform="matrix(1,0,0,-1,107.916,221.30101)" stroke-width=".3985" stroke-linecap="butt" stroke-miterlimit="10" stroke-linejoin="miter" fill="none" stroke="#000000" d="M-79.37114 5.66927V22.67752H-62.36288V5.66927ZM-62.36288 22.67752"/>
<path transform="matrix(1,0,0,-1,107.916,221.30101)" stroke-width=".3985" stroke-linecap="butt" stroke-miterlimit="10" stroke-linejoin="miter" fill="none" stroke="#000000" d="M-79.37114 34.01608V51.02432H-62.36288V34.01608ZM-62.36288 51.02432"/>
<path transform="matrix(1,0,0,-1,107.916,221.30101)" stroke-width=".3985" stroke-linecap="butt" stroke-miterlimit="10" stroke-linejoin="miter" fill="none" stroke="#000000" d="M-79.37114 62.36288V79.37114H-62.36288V62.36288ZM-62.36288 79.37114"/>
<path transform="matrix(1,0,0,-1,107.916,221.30101)" stroke-width=".3985" stroke-linecap="butt" stroke-miterlimit="10" stroke-linejoin="miter" fill="none" stroke="#000000" d="M-79.37114 90.7097V107.71794H-62.36288V90.7097ZM-62.36288 107.71794"/>
<path transform="matrix(1,0,0,-1,107.916,221.30101)" stroke-width=".3985" stroke-linecap="butt" stroke-miterlimit="10" stroke-linejoin="miter" fill="none" stroke="#000000" d="M-79.37114 119.0565V136.06476H-62.36288V119.0565ZM-62.36288 136.06476"/>
<path transform="matrix(1,0,0,-1,107.916,221.30101)" stroke-width=".3985" stroke-linecap="butt" stroke-miterlimit="10" stroke-linejoin="miter" fill="none" stroke="#000000" d="M-79.37114 147.40332V164.41156H-62.36288V147.40332ZM-62.36288 164.41156"/>
<path transform="matrix(1,0,0,-1,107.916,221.30101)" stroke-width=".3985" stroke-linecap="butt" stroke-miterlimit="10" stroke-linejoin="miter" fill="none" stroke="#000000" d="M-79.37114 175.75012V192.75838H-62.36288V175.75012ZM-62.36288 192.75838"/>
<path transform="matrix(1,0,0,-1,107.916,221.30101)" stroke-width=".3985" stroke-linecap="butt" stroke-miterlimit="10" stroke-linejoin="miter" fill="none" stroke="#000000" d="M-79.37114 204.09694V221.10518H-62.36288V204.09694ZM-62.36288 221.10518"/>
<path transform="matrix(1,0,0,-1,107.916,221.30101)" stroke-width=".3985" stroke-linecap="butt" stroke-miterlimit="10" stroke-linejoin="miter" fill="none" stroke="#000000" d="M-51.02432-164.41156V-147.40332H-34.01608V-164.41156ZM-34.01608-147.40332"/>
<path transform="matrix(1,0,0,-1,107.916,221.30101)" stroke-width=".3985" stroke-linecap="butt" stroke-miterlimit="10" stroke-linejoin="miter" fill="none" stroke="#000000" d="M-51.02432-136.06476V-119.0565H-34.01608V-136.06476ZM-34.01608-119.0565"/>
<path transform="matrix(1,0,0,-1,107.916,221.30101)" stroke-width=".3985" stroke-linecap="butt" stroke-miterlimit="10" stroke-linejoin="miter" fill="none" stroke="#000000" d="M-51.02432-107.71794V-90.7097H-34.01608V-107.71794ZM-34.01608-90.7097"/>
<path transform="matrix(1,0,0,-1,107.916,221.30101)" stroke-width=".3985" stroke-linecap="butt" stroke-miterlimit="10" stroke-linejoin="miter" fill="none" stroke="#000000" d="M-51.02432-79.37114V-62.36288H-34.01608V-79.37114ZM-34.01608-62.36288"/>
<path transform="matrix(1,0,0,-1,107.916,221.30101)" stroke-width=".3985" stroke-linecap="butt" stroke-miterlimit="10" stroke-linejoin="miter" fill="none" stroke="#000000" d="M-51.02432-51.02432V-34.01608H-34.01608V-51.02432ZM-34.01608-34.01608"/>
<path transform="matrix(1,0,0,-1,107.916,221.30101)" stroke-width=".3985" stroke-linecap="butt" stroke-miterlimit="10" stroke-linejoin="miter" fill="none" stroke="#000000" d="M-51.02432-22.67752V-5.66927H-34.01608V-22.67752ZM-34.01608-5.66927"/>
<path transform="matrix(1,0,0,-1,107.916,221.30101)" stroke-width=".3985" stroke-linecap="butt" stroke-miterlimit="10" stroke-linejoin="miter" fill="none" stroke="#000000" d="M-51.02432 5.66927V22.67752H-34.01608V5.66927ZM-34.01608 22.67752"/>
<path transform="matrix(1,0,0,-1,107.916,221.30101)" stroke-width=".3985" stroke-linecap="butt" stroke-miterlimit="10" stroke-linejoin="miter" fill="none" stroke="#000000" d="M-51.02432 34.01608V51.02432H-34.01608V34.01608ZM-34.01608 51.02432"/>
<path transform="matrix(1,0,0,-1,107.916,221.30101)" stroke-width=".3985" stroke-linecap="butt" stroke-miterlimit="10" stroke-linejoin="miter" fill="none" stroke="#000000" d="M-51.02432 62.36288V79.37114H-34.01608V62.36288ZM-34.01608 79.37114"/>
<path transform="matrix(1,0,0,-1,107.916,221.30101)" stroke-width=".3985" stroke-linecap="butt" stroke-miterlimit="10" stroke-linejoin="miter" fill="none" stroke="#000000" d="M-51.02432 90.7097V107.71794H-34.01608V90.7097ZM-34.01608 107.71794"/>
<path transform="matrix(1,0,0,-1,107.916,221.30101)" stroke-width=".3985" stroke-linecap="butt" stroke-miterlimit="10" stroke-linejoin="miter" fill="none" stroke="#000000" d="M-51.02432 119.0565V136.06476H-34.01608V119.0565ZM-34.01608 136.06476"/>
<path transform="matrix(1,0,0,-1,107.916,221.30101)" stroke-width=".3985" stroke-linecap="butt" stroke-miterlimit="10" stroke-linejoin="miter" fill="none" stroke="#000000" d="M-51.02432 147.40332V164.41156H-34.01608V147.40332ZM-34.01608 164.41156"/>
<path transform="matrix(1,0,0,-1,107.916,221.30101)" stroke-width=".3985" stroke-linecap="butt" stroke-miterlimit="10" stroke-linejoin="miter" fill="none" stroke="#000000" d="M-51.02432 175.75012V192.75838H-34.01608V175.75012ZM-34.01608 192.75838"/>
<path transform="matrix(1,0,0,-1,107.916,221.30101)" stroke-width=".3985" stroke-linecap="butt" stroke-miterlimit="10" stroke-linejoin="miter" fill="none" stroke="#000000" d="M-51.02432 204.09694V221.10518H-34.01608V204.09694ZM-34.01608 221.10518"/>
<path transform="matrix(1,0,0,-1,107.916,221.30101)" stroke-width=".3985" stroke-linecap="butt" stroke-miterlimit="10" stroke-linejoin="miter" fill="none" stroke="#000000" d="M-22.67752-164.41156V-147.40332H-5.66927V-164.41156ZM-5.66927-147.40332"/>
<path transform="matrix(1,0,0,-1,107.916,221.30101)" stroke-width=".3985" stroke-linecap="butt" stroke-miterlimit="10" stroke-linejoin="miter" fill="none" stroke="#000000" d="M-22.67752-136.06476V-119.0565H-5.66927V-136.06476ZM-5.66927-119.0565"/>
<path transform="matrix(1,0,0,-1,107.916,221.30101)" stroke-width=".3985" stroke-linecap="butt" stroke-miterlimit="10" stroke-linejoin="miter" fill="none" stroke="#000000" d="M-22.67752-107.71794V-90.7097H-5.66927V-107.71794ZM-5.66927-90.7097"/>
<path transform="matrix(1,0,0,-1,107.916,221.30101)" stroke-width=".3985" stroke-linecap="butt" stroke-miterlimit="10" stroke-linejoin="miter" fill="none" stroke="#000000" d="M-22.67752-79.37114V-62.36288H-5.66927V-79.37114ZM-5.66927-62.36288"/>
<path transform="matrix(1,0,0,-1,107.916,221.30101)" stroke-width=".3985" stroke-linecap="butt" stroke-miterlimit="10" stroke-linejoin="miter" fill="none" stroke="#000000" d="M-22.67752-51.02432V-34.01608H-5.66927V-51.02432ZM-5.66927-34.01608"/>
<path transform="matrix(1,0,0,-1,107.916,221.30101)" stroke-width=".3985" stroke-linecap="butt" stroke-miterlimit="10" stroke-linejoin="miter" fill="none" stroke="#000000" d="M-22.67752-22.67752V-5.66927H-5.66927V-22.67752ZM-5.66927-5.66927"/>
<path transform="matrix(1,0,0,-1,107.916,221.30101)" stroke-width=".3985" stroke-linecap="butt" stroke-miterlimit="10" stroke-linejoin="miter" fill="none" stroke="#000000" d="M-22.67752 5.66927V22.67752H-5.66927V5.66927ZM-5.66927 22.67752"/>
<path transform="matrix(1,0,0,-1,107.916,221.30101)" stroke-width=".3985" stroke-linecap="butt" stroke-miterlimit="10" stroke-linejoin="miter" fill="none" stroke="#000000" d="M-22.67752 34.01608V51.02432H-5.66927V34.01608ZM-5.66927 51.02432"/>
<path transform="matrix(1,0,0,-1,107.916,221.30101)" stroke-width=".3985" stroke-linecap="butt" stroke-miterlimit="10" stroke-linejoin="miter" fill="none" stroke="#000000" d="M-22.67752 62.36288V79.37114H-5.66927V62.36288ZM-5.66927 79.37114"/>
<path transform="matrix(1,0,0,-1,107.916,221.30101)" stroke-width=".3985" stroke-linecap="butt" stroke-miterlimit="10" stroke-linejoin="miter" fill="none" stroke="#000000" d="M-22.67752 90.7097V107.71794H-5.66927V90.7097ZM-5.66927 107.71794"/>
<path transform="matrix(1,0,0,-1,107.916,221.30101)" stroke-width=".3985" stroke-linecap="butt" stroke-miterlimit="10" stroke-linejoin="miter" fill="none" stroke="#000000" d="M-22.67752 119.0565V136.06476H-5.66927V119.0565ZM-5.66927 136.06476"/>
<path transform="matrix(1,0,0,-1,107.916,221.30101)" stroke-width=".3985" stroke-linecap="butt" stroke-miterlimit="10" stroke-linejoin="miter" fill="none" stroke="#000000" d="M-22.67752 147.40332V164.41156H-5.66927V147.40332ZM-5.66927 164.41156"/>
<path transform="matrix(1,0,0,-1,107.916,221.30101)" stroke-width=".3985" stroke-linecap="butt" stroke-miterlimit="10" stroke-linejoin="miter" fill="none" stroke="#000000" d="M-22.67752 175.75012V192.75838H-5.66927V175.75012ZM-5.66927 192.75838"/>
<path transform="matrix(1,0,0,-1,107.916,221.30101)" stroke-width=".3985" stroke-linecap="butt" stroke-miterlimit="10" stroke-linejoin="miter" fill="none" stroke="#000000" d="M-22.67752 204.09694V221.10518H-5.66927V204.09694ZM-5.66927 221.10518"/>
<path transform="matrix(1,0,0,-1,107.916,221.30101)" stroke-width=".3985" stroke-linecap="butt" stroke-miterlimit="10" stroke-linejoin="miter" fill="none" stroke="#000000" d="M5.66927-164.41156V-147.40332H22.67752V-164.41156ZM22.67752-147.40332"/>
<path transform="matrix(1,0,0,-1,107.916,221.30101)" stroke-width=".3985" stroke-linecap="butt" stroke-miterlimit="10" stroke-linejoin="miter" fill="none" stroke="#000000" d="M5.66927-136.06476V-119.0565H22.67752V-136.06476ZM22.67752-119.0565"/>
<path transform="matrix(1,0,0,-1,107.916,221.30101)" stroke-width=".3985" stroke-linecap="butt" stroke-miterlimit="10" stroke-linejoin="miter" fill="none" stroke="#000000" d="M5.66927-107.71794V-90.7097H22.67752V-107.71794ZM22.67752-90.7097"/>
<path transform="matrix(1,0,0,-1,107.916,221.30101)" stroke-width=".3985" stroke-linecap="butt" stroke-miterlimit="10" stroke-linejoin="miter" fill="none" stroke="#000000" d="M5.66927-79.37114V-62.36288H22.67752V-79.37114ZM22.67752-62.36288"/>
<path transform="matrix(1,0,0,-1,107.916,221.30101)" stroke-width=".3985" stroke-linecap="butt" stroke-miterlimit="10" stroke-linejoin="miter" fill="none" stroke="#000000" d="M5.66927-51.02432V-34.01608H22.67752V-51.02432ZM22.67752-34.01608"/>
<path transform="matrix(1,0,0,-1,107.916,221.30101)" stroke-width=".3985" stroke-linecap="butt" stroke-miterlimit="10" stroke-linejoin="miter" fill="none" stroke="#000000" d="M5.66927-22.67752V-5.66927H22.67752V-22.67752ZM22.67752-5.66927"/>
<path transform="matrix(1,0,0,-1,107.916,221.30101)" stroke-width=".3985" stroke-linecap="butt" stroke-miterlimit="10" stroke-linejoin="miter" fill="none" stroke="#000000" d="M5.66927 5.66927V22.67752H22.67752V5.66927ZM22.67752 22.67752"/>
<path transform="matrix(1,0,0,-1,107.916,221.30101)" stroke-width=".3985" stroke-linecap="butt" stroke-miterlimit="10" stroke-linejoin="miter" fill="none" stroke="#000000" d="M5.66927 34.01608V51.02432H22.67752V34.01608ZM22.67752 51.02432"/>
<path transform="matrix(1,0,0,-1,107.916,221.30101)" stroke-width=".3985" stroke-linecap="butt" stroke-miterlimit="10" stroke-linejoin="miter" fill="none" stroke="#000000" d="M5.66927 62.36288V79.37114H22.67752V62.36288ZM22.67752 79.37114"/>
<path transform="matrix(1,0,0,-1,107.916,221.30101)" stroke-width=".3985" stroke-linecap="butt" stroke-miterlimit="10" stroke-linejoin="miter" fill="none" stroke="#000000" d="M5.66927 90.7097V107.71794H22.67752V90.7097ZM22.67752 107.71794"/>
<path transform="matrix(1,0,0,-1,107.916,221.30101)" stroke-width=".3985" stroke-linecap="butt" stroke-miterlimit="10" stroke-linejoin="miter" fill="none" stroke="#000000" d="M5.66927 119.0565V136.06476H22.67752V119.0565ZM22.67752 136.06476"/>
<path transform="matrix(1,0,0,-1,107.916,221.30101)" stroke-width=".3985" stroke-linecap="butt" stroke-miterlimit="10" stroke-linejoin="miter" fill="none" stroke="#000000" d="M5.66927 147.40332V164.41156H22.67752V147.40332ZM22.67752 164.41156"/>
<path transform="matrix(1,0,0,-1,107.916,221.30101)" stroke-width=".3985" stroke-linecap="butt" stroke-miterlimit="10" stroke-linejoin="miter" fill="none" stroke="#000000" d="M5.66927 175.75012V192.75838H22.67752V175.75012ZM22.67752 192.75838"/>
<path transform="matrix(1,0,0,-1,107.916,221.30101)" stroke-width=".3985" stroke-linecap="butt" stroke-miterlimit="10" stroke-linejoin="miter" fill="none" stroke="#000000" d="M5.66927 204.09694V221.10518H22.67752V204.09694ZM22.67752 221.10518"/>
<path transform="matrix(1,0,0,-1,107.916,221.30101)" stroke-width=".3985" stroke-linecap="butt" stroke-miterlimit="10" stroke-linejoin="miter" fill="none" stroke="#000000" d="M34.01608-164.41156V-147.40332H51.02432V-164.41156ZM51.02432-147.40332"/>
<path transform="matrix(1,0,0,-1,107.916,221.30101)" stroke-width=".3985" stroke-linecap="butt" stroke-miterlimit="10" stroke-linejoin="miter" fill="none" stroke="#000000" d="M34.01608-136.06476V-119.0565H51.02432V-136.06476ZM51.02432-119.0565"/>
<path transform="matrix(1,0,0,-1,107.916,221.30101)" stroke-width=".3985" stroke-linecap="butt" stroke-miterlimit="10" stroke-linejoin="miter" fill="none" stroke="#000000" d="M34.01608-107.71794V-90.7097H51.02432V-107.71794ZM51.02432-90.7097"/>
<path transform="matrix(1,0,0,-1,107.916,221.30101)" stroke-width=".3985" stroke-linecap="butt" stroke-miterlimit="10" stroke-linejoin="miter" fill="none" stroke="#000000" d="M34.01608-79.37114V-62.36288H51.02432V-79.37114ZM51.02432-62.36288"/>
<path transform="matrix(1,0,0,-1,107.916,221.30101)" stroke-width=".3985" stroke-linecap="butt" stroke-miterlimit="10" stroke-linejoin="miter" fill="none" stroke="#000000" d="M34.01608-51.02432V-34.01608H51.02432V-51.02432ZM51.02432-34.01608"/>
<path transform="matrix(1,0,0,-1,107.916,221.30101)" stroke-width=".3985" stroke-linecap="butt" stroke-miterlimit="10" stroke-linejoin="miter" fill="none" stroke="#000000" d="M34.01608-22.67752V-5.66927H51.02432V-22.67752ZM51.02432-5.66927"/>
<path transform="matrix(1,0,0,-1,107.916,221.30101)" stroke-width=".3985" stroke-linecap="butt" stroke-miterlimit="10" stroke-linejoin="miter" fill="none" stroke="#000000" d="M34.01608 5.66927V22.67752H51.02432V5.66927ZM51.02432 22.67752"/>
<path transform="matrix(1,0,0,-1,107.916,221.30101)" stroke-width=".3985" stroke-linecap="butt" stroke-miterlimit="10" stroke-linejoin="miter" fill="none" stroke="#000000" d="M34.01608 34.01608V51.02432H51.02432V34.01608ZM51.02432 51.02432"/>
<path transform="matrix(1,0,0,-1,107.916,221.30101)" stroke-width=".3985" stroke-linecap="butt" stroke-miterlimit="10" stroke-linejoin="miter" fill="none" stroke="#000000" d="M34.01608 62.36288V79.37114H51.02432V62.36288ZM51.02432 79.37114"/>
<path transform="matrix(1,0,0,-1,107.916,221.30101)" stroke-width=".3985" stroke-linecap="butt" stroke-miterlimit="10" stroke-linejoin="miter" fill="none" stroke="#000000" d="M34.01608 90.7097V107.71794H51.02432V90.7097ZM51.02432 107.71794"/>
<path transform="matrix(1,0,0,-1,107.916,221.30101)" stroke-width=".3985" stroke-linecap="butt" stroke-miterlimit="10" stroke-linejoin="miter" fill="none" stroke="#000000" d="M34.01608 119.0565V136.06476H51.02432V119.0565ZM51.02432 136.06476"/>
<path transform="matrix(1,0,0,-1,107.916,221.30101)" stroke-width=".3985" stroke-linecap="butt" stroke-miterlimit="10" stroke-linejoin="miter" fill="none" stroke="#000000" d="M34.01608 147.40332V164.41156H51.02432V147.40332ZM51.02432 164.41156"/>
<path transform="matrix(1,0,0,-1,107.916,221.30101)" stroke-width=".3985" stroke-linecap="butt" stroke-miterlimit="10" stroke-linejoin="miter" fill="none" stroke="#000000" d="M34.01608 175.75012V192.75838H51.02432V175.75012ZM51.02432 192.75838"/>
<path transform="matrix(1,0,0,-1,107.916,221.30101)" stroke-width=".3985" stroke-linecap="butt" stroke-miterlimit="10" stroke-linejoin="miter" fill="none" stroke="#000000" d="M34.01608 204.09694V221.10518H51.02432V204.09694ZM51.02432 221.10518"/>
<path transform="matrix(1,0,0,-1,107.916,221.30101)" stroke-width=".3985" stroke-linecap="butt" stroke-miterlimit="10" stroke-linejoin="miter" fill="none" stroke="#000000" d="M62.36288-164.41156V-147.40332H79.37114V-164.41156ZM79.37114-147.40332"/>
<path transform="matrix(1,0,0,-1,107.916,221.30101)" stroke-width=".3985" stroke-linecap="butt" stroke-miterlimit="10" stroke-linejoin="miter" fill="none" stroke="#000000" d="M62.36288-136.06476V-119.0565H79.37114V-136.06476ZM79.37114-119.0565"/>
<path transform="matrix(1,0,0,-1,107.916,221.30101)" stroke-width=".3985" stroke-linecap="butt" stroke-miterlimit="10" stroke-linejoin="miter" fill="none" stroke="#000000" d="M62.36288-107.71794V-90.7097H79.37114V-107.71794ZM79.37114-90.7097"/>
<path transform="matrix(1,0,0,-1,107.916,221.30101)" stroke-width=".3985" stroke-linecap="butt" stroke-miterlimit="10" stroke-linejoin="miter" fill="none" stroke="#000000" d="M62.36288-79.37114V-62.36288H79.37114V-79.37114ZM79.37114-62.36288"/>
<path transform="matrix(1,0,0,-1,107.916,221.30101)" stroke-width=".3985" stroke-linecap="butt" stroke-miterlimit="10" stroke-linejoin="miter" fill="none" stroke="#000000" d="M62.36288-51.02432V-34.01608H79.37114V-51.02432ZM79.37114-34.01608"/>
<path transform="matrix(1,0,0,-1,107.916,221.30101)" stroke-width=".3985" stroke-linecap="butt" stroke-miterlimit="10" stroke-linejoin="miter" fill="none" stroke="#000000" d="M62.36288-22.67752V-5.66927H79.37114V-22.67752ZM79.37114-5.66927"/>
<path transform="matrix(1,0,0,-1,107.916,221.30101)" stroke-width=".3985" stroke-linecap="butt" stroke-miterlimit="10" stroke-linejoin="miter" fill="none" stroke="#000000" d="M62.36288 5.66927V22.67752H79.37114V5.66927ZM79.37114 22.67752"/>
<path transform="matrix(1,0,0,-1,107.916,221.30101)" stroke-width=".3985" stroke-linecap="butt" stroke-miterlimit="10" stroke-linejoin="miter" fill="none" stroke="#000000" d="M62.36288 34.01608V51.02432H79.37114V34.01608ZM79.37114 51.02432"/>
<path transform="matrix(1,0,0,-1,107.916,221.30101)" stroke-width=".3985" stroke-linecap="butt" stroke-miterlimit="10" stroke-linejoin="miter" fill="none" stroke="#000000" d="M62.36288 62.36288V79.37114H79.37114V62.36288ZM79.37114 79.37114"/>
<path transform="matrix(1,0,0,-1,107.916,221.30101)" stroke-width=".3985" stroke-linecap="butt" stroke-miterlimit="10" stroke-linejoin="miter" fill="none" stroke="#000000" d="M62.36288 90.7097V107.71794H79.37114V90.7097ZM79.37114 107.71794"/>
<path transform="matrix(1,0,0,-1,107.916,221.30101)" stroke-width=".3985" stroke-linecap="butt" stroke-miterlimit="10" stroke-linejoin="miter" fill="none" stroke="#000000" d="M62.36288 119.0565V136.06476H79.37114V119.0565ZM79.37114 136.06476"/>
<path transform="matrix(1,0,0,-1,107.916,221.30101)" stroke-width=".3985" stroke-linecap="butt" stroke-miterlimit="10" stroke-linejoin="miter" fill="none" stroke="#000000" d="M62.36288 147.40332V164.41156H79.37114V147.40332ZM79.37114 164.41156"/>
<path transform="matrix(1,0,0,-1,107.916,221.30101)" stroke-width=".3985" stroke-linecap="butt" stroke-miterlimit="10" stroke-linejoin="miter" fill="none" stroke="#000000" d="M62.36288 175.75012V192.75838H79.37114V175.75012ZM79.37114 192.75838"/>
<path transform="matrix(1,0,0,-1,107.916,221.30101)" stroke-width=".3985" stroke-linecap="butt" stroke-miterlimit="10" stroke-linejoin="miter" fill="none" stroke="#000000" d="M62.36288 204.09694V221.10518H79.37114V204.09694ZM79.37114 221.10518"/>
<path transform="matrix(1,0,0,-1,107.916,221.30101)" stroke-width=".3985" stroke-linecap="butt" stroke-miterlimit="10" stroke-linejoin="miter" fill="none" stroke="#000000" d="M90.7097-164.41156V-147.40332H107.71794V-164.41156ZM107.71794-147.40332"/>
<path transform="matrix(1,0,0,-1,107.916,221.30101)" stroke-width=".3985" stroke-linecap="butt" stroke-miterlimit="10" stroke-linejoin="miter" fill="none" stroke="#000000" d="M90.7097-136.06476V-119.0565H107.71794V-136.06476ZM107.71794-119.0565"/>
<path transform="matrix(1,0,0,-1,107.916,221.30101)" stroke-width=".3985" stroke-linecap="butt" stroke-miterlimit="10" stroke-linejoin="miter" fill="none" stroke="#000000" d="M90.7097-107.71794V-90.7097H107.71794V-107.71794ZM107.71794-90.7097"/>
<path transform="matrix(1,0,0,-1,107.916,221.30101)" stroke-width=".3985" stroke-linecap="butt" stroke-miterlimit="10" stroke-linejoin="miter" fill="none" stroke="#000000" d="M90.7097-79.37114V-62.36288H107.71794V-79.37114ZM107.71794-62.36288"/>
<path transform="matrix(1,0,0,-1,107.916,221.30101)" stroke-width=".3985" stroke-linecap="butt" stroke-miterlimit="10" stroke-linejoin="miter" fill="none" stroke="#000000" d="M90.7097-51.02432V-34.01608H107.71794V-51.02432ZM107.71794-34.01608"/>
<path transform="matrix(1,0,0,-1,107.916,221.30101)" stroke-width=".3985" stroke-linecap="butt" stroke-miterlimit="10" stroke-linejoin="miter" fill="none" stroke="#000000" d="M90.7097-22.67752V-5.66927H107.71794V-22.67752ZM107.71794-5.66927"/>
<path transform="matrix(1,0,0,-1,107.916,221.30101)" stroke-width=".3985" stroke-linecap="butt" stroke-miterlimit="10" stroke-linejoin="miter" fill="none" stroke="#000000" d="M90.7097 5.66927V22.67752H107.71794V5.66927ZM107.71794 22.67752"/>
<path transform="matrix(1,0,0,-1,107.916,221.30101)" stroke-width=".3985" stroke-linecap="butt" stroke-miterlimit="10" stroke-linejoin="miter" fill="none" stroke="#000000" d="M90.7097 34.01608V51.02432H107.71794V34.01608ZM107.71794 51.02432"/>
<path transform="matrix(1,0,0,-1,107.916,221.30101)" stroke-width=".3985" stroke-linecap="butt" stroke-miterlimit="10" stroke-linejoin="miter" fill="none" stroke="#000000" d="M90.7097 62.36288V79.37114H107.71794V62.36288ZM107.71794 79.37114"/>
<path transform="matrix(1,0,0,-1,107.916,221.30101)" stroke-width=".3985" stroke-linecap="butt" stroke-miterlimit="10" stroke-linejoin="miter" fill="none" stroke="#000000" d="M90.7097 90.7097V107.71794H107.71794V90.7097ZM107.71794 107.71794"/>
<path transform="matrix(1,0,0,-1,107.916,221.30101)" stroke-width=".3985" stroke-linecap="butt" stroke-miterlimit="10" stroke-linejoin="miter" fill="none" stroke="#000000" d="M90.7097 119.0565V136.06476H107.71794V119.0565ZM107.71794 136.06476"/>
<path transform="matrix(1,0,0,-1,107.916,221.30101)" stroke-width=".3985" stroke-linecap="butt" stroke-miterlimit="10" stroke-linejoin="miter" fill="none" stroke="#000000" d="M90.7097 147.40332V164.41156H107.71794V147.40332ZM107.71794 164.41156"/>
<path transform="matrix(1,0,0,-1,107.916,221.30101)" stroke-width=".3985" stroke-linecap="butt" stroke-miterlimit="10" stroke-linejoin="miter" fill="none" stroke="#000000" d="M90.7097 175.75012V192.75838H107.71794V175.75012ZM107.71794 192.75838"/>
<path transform="matrix(1,0,0,-1,107.916,221.30101)" stroke-width=".3985" stroke-linecap="butt" stroke-miterlimit="10" stroke-linejoin="miter" fill="none" stroke="#000000" d="M90.7097 204.09694V221.10518H107.71794V204.09694ZM107.71794 221.10518"/>
<path transform="matrix(1,0,0,-1,107.916,221.30101)" stroke-width=".3985" stroke-linecap="butt" stroke-miterlimit="10" stroke-linejoin="miter" fill="none" stroke="#000000" d="M119.0565-164.41156V-147.40332H136.06476V-164.41156ZM136.06476-147.40332"/>
<path transform="matrix(1,0,0,-1,107.916,221.30101)" stroke-width=".3985" stroke-linecap="butt" stroke-miterlimit="10" stroke-linejoin="miter" fill="none" stroke="#000000" d="M119.0565-136.06476V-119.0565H136.06476V-136.06476ZM136.06476-119.0565"/>
<path transform="matrix(1,0,0,-1,107.916,221.30101)" stroke-width=".3985" stroke-linecap="butt" stroke-miterlimit="10" stroke-linejoin="miter" fill="none" stroke="#000000" d="M119.0565-107.71794V-90.7097H136.06476V-107.71794ZM136.06476-90.7097"/>
<path transform="matrix(1,0,0,-1,107.916,221.30101)" stroke-width=".3985" stroke-linecap="butt" stroke-miterlimit="10" stroke-linejoin="miter" fill="none" stroke="#000000" d="M119.0565-79.37114V-62.36288H136.06476V-79.37114ZM136.06476-62.36288"/>
<path transform="matrix(1,0,0,-1,107.916,221.30101)" stroke-width=".3985" stroke-linecap="butt" stroke-miterlimit="10" stroke-linejoin="miter" fill="none" stroke="#000000" d="M119.0565-51.02432V-34.01608H136.06476V-51.02432ZM136.06476-34.01608"/>
<path transform="matrix(1,0,0,-1,107.916,221.30101)" stroke-width=".3985" stroke-linecap="butt" stroke-miterlimit="10" stroke-linejoin="miter" fill="none" stroke="#000000" d="M119.0565-22.67752V-5.66927H136.06476V-22.67752ZM136.06476-5.66927"/>
<path transform="matrix(1,0,0,-1,107.916,221.30101)" stroke-width=".3985" stroke-linecap="butt" stroke-miterlimit="10" stroke-linejoin="miter" fill="none" stroke="#000000" d="M119.0565 5.66927V22.67752H136.06476V5.66927ZM136.06476 22.67752"/>
<path transform="matrix(1,0,0,-1,107.916,221.30101)" stroke-width=".3985" stroke-linecap="butt" stroke-miterlimit="10" stroke-linejoin="miter" fill="none" stroke="#000000" d="M119.0565 34.01608V51.02432H136.06476V34.01608ZM136.06476 51.02432"/>
<path transform="matrix(1,0,0,-1,107.916,221.30101)" stroke-width=".3985" stroke-linecap="butt" stroke-miterlimit="10" stroke-linejoin="miter" fill="none" stroke="#000000" d="M119.0565 62.36288V79.37114H136.06476V62.36288ZM136.06476 79.37114"/>
<path transform="matrix(1,0,0,-1,107.916,221.30101)" stroke-width=".3985" stroke-linecap="butt" stroke-miterlimit="10" stroke-linejoin="miter" fill="none" stroke="#000000" d="M119.0565 90.7097V107.71794H136.06476V90.7097ZM136.06476 107.71794"/>
<path transform="matrix(1,0,0,-1,107.916,221.30101)" stroke-width=".3985" stroke-linecap="butt" stroke-miterlimit="10" stroke-linejoin="miter" fill="none" stroke="#000000" d="M119.0565 119.0565V136.06476H136.06476V119.0565ZM136.06476 136.06476"/>
<path transform="matrix(1,0,0,-1,107.916,221.30101)" stroke-width=".3985" stroke-linecap="butt" stroke-miterlimit="10" stroke-linejoin="miter" fill="none" stroke="#000000" d="M119.0565 147.40332V164.41156H136.06476V147.40332ZM136.06476 164.41156"/>
<path transform="matrix(1,0,0,-1,107.916,221.30101)" stroke-width=".3985" stroke-linecap="butt" stroke-miterlimit="10" stroke-linejoin="miter" fill="none" stroke="#000000" d="M119.0565 175.75012V192.75838H136.06476V175.75012ZM136.06476 192.75838"/>
<path transform="matrix(1,0,0,-1,107.916,221.30101)" stroke-width=".3985" stroke-linecap="butt" stroke-miterlimit="10" stroke-linejoin="miter" fill="none" stroke="#000000" d="M119.0565 204.09694V221.10518H136.06476V204.09694ZM136.06476 221.10518"/>
<path transform="matrix(1,0,0,-1,107.916,221.30101)" stroke-width=".3985" stroke-linecap="butt" stroke-miterlimit="10" stroke-linejoin="miter" fill="none" stroke="#000000" d="M147.40332-164.41156V-147.40332H164.41156V-164.41156ZM164.41156-147.40332"/>
<path transform="matrix(1,0,0,-1,107.916,221.30101)" stroke-width=".3985" stroke-linecap="butt" stroke-miterlimit="10" stroke-linejoin="miter" fill="none" stroke="#000000" d="M147.40332-136.06476V-119.0565H164.41156V-136.06476ZM164.41156-119.0565"/>
<path transform="matrix(1,0,0,-1,107.916,221.30101)" stroke-width=".3985" stroke-linecap="butt" stroke-miterlimit="10" stroke-linejoin="miter" fill="none" stroke="#000000" d="M147.40332-107.71794V-90.7097H164.41156V-107.71794ZM164.41156-90.7097"/>
<path transform="matrix(1,0,0,-1,107.916,221.30101)" stroke-width=".3985" stroke-linecap="butt" stroke-miterlimit="10" stroke-linejoin="miter" fill="none" stroke="#000000" d="M147.40332-79.37114V-62.36288H164.41156V-79.37114ZM164.41156-62.36288"/>
<path transform="matrix(1,0,0,-1,107.916,221.30101)" stroke-width=".3985" stroke-linecap="butt" stroke-miterlimit="10" stroke-linejoin="miter" fill="none" stroke="#000000" d="M147.40332-51.02432V-34.01608H164.41156V-51.02432ZM164.41156-34.01608"/>
<path transform="matrix(1,0,0,-1,107.916,221.30101)" stroke-width=".3985" stroke-linecap="butt" stroke-miterlimit="10" stroke-linejoin="miter" fill="none" stroke="#000000" d="M147.40332-22.67752V-5.66927H164.41156V-22.67752ZM164.41156-5.66927"/>
<path transform="matrix(1,0,0,-1,107.916,221.30101)" stroke-width=".3985" stroke-linecap="butt" stroke-miterlimit="10" stroke-linejoin="miter" fill="none" stroke="#000000" d="M147.40332 5.66927V22.67752H164.41156V5.66927ZM164.41156 22.67752"/>
<path transform="matrix(1,0,0,-1,107.916,221.30101)" stroke-width=".3985" stroke-linecap="butt" stroke-miterlimit="10" stroke-linejoin="miter" fill="none" stroke="#000000" d="M147.40332 34.01608V51.02432H164.41156V34.01608ZM164.41156 51.02432"/>
<path transform="matrix(1,0,0,-1,107.916,221.30101)" stroke-width=".3985" stroke-linecap="butt" stroke-miterlimit="10" stroke-linejoin="miter" fill="none" stroke="#000000" d="M147.40332 62.36288V79.37114H164.41156V62.36288ZM164.41156 79.37114"/>
<path transform="matrix(1,0,0,-1,107.916,221.30101)" stroke-width=".3985" stroke-linecap="butt" stroke-miterlimit="10" stroke-linejoin="miter" fill="none" stroke="#000000" d="M147.40332 90.7097V107.71794H164.41156V90.7097ZM164.41156 107.71794"/>
<path transform="matrix(1,0,0,-1,107.916,221.30101)" stroke-width=".3985" stroke-linecap="butt" stroke-miterlimit="10" stroke-linejoin="miter" fill="none" stroke="#000000" d="M147.40332 119.0565V136.06476H164.41156V119.0565ZM164.41156 136.06476"/>
<path transform="matrix(1,0,0,-1,107.916,221.30101)" stroke-width=".3985" stroke-linecap="butt" stroke-miterlimit="10" stroke-linejoin="miter" fill="none" stroke="#000000" d="M147.40332 147.40332V164.41156H164.41156V147.40332ZM164.41156 164.41156"/>
<path transform="matrix(1,0,0,-1,107.916,221.30101)" stroke-width=".3985" stroke-linecap="butt" stroke-miterlimit="10" stroke-linejoin="miter" fill="none" stroke="#000000" d="M147.40332 175.75012V192.75838H164.41156V175.75012ZM164.41156 192.75838"/>
<path transform="matrix(1,0,0,-1,107.916,221.30101)" stroke-width=".3985" stroke-linecap="butt" stroke-miterlimit="10" stroke-linejoin="miter" fill="none" stroke="#000000" d="M147.40332 204.09694V221.10518H164.41156V204.09694ZM164.41156 221.10518"/>
<path transform="matrix(1,0,0,-1,107.916,221.30101)" stroke-width=".3985" stroke-linecap="butt" stroke-miterlimit="10" stroke-linejoin="miter" fill="none" stroke="#000000" d="M175.75012-164.41156V-147.40332H192.75838V-164.41156ZM192.75838-147.40332"/>
<path transform="matrix(1,0,0,-1,107.916,221.30101)" stroke-width=".3985" stroke-linecap="butt" stroke-miterlimit="10" stroke-linejoin="miter" fill="none" stroke="#000000" d="M175.75012-136.06476V-119.0565H192.75838V-136.06476ZM192.75838-119.0565"/>
<path transform="matrix(1,0,0,-1,107.916,221.30101)" stroke-width=".3985" stroke-linecap="butt" stroke-miterlimit="10" stroke-linejoin="miter" fill="none" stroke="#000000" d="M175.75012-107.71794V-90.7097H192.75838V-107.71794ZM192.75838-90.7097"/>
<path transform="matrix(1,0,0,-1,107.916,221.30101)" stroke-width=".3985" stroke-linecap="butt" stroke-miterlimit="10" stroke-linejoin="miter" fill="none" stroke="#000000" d="M175.75012-79.37114V-62.36288H192.75838V-79.37114ZM192.75838-62.36288"/>
<path transform="matrix(1,0,0,-1,107.916,221.30101)" stroke-width=".3985" stroke-linecap="butt" stroke-miterlimit="10" stroke-linejoin="miter" fill="none" stroke="#000000" d="M175.75012-51.02432V-34.01608H192.75838V-51.02432ZM192.75838-34.01608"/>
<path transform="matrix(1,0,0,-1,107.916,221.30101)" stroke-width=".3985" stroke-linecap="butt" stroke-miterlimit="10" stroke-linejoin="miter" fill="none" stroke="#000000" d="M175.75012-22.67752V-5.66927H192.75838V-22.67752ZM192.75838-5.66927"/>
<path transform="matrix(1,0,0,-1,107.916,221.30101)" stroke-width=".3985" stroke-linecap="butt" stroke-miterlimit="10" stroke-linejoin="miter" fill="none" stroke="#000000" d="M175.75012 5.66927V22.67752H192.75838V5.66927ZM192.75838 22.67752"/>
<path transform="matrix(1,0,0,-1,107.916,221.30101)" stroke-width=".3985" stroke-linecap="butt" stroke-miterlimit="10" stroke-linejoin="miter" fill="none" stroke="#000000" d="M175.75012 34.01608V51.02432H192.75838V34.01608ZM192.75838 51.02432"/>
<path transform="matrix(1,0,0,-1,107.916,221.30101)" stroke-width=".3985" stroke-linecap="butt" stroke-miterlimit="10" stroke-linejoin="miter" fill="none" stroke="#000000" d="M175.75012 62.36288V79.37114H192.75838V62.36288ZM192.75838 79.37114"/>
<path transform="matrix(1,0,0,-1,107.916,221.30101)" stroke-width=".3985" stroke-linecap="butt" stroke-miterlimit="10" stroke-linejoin="miter" fill="none" stroke="#000000" d="M175.75012 90.7097V107.71794H192.75838V90.7097ZM192.75838 107.71794"/>
<path transform="matrix(1,0,0,-1,107.916,221.30101)" stroke-width=".3985" stroke-linecap="butt" stroke-miterlimit="10" stroke-linejoin="miter" fill="none" stroke="#000000" d="M175.75012 119.0565V136.06476H192.75838V119.0565ZM192.75838 136.06476"/>
<path transform="matrix(1,0,0,-1,107.916,221.30101)" stroke-width=".3985" stroke-linecap="butt" stroke-miterlimit="10" stroke-linejoin="miter" fill="none" stroke="#000000" d="M175.75012 147.40332V164.41156H192.75838V147.40332ZM192.75838 164.41156"/>
<path transform="matrix(1,0,0,-1,107.916,221.30101)" stroke-width=".3985" stroke-linecap="butt" stroke-miterlimit="10" stroke-linejoin="miter" fill="none" stroke="#000000" d="M175.75012 175.75012V192.75838H192.75838V175.75012ZM192.75838 192.75838"/>
<path transform="matrix(1,0,0,-1,107.916,221.30101)" stroke-width=".3985" stroke-linecap="butt" stroke-miterlimit="10" stroke-linejoin="miter" fill="none" stroke="#000000" d="M175.75012 204.09694V221.10518H192.75838V204.09694ZM192.75838 221.10518"/>
<path transform="matrix(1,0,0,-1,107.916,221.30101)" stroke-width=".3985" stroke-linecap="butt" stroke-miterlimit="10" stroke-linejoin="miter" fill="none" stroke="#000000" d="M204.09694-164.41156V-147.40332H221.10518V-164.41156ZM221.10518-147.40332"/>
<path transform="matrix(1,0,0,-1,107.916,221.30101)" stroke-width=".3985" stroke-linecap="butt" stroke-miterlimit="10" stroke-linejoin="miter" fill="none" stroke="#000000" d="M204.09694-136.06476V-119.0565H221.10518V-136.06476ZM221.10518-119.0565"/>
<path transform="matrix(1,0,0,-1,107.916,221.30101)" stroke-width=".3985" stroke-linecap="butt" stroke-miterlimit="10" stroke-linejoin="miter" fill="none" stroke="#000000" d="M204.09694-107.71794V-90.7097H221.10518V-107.71794ZM221.10518-90.7097"/>
<path transform="matrix(1,0,0,-1,107.916,221.30101)" stroke-width=".3985" stroke-linecap="butt" stroke-miterlimit="10" stroke-linejoin="miter" fill="none" stroke="#000000" d="M204.09694-79.37114V-62.36288H221.10518V-79.37114ZM221.10518-62.36288"/>
<path transform="matrix(1,0,0,-1,107.916,221.30101)" stroke-width=".3985" stroke-linecap="butt" stroke-miterlimit="10" stroke-linejoin="miter" fill="none" stroke="#000000" d="M204.09694-51.02432V-34.01608H221.10518V-51.02432ZM221.10518-34.01608"/>
<path transform="matrix(1,0,0,-1,107.916,221.30101)" stroke-width=".3985" stroke-linecap="butt" stroke-miterlimit="10" stroke-linejoin="miter" fill="none" stroke="#000000" d="M204.09694-22.67752V-5.66927H221.10518V-22.67752ZM221.10518-5.66927"/>
<path transform="matrix(1,0,0,-1,107.916,221.30101)" stroke-width=".3985" stroke-linecap="butt" stroke-miterlimit="10" stroke-linejoin="miter" fill="none" stroke="#000000" d="M204.09694 5.66927V22.67752H221.10518V5.66927ZM221.10518 22.67752"/>
<path transform="matrix(1,0,0,-1,107.916,221.30101)" stroke-width=".3985" stroke-linecap="butt" stroke-miterlimit="10" stroke-linejoin="miter" fill="none" stroke="#000000" d="M204.09694 34.01608V51.02432H221.10518V34.01608ZM221.10518 51.02432"/>
<path transform="matrix(1,0,0,-1,107.916,221.30101)" stroke-width=".3985" stroke-linecap="butt" stroke-miterlimit="10" stroke-linejoin="miter" fill="none" stroke="#000000" d="M204.09694 62.36288V79.37114H221.10518V62.36288ZM221.10518 79.37114"/>
<path transform="matrix(1,0,0,-1,107.916,221.30101)" stroke-width=".3985" stroke-linecap="butt" stroke-miterlimit="10" stroke-linejoin="miter" fill="none" stroke="#000000" d="M204.09694 90.7097V107.71794H221.10518V90.7097ZM221.10518 107.71794"/>
<path transform="matrix(1,0,0,-1,107.916,221.30101)" stroke-width=".3985" stroke-linecap="butt" stroke-miterlimit="10" stroke-linejoin="miter" fill="none" stroke="#000000" d="M204.09694 119.0565V136.06476H221.10518V119.0565ZM221.10518 136.06476"/>
<path transform="matrix(1,0,0,-1,107.916,221.30101)" stroke-width=".3985" stroke-linecap="butt" stroke-miterlimit="10" stroke-linejoin="miter" fill="none" stroke="#000000" d="M204.09694 147.40332V164.41156H221.10518V147.40332ZM221.10518 164.41156"/>
<path transform="matrix(1,0,0,-1,107.916,221.30101)" stroke-width=".3985" stroke-linecap="butt" stroke-miterlimit="10" stroke-linejoin="miter" fill="none" stroke="#000000" d="M204.09694 175.75012V192.75838H221.10518V175.75012ZM221.10518 192.75838"/>
<path transform="matrix(1,0,0,-1,107.916,221.30101)" stroke-width=".3985" stroke-linecap="butt" stroke-miterlimit="10" stroke-linejoin="miter" fill="none" stroke="#000000" d="M204.09694 204.09694V221.10518H221.10518V204.09694ZM221.10518 221.10518"/>
<path transform="matrix(1,0,0,-1,107.916,221.30101)" stroke-width=".3985" stroke-linecap="butt" stroke-miterlimit="10" stroke-linejoin="miter" fill="none" stroke="#000000" d="M232.44374-164.41156V-147.40332H249.452V-164.41156ZM249.452-147.40332"/>
<path transform="matrix(1,0,0,-1,107.916,221.30101)" stroke-width=".3985" stroke-linecap="butt" stroke-miterlimit="10" stroke-linejoin="miter" fill="none" stroke="#000000" d="M232.44374-136.06476V-119.0565H249.452V-136.06476ZM249.452-119.0565"/>
<path transform="matrix(1,0,0,-1,107.916,221.30101)" stroke-width=".3985" stroke-linecap="butt" stroke-miterlimit="10" stroke-linejoin="miter" fill="none" stroke="#000000" d="M232.44374-107.71794V-90.7097H249.452V-107.71794ZM249.452-90.7097"/>
<path transform="matrix(1,0,0,-1,107.916,221.30101)" stroke-width=".3985" stroke-linecap="butt" stroke-miterlimit="10" stroke-linejoin="miter" fill="none" stroke="#000000" d="M232.44374-79.37114V-62.36288H249.452V-79.37114ZM249.452-62.36288"/>
<path transform="matrix(1,0,0,-1,107.916,221.30101)" stroke-width=".3985" stroke-linecap="butt" stroke-miterlimit="10" stroke-linejoin="miter" fill="none" stroke="#000000" d="M232.44374-51.02432V-34.01608H249.452V-51.02432ZM249.452-34.01608"/>
<path transform="matrix(1,0,0,-1,107.916,221.30101)" stroke-width=".3985" stroke-linecap="butt" stroke-miterlimit="10" stroke-linejoin="miter" fill="none" stroke="#000000" d="M232.44374-22.67752V-5.66927H249.452V-22.67752ZM249.452-5.66927"/>
<path transform="matrix(1,0,0,-1,107.916,221.30101)" stroke-width=".3985" stroke-linecap="butt" stroke-miterlimit="10" stroke-linejoin="miter" fill="none" stroke="#000000" d="M232.44374 5.66927V22.67752H249.452V5.66927ZM249.452 22.67752"/>
<path transform="matrix(1,0,0,-1,107.916,221.30101)" stroke-width=".3985" stroke-linecap="butt" stroke-miterlimit="10" stroke-linejoin="miter" fill="none" stroke="#000000" d="M232.44374 34.01608V51.02432H249.452V34.01608ZM249.452 51.02432"/>
<path transform="matrix(1,0,0,-1,107.916,221.30101)" stroke-width=".3985" stroke-linecap="butt" stroke-miterlimit="10" stroke-linejoin="miter" fill="none" stroke="#000000" d="M232.44374 62.36288V79.37114H249.452V62.36288ZM249.452 79.37114"/>
<path transform="matrix(1,0,0,-1,107.916,221.30101)" stroke-width=".3985" stroke-linecap="butt" stroke-miterlimit="10" stroke-linejoin="miter" fill="none" stroke="#000000" d="M232.44374 90.7097V107.71794H249.452V90.7097ZM249.452 107.71794"/>
<path transform="matrix(1,0,0,-1,107.916,221.30101)" stroke-width=".3985" stroke-linecap="butt" stroke-miterlimit="10" stroke-linejoin="miter" fill="none" stroke="#000000" d="M232.44374 119.0565V136.06476H249.452V119.0565ZM249.452 136.06476"/>
<path transform="matrix(1,0,0,-1,107.916,221.30101)" stroke-width=".3985" stroke-linecap="butt" stroke-miterlimit="10" stroke-linejoin="miter" fill="none" stroke="#000000" d="M232.44374 147.40332V164.41156H249.452V147.40332ZM249.452 164.41156"/>
<path transform="matrix(1,0,0,-1,107.916,221.30101)" stroke-width=".3985" stroke-linecap="butt" stroke-miterlimit="10" stroke-linejoin="miter" fill="none" stroke="#000000" d="M232.44374 175.75012V192.75838H249.452V175.75012ZM249.452 192.75838"/>
<path transform="matrix(1,0,0,-1,107.916,221.30101)" stroke-width=".3985" stroke-linecap="butt" stroke-miterlimit="10" stroke-linejoin="miter" fill="none" stroke="#000000" d="M232.44374 204.09694V221.10518H249.452V204.09694ZM249.452 221.10518"/>
<path transform="matrix(1,0,0,-1,107.916,221.30101)" stroke-width=".3985" stroke-linecap="butt" stroke-miterlimit="10" stroke-linejoin="miter" fill="none" stroke="#000000" d="M260.79057-164.41156V-147.40332H277.7988V-164.41156ZM277.7988-147.40332"/>
<path transform="matrix(1,0,0,-1,107.916,221.30101)" stroke-width=".3985" stroke-linecap="butt" stroke-miterlimit="10" stroke-linejoin="miter" fill="none" stroke="#000000" d="M260.79057-136.06476V-119.0565H277.7988V-136.06476ZM277.7988-119.0565"/>
<path transform="matrix(1,0,0,-1,107.916,221.30101)" stroke-width=".3985" stroke-linecap="butt" stroke-miterlimit="10" stroke-linejoin="miter" fill="none" stroke="#000000" d="M260.79057-107.71794V-90.7097H277.7988V-107.71794ZM277.7988-90.7097"/>
<path transform="matrix(1,0,0,-1,107.916,221.30101)" stroke-width=".3985" stroke-linecap="butt" stroke-miterlimit="10" stroke-linejoin="miter" fill="none" stroke="#000000" d="M260.79057-79.37114V-62.36288H277.7988V-79.37114ZM277.7988-62.36288"/>
<path transform="matrix(1,0,0,-1,107.916,221.30101)" stroke-width=".3985" stroke-linecap="butt" stroke-miterlimit="10" stroke-linejoin="miter" fill="none" stroke="#000000" d="M260.79057-51.02432V-34.01608H277.7988V-51.02432ZM277.7988-34.01608"/>
<path transform="matrix(1,0,0,-1,107.916,221.30101)" stroke-width=".3985" stroke-linecap="butt" stroke-miterlimit="10" stroke-linejoin="miter" fill="none" stroke="#000000" d="M260.79057-22.67752V-5.66927H277.7988V-22.67752ZM277.7988-5.66927"/>
<path transform="matrix(1,0,0,-1,107.916,221.30101)" stroke-width=".3985" stroke-linecap="butt" stroke-miterlimit="10" stroke-linejoin="miter" fill="none" stroke="#000000" d="M260.79057 5.66927V22.67752H277.7988V5.66927ZM277.7988 22.67752"/>
<path transform="matrix(1,0,0,-1,107.916,221.30101)" stroke-width=".3985" stroke-linecap="butt" stroke-miterlimit="10" stroke-linejoin="miter" fill="none" stroke="#000000" d="M260.79057 34.01608V51.02432H277.7988V34.01608ZM277.7988 51.02432"/>
<path transform="matrix(1,0,0,-1,107.916,221.30101)" stroke-width=".3985" stroke-linecap="butt" stroke-miterlimit="10" stroke-linejoin="miter" fill="none" stroke="#000000" d="M260.79057 62.36288V79.37114H277.7988V62.36288ZM277.7988 79.37114"/>
<path transform="matrix(1,0,0,-1,107.916,221.30101)" stroke-width=".3985" stroke-linecap="butt" stroke-miterlimit="10" stroke-linejoin="miter" fill="none" stroke="#000000" d="M260.79057 90.7097V107.71794H277.7988V90.7097ZM277.7988 107.71794"/>
<path transform="matrix(1,0,0,-1,107.916,221.30101)" stroke-width=".3985" stroke-linecap="butt" stroke-miterlimit="10" stroke-linejoin="miter" fill="none" stroke="#000000" d="M260.79057 119.0565V136.06476H277.7988V119.0565ZM277.7988 136.06476"/>
<path transform="matrix(1,0,0,-1,107.916,221.30101)" stroke-width=".3985" stroke-linecap="butt" stroke-miterlimit="10" stroke-linejoin="miter" fill="none" stroke="#000000" d="M260.79057 147.40332V164.41156H277.7988V147.40332ZM277.7988 164.41156"/>
<path transform="matrix(1,0,0,-1,107.916,221.30101)" stroke-width=".3985" stroke-linecap="butt" stroke-miterlimit="10" stroke-linejoin="miter" fill="none" stroke="#000000" d="M260.79057 175.75012V192.75838H277.7988V175.75012ZM277.7988 192.75838"/>
<path transform="matrix(1,0,0,-1,107.916,221.30101)" stroke-width=".3985" stroke-linecap="butt" stroke-miterlimit="10" stroke-linejoin="miter" fill="none" stroke="#000000" d="M260.79057 204.09694V221.10518H277.7988V204.09694ZM277.7988 221.10518"/>
<path transform="matrix(1,0,0,-1,107.916,221.30101)" stroke-width=".3985" stroke-linecap="butt" stroke-miterlimit="10" stroke-linejoin="miter" fill="none" stroke="#000000" d="M289.13737-164.41156V-147.40332H306.1456V-164.41156ZM306.1456-147.40332"/>
<path transform="matrix(1,0,0,-1,107.916,221.30101)" stroke-width=".3985" stroke-linecap="butt" stroke-miterlimit="10" stroke-linejoin="miter" fill="none" stroke="#000000" d="M289.13737-136.06476V-119.0565H306.1456V-136.06476ZM306.1456-119.0565"/>
<path transform="matrix(1,0,0,-1,107.916,221.30101)" stroke-width=".3985" stroke-linecap="butt" stroke-miterlimit="10" stroke-linejoin="miter" fill="none" stroke="#000000" d="M289.13737-107.71794V-90.7097H306.1456V-107.71794ZM306.1456-90.7097"/>
<path transform="matrix(1,0,0,-1,107.916,221.30101)" stroke-width=".3985" stroke-linecap="butt" stroke-miterlimit="10" stroke-linejoin="miter" fill="none" stroke="#000000" d="M289.13737-79.37114V-62.36288H306.1456V-79.37114ZM306.1456-62.36288"/>
<path transform="matrix(1,0,0,-1,107.916,221.30101)" stroke-width=".3985" stroke-linecap="butt" stroke-miterlimit="10" stroke-linejoin="miter" fill="none" stroke="#000000" d="M289.13737-51.02432V-34.01608H306.1456V-51.02432ZM306.1456-34.01608"/>
<path transform="matrix(1,0,0,-1,107.916,221.30101)" stroke-width=".3985" stroke-linecap="butt" stroke-miterlimit="10" stroke-linejoin="miter" fill="none" stroke="#000000" d="M289.13737-22.67752V-5.66927H306.1456V-22.67752ZM306.1456-5.66927"/>
<path transform="matrix(1,0,0,-1,107.916,221.30101)" stroke-width=".3985" stroke-linecap="butt" stroke-miterlimit="10" stroke-linejoin="miter" fill="none" stroke="#000000" d="M289.13737 5.66927V22.67752H306.1456V5.66927ZM306.1456 22.67752"/>
<path transform="matrix(1,0,0,-1,107.916,221.30101)" stroke-width=".3985" stroke-linecap="butt" stroke-miterlimit="10" stroke-linejoin="miter" fill="none" stroke="#000000" d="M289.13737 34.01608V51.02432H306.1456V34.01608ZM306.1456 51.02432"/>
<path transform="matrix(1,0,0,-1,107.916,221.30101)" stroke-width=".3985" stroke-linecap="butt" stroke-miterlimit="10" stroke-linejoin="miter" fill="none" stroke="#000000" d="M289.13737 62.36288V79.37114H306.1456V62.36288ZM306.1456 79.37114"/>
<path transform="matrix(1,0,0,-1,107.916,221.30101)" stroke-width=".3985" stroke-linecap="butt" stroke-miterlimit="10" stroke-linejoin="miter" fill="none" stroke="#000000" d="M289.13737 90.7097V107.71794H306.1456V90.7097ZM306.1456 107.71794"/>
<path transform="matrix(1,0,0,-1,107.916,221.30101)" stroke-width=".3985" stroke-linecap="butt" stroke-miterlimit="10" stroke-linejoin="miter" fill="none" stroke="#000000" d="M289.13737 119.0565V136.06476H306.1456V119.0565ZM306.1456 136.06476"/>
<path transform="matrix(1,0,0,-1,107.916,221.30101)" stroke-width=".3985" stroke-linecap="butt" stroke-miterlimit="10" stroke-linejoin="miter" fill="none" stroke="#000000" d="M289.13737 147.40332V164.41156H306.1456V147.40332ZM306.1456 164.41156"/>
<path transform="matrix(1,0,0,-1,107.916,221.30101)" stroke-width=".3985" stroke-linecap="butt" stroke-miterlimit="10" stroke-linejoin="miter" fill="none" stroke="#000000" d="M289.13737 175.75012V192.75838H306.1456V175.75012ZM306.1456 192.75838"/>
<path transform="matrix(1,0,0,-1,107.916,221.30101)" stroke-width=".3985" stroke-linecap="butt" stroke-miterlimit="10" stroke-linejoin="miter" fill="none" stroke="#000000" d="M289.13737 204.09694V221.10518H306.1456V204.09694ZM306.1456 221.10518"/>
<path transform="matrix(1,0,0,-1,107.916,221.30101)" stroke-width="1.19553" stroke-linecap="butt" stroke-miterlimit="10" stroke-linejoin="miter" fill="none" stroke="#0000ff" d="M2.83484 0H24.3617C26.56264 0 28.3468 1.78416 28.3468 3.9851V194.44255C28.3468 196.6435 26.56264 198.42766 24.3617 198.42766H3.9851C1.78416 198.42766 0 196.6435 0 194.44255V-52.70851C0-54.90945-1.78416-56.69362-3.9851-56.69362H-81.05531C-83.25626-56.69362-85.04042-58.47778-85.04042-60.67873V-81.05531C-85.04042-83.25626-83.25626-85.04042-81.05531-85.04042H197.47124"/>
<path transform="matrix(1,0,0,-1,305.38725,306.34144)" stroke-width=".9564" stroke-linecap="round" stroke-linejoin="round" fill="none" stroke="#0000ff" d="M-1.91284 2.55046C-1.75343 1.59402 0 .15938 .4782 0 0-.15938-1.75343-1.59402-1.91284-2.55046"/>
<path transform="matrix(1,0,0,-1,107.916,221.30101)" stroke-width="1.19553" stroke-linecap="butt" stroke-miterlimit="10" stroke-linejoin="miter" fill="none" stroke="#ff0000" d="M2.83484 2.83484V52.70851C2.83484 54.90945 4.619 56.69362 6.81995 56.69362H251.13617C253.33712 56.69362 255.12128 58.47778 255.12128 60.67873V109.40213C255.12128 111.60307 256.90544 113.38724 259.10639 113.38724H279.483C281.68394 113.38724 283.4681 111.60307 283.4681 109.40213V-52.70851C283.4681-54.90945 281.68394-56.69362 279.483-56.69362H89.02553C86.82458-56.69362 85.04042-58.47778 85.04042-60.67873V-140.77762"/>
<path transform="matrix(0,1,1,0,192.95642,362.0786)" stroke-width=".9564" stroke-linecap="round" stroke-linejoin="round" fill="none" stroke="#ff0000" d="M-1.91284 2.55046C-1.75343 1.59402 0 .15938 .4782 0 0-.15938-1.75343-1.59402-1.91284-2.55046"/>
</svg>
