<?xml version="1.0" encoding="UTF-8"?>
<svg xmlns="http://www.w3.org/2000/svg" xmlns:xlink="http://www.w3.org/1999/xlink" width="160" height="90" viewBox="0 0 160 90" version="1.1">
<defs>
<clipPath id="clip1">
  <path d="M 0 85 L 16 85 L 16 86.234375 L 0 86.234375 Z M 0 85 "/>
</clipPath>
<clipPath id="clip2">
  <path d="M 141 85 L 158 85 L 158 86.234375 L 141 86.234375 Z M 141 85 "/>
</clipPath>
<clipPath id="clip3">
  <path d="M 9 0 L 148 0 L 148 86.234375 L 9 86.234375 Z M 9 0 "/>
</clipPath>
<clipPath id="clip4">
  <path d="M 453 42 L 468.914063 42 L 468.914063 44 L 453 44 Z M 453 42 "/>
</clipPath>
</defs>
<g id="surface1">
<g clip-path="url(#clip1)" clip-rule="nonzero">
<path style="fill:none;stroke-width:1.19553;stroke-linecap:butt;stroke-linejoin:miter;stroke:rgb(0%,0%,0%);stroke-opacity:1;stroke-miterlimit:10;" d="M 28.346656 28.347281 L 42.518531 28.347281 " transform="matrix(1,0,0,-1,-27.749,113.984)"/>
</g>
<g clip-path="url(#clip2)" clip-rule="nonzero">
<path style="fill:none;stroke-width:1.19553;stroke-linecap:butt;stroke-linejoin:miter;stroke:rgb(0%,0%,0%);stroke-opacity:1;stroke-miterlimit:10;" d="M 170.081031 28.347281 L 184.252906 28.347281 " transform="matrix(1,0,0,-1,-27.749,113.984)"/>
</g>
<path style="fill:none;stroke-width:1.19553;stroke-linecap:butt;stroke-linejoin:miter;stroke:rgb(0%,0%,0%);stroke-opacity:1;stroke-miterlimit:10;" d="M 28.346656 56.694937 L 42.518531 56.694937 " transform="matrix(1,0,0,-1,-27.749,113.984)"/>
<path style="fill:none;stroke-width:1.19553;stroke-linecap:butt;stroke-linejoin:miter;stroke:rgb(0%,0%,0%);stroke-opacity:1;stroke-miterlimit:10;" d="M 170.081031 56.694937 L 184.252906 56.694937 " transform="matrix(1,0,0,-1,-27.749,113.984)"/>
<path style="fill:none;stroke-width:1.19553;stroke-linecap:butt;stroke-linejoin:miter;stroke:rgb(0%,0%,0%);stroke-opacity:1;stroke-miterlimit:10;" d="M 28.346656 85.038687 L 42.518531 85.038687 " transform="matrix(1,0,0,-1,-27.749,113.984)"/>
<path style="fill:none;stroke-width:1.19553;stroke-linecap:butt;stroke-linejoin:miter;stroke:rgb(0%,0%,0%);stroke-opacity:1;stroke-miterlimit:10;" d="M 170.081031 85.038687 L 184.252906 85.038687 " transform="matrix(1,0,0,-1,-27.749,113.984)"/>
<path style="fill:none;stroke-width:1.19553;stroke-linecap:butt;stroke-linejoin:miter;stroke:rgb(0%,0%,0%);stroke-opacity:1;stroke-miterlimit:10;" d="M 28.346656 113.386344 L 42.518531 113.386344 " transform="matrix(1,0,0,-1,-27.749,113.984)"/>
<path style="fill:none;stroke-width:1.19553;stroke-linecap:butt;stroke-linejoin:miter;stroke:rgb(0%,0%,0%);stroke-opacity:1;stroke-miterlimit:10;" d="M 170.081031 113.386344 L 184.252906 113.386344 " transform="matrix(1,0,0,-1,-27.749,113.984)"/>
<path style="fill:none;stroke-width:1.19553;stroke-linecap:butt;stroke-linejoin:miter;stroke:rgb(0%,0%,0%);stroke-opacity:1;stroke-miterlimit:10;" d="M 56.694312 42.519156 L 70.866187 42.519156 " transform="matrix(1,0,0,-1,-27.749,113.984)"/>
<path style="fill:none;stroke-width:1.19553;stroke-linecap:butt;stroke-linejoin:miter;stroke:rgb(0%,0%,0%);stroke-opacity:1;stroke-miterlimit:10;" d="M 141.733375 42.519156 L 155.909156 42.519156 " transform="matrix(1,0,0,-1,-27.749,113.984)"/>
<path style="fill:none;stroke-width:1.19553;stroke-linecap:butt;stroke-linejoin:miter;stroke:rgb(0%,0%,0%);stroke-opacity:1;stroke-miterlimit:10;" d="M 56.694312 99.214469 L 70.866187 99.214469 " transform="matrix(1,0,0,-1,-27.749,113.984)"/>
<path style="fill:none;stroke-width:1.19553;stroke-linecap:butt;stroke-linejoin:miter;stroke:rgb(0%,0%,0%);stroke-opacity:1;stroke-miterlimit:10;" d="M 141.733375 99.214469 L 155.909156 99.214469 " transform="matrix(1,0,0,-1,-27.749,113.984)"/>
<path style="fill:none;stroke-width:1.19553;stroke-linecap:butt;stroke-linejoin:miter;stroke:rgb(0%,0%,0%);stroke-opacity:1;stroke-miterlimit:10;" d="M 85.041969 70.866812 L 99.213844 70.866812 " transform="matrix(1,0,0,-1,-27.749,113.984)"/>
<path style="fill:none;stroke-width:1.19553;stroke-linecap:butt;stroke-linejoin:miter;stroke:rgb(0%,0%,0%);stroke-opacity:1;stroke-miterlimit:10;" d="M 113.385719 70.866812 L 127.5615 70.866812 " transform="matrix(1,0,0,-1,-27.749,113.984)"/>
<g clip-path="url(#clip3)" clip-rule="nonzero">
<path style="fill:none;stroke-width:0.3985;stroke-linecap:butt;stroke-linejoin:miter;stroke:rgb(0%,0%,0%);stroke-opacity:1;stroke-dasharray:0.3985,0.99628;stroke-miterlimit:10;" d="M 42.518531 113.386344 L 56.694312 99.214469 L 42.518531 85.038687 M 42.518531 28.347281 L 56.694312 42.519156 L 42.518531 56.694937 M 70.866187 42.519156 L 85.041969 70.866812 L 70.866187 99.214469 M 141.733375 99.214469 L 127.5615 70.866812 L 141.733375 42.519156 M 170.081031 113.386344 L 155.909156 99.214469 L 170.081031 85.038687 M 170.081031 56.694937 L 155.909156 42.519156 L 170.081031 28.347281 " transform="matrix(1,0,0,-1,-27.749,113.984)"/>
</g>
</g>
</svg>
