<?xml version="1.0" encoding="UTF-8"?>
<svg xmlns="http://www.w3.org/2000/svg" xmlns:xlink="http://www.w3.org/1999/xlink" width="456.089pt" height="308.298pt" viewBox="0 0 456.089 308.298" version="1.1">
<defs>
<clipPath id="clip1">
  <path d="M 427 0 L 456.089844 0 L 456.089844 22 L 427 22 Z M 427 0 "/>
</clipPath>
<clipPath id="clip2">
  <path d="M 427 31 L 456.089844 31 L 456.089844 65 L 427 65 Z M 427 31 "/>
</clipPath>
<clipPath id="clip3">
  <path d="M 427 74 L 456.089844 74 L 456.089844 107 L 427 107 Z M 427 74 "/>
</clipPath>
<clipPath id="clip4">
  <path d="M 427 116 L 456.089844 116 L 456.089844 150 L 427 150 Z M 427 116 "/>
</clipPath>
<clipPath id="clip5">
  <path d="M 427 159 L 456.089844 159 L 456.089844 192 L 427 192 Z M 427 159 "/>
</clipPath>
<clipPath id="clip6">
  <path d="M 427 201 L 456.089844 201 L 456.089844 235 L 427 235 Z M 427 201 "/>
</clipPath>
<clipPath id="clip7">
  <path d="M 427 244 L 456.089844 244 L 456.089844 277 L 427 277 Z M 427 244 "/>
</clipPath>
<clipPath id="clip8">
  <path d="M 215 286 L 248 286 L 248 308.296875 L 215 308.296875 Z M 215 286 "/>
</clipPath>
<clipPath id="clip9">
  <path d="M 434 130 L 456.089844 130 L 456.089844 225 L 434 225 Z M 434 130 "/>
</clipPath>
</defs>
<g id="surface1">
<path style="fill-rule:nonzero;fill:rgb(80.117798%,91.175842%,97.410583%);fill-opacity:1;stroke-width:0.79701;stroke-linecap:butt;stroke-linejoin:miter;stroke:rgb(33.724976%,70.588684%,91.372681%);stroke-opacity:1;stroke-miterlimit:10;" d="M 89.972875 297.639875 C 89.972875 300.366437 87.765844 302.573469 85.039281 302.573469 C 82.316625 302.573469 80.109594 300.366437 80.109594 297.639875 C 80.109594 294.917219 82.316625 292.710187 85.039281 292.710187 C 87.765844 292.710187 89.972875 294.917219 89.972875 297.639875 Z M 89.972875 297.639875 " transform="matrix(1,0,0,-1,-66.426,302.968)"/>
<path style="fill-rule:nonzero;fill:rgb(93.998718%,84.234619%,89.646912%);fill-opacity:1;stroke-width:0.79701;stroke-linecap:butt;stroke-linejoin:miter;stroke:rgb(79.998779%,47.451782%,65.489197%);stroke-opacity:1;stroke-miterlimit:10;" d="M 132.492406 297.639875 C 132.492406 300.366437 130.285375 302.573469 127.558813 302.573469 C 124.836156 302.573469 122.629125 300.366437 122.629125 297.639875 C 122.629125 294.917219 124.836156 292.710187 127.558813 292.710187 C 130.285375 292.710187 132.492406 294.917219 132.492406 297.639875 Z M 132.492406 297.639875 " transform="matrix(1,0,0,-1,-66.426,302.968)"/>
<path style="fill-rule:nonzero;fill:rgb(93.998718%,84.234619%,89.646912%);fill-opacity:1;stroke-width:0.79701;stroke-linecap:butt;stroke-linejoin:miter;stroke:rgb(79.998779%,47.451782%,65.489197%);stroke-opacity:1;stroke-miterlimit:10;" d="M 175.011937 297.639875 C 175.011937 300.366437 172.804906 302.573469 170.08225 302.573469 C 167.355687 302.573469 165.148656 300.366437 165.148656 297.639875 C 165.148656 294.917219 167.355687 292.710187 170.08225 292.710187 C 172.804906 292.710187 175.011937 294.917219 175.011937 297.639875 Z M 175.011937 297.639875 " transform="matrix(1,0,0,-1,-66.426,302.968)"/>
<path style="fill-rule:nonzero;fill:rgb(97.059631%,88.703918%,69.999695%);fill-opacity:1;stroke-width:0.79701;stroke-linecap:butt;stroke-linejoin:miter;stroke:rgb(90.194702%,62.353516%,0%);stroke-opacity:1;stroke-miterlimit:10;" d="M 217.531469 297.639875 C 217.531469 300.366437 215.324437 302.573469 212.601781 302.573469 C 209.879125 302.573469 207.668187 300.366437 207.668187 297.639875 C 207.668187 294.917219 209.879125 292.710187 212.601781 292.710187 C 215.324437 292.710187 217.531469 294.917219 217.531469 297.639875 Z M 217.531469 297.639875 " transform="matrix(1,0,0,-1,-66.426,302.968)"/>
<path style="fill-rule:nonzero;fill:rgb(97.059631%,88.703918%,69.999695%);fill-opacity:1;stroke-width:0.79701;stroke-linecap:butt;stroke-linejoin:miter;stroke:rgb(90.194702%,62.353516%,0%);stroke-opacity:1;stroke-miterlimit:10;" d="M 260.054906 297.639875 C 260.054906 300.366437 257.843969 302.573469 255.121312 302.573469 C 252.398656 302.573469 250.187719 300.366437 250.187719 297.639875 C 250.187719 294.917219 252.398656 292.710187 255.121312 292.710187 C 257.843969 292.710187 260.054906 294.917219 260.054906 297.639875 Z M 260.054906 297.639875 " transform="matrix(1,0,0,-1,-66.426,302.968)"/>
<path style="fill-rule:nonzero;fill:rgb(80.117798%,91.175842%,97.410583%);fill-opacity:1;stroke-width:0.79701;stroke-linecap:butt;stroke-linejoin:miter;stroke:rgb(33.724976%,70.588684%,91.372681%);stroke-opacity:1;stroke-miterlimit:10;" d="M 302.574437 297.639875 C 302.574437 300.366437 300.3635 302.573469 297.640844 302.573469 C 294.918187 302.573469 292.711156 300.366437 292.711156 297.639875 C 292.711156 294.917219 294.918187 292.710187 297.640844 292.710187 C 300.3635 292.710187 302.574437 294.917219 302.574437 297.639875 Z M 302.574437 297.639875 " transform="matrix(1,0,0,-1,-66.426,302.968)"/>
<path style="fill-rule:nonzero;fill:rgb(80.117798%,91.175842%,97.410583%);fill-opacity:1;stroke-width:0.79701;stroke-linecap:butt;stroke-linejoin:miter;stroke:rgb(33.724976%,70.588684%,91.372681%);stroke-opacity:1;stroke-miterlimit:10;" d="M 345.093969 297.639875 C 345.093969 300.366437 342.886937 302.573469 340.160375 302.573469 C 337.437719 302.573469 335.230687 300.366437 335.230687 297.639875 C 335.230687 294.917219 337.437719 292.710187 340.160375 292.710187 C 342.886937 292.710187 345.093969 294.917219 345.093969 297.639875 Z M 345.093969 297.639875 " transform="matrix(1,0,0,-1,-66.426,302.968)"/>
<path style="fill-rule:nonzero;fill:rgb(80.117798%,91.175842%,97.410583%);fill-opacity:1;stroke-width:0.79701;stroke-linecap:butt;stroke-linejoin:miter;stroke:rgb(33.724976%,70.588684%,91.372681%);stroke-opacity:1;stroke-miterlimit:10;" d="M 387.6135 297.639875 C 387.6135 300.366437 385.406469 302.573469 382.683812 302.573469 C 379.95725 302.573469 377.750219 300.366437 377.750219 297.639875 C 377.750219 294.917219 379.95725 292.710187 382.683812 292.710187 C 385.406469 292.710187 387.6135 294.917219 387.6135 297.639875 Z M 387.6135 297.639875 " transform="matrix(1,0,0,-1,-66.426,302.968)"/>
<path style="fill-rule:nonzero;fill:rgb(80.117798%,91.175842%,97.410583%);fill-opacity:1;stroke-width:0.79701;stroke-linecap:butt;stroke-linejoin:miter;stroke:rgb(33.724976%,70.588684%,91.372681%);stroke-opacity:1;stroke-miterlimit:10;" d="M 430.133031 297.639875 C 430.133031 300.366437 427.926 302.573469 425.203344 302.573469 C 422.476781 302.573469 420.26975 300.366437 420.26975 297.639875 C 420.26975 294.917219 422.476781 292.710187 425.203344 292.710187 C 427.926 292.710187 430.133031 294.917219 430.133031 297.639875 Z M 430.133031 297.639875 " transform="matrix(1,0,0,-1,-66.426,302.968)"/>
<path style="fill-rule:nonzero;fill:rgb(93.998718%,84.234619%,89.646912%);fill-opacity:1;stroke-width:0.79701;stroke-linecap:butt;stroke-linejoin:miter;stroke:rgb(79.998779%,47.451782%,65.489197%);stroke-opacity:1;stroke-miterlimit:10;" d="M 472.652562 297.639875 C 472.652562 300.366437 470.445531 302.573469 467.722875 302.573469 C 465.000219 302.573469 462.789281 300.366437 462.789281 297.639875 C 462.789281 294.917219 465.000219 292.710187 467.722875 292.710187 C 470.445531 292.710187 472.652562 294.917219 472.652562 297.639875 Z M 472.652562 297.639875 " transform="matrix(1,0,0,-1,-66.426,302.968)"/>
<path style=" stroke:none;fill-rule:nonzero;fill:rgb(93.998718%,84.234619%,89.646912%);fill-opacity:1;" d="M 448.75 5.328125 C 448.75 2.601563 446.539063 0.394531 443.816406 0.394531 C 441.09375 0.394531 438.886719 2.601563 438.886719 5.328125 C 438.886719 8.050781 441.09375 10.257813 443.816406 10.257813 C 446.539063 10.257813 448.75 8.050781 448.75 5.328125 Z M 448.75 5.328125 "/>
<g clip-path="url(#clip1)" clip-rule="nonzero">
<path style="fill:none;stroke-width:0.79701;stroke-linecap:butt;stroke-linejoin:miter;stroke:rgb(79.998779%,47.451782%,65.489197%);stroke-opacity:1;stroke-miterlimit:10;" d="M 515.176 297.639875 C 515.176 300.366437 512.965063 302.573469 510.242406 302.573469 C 507.51975 302.573469 505.312719 300.366437 505.312719 297.639875 C 505.312719 294.917219 507.51975 292.710187 510.242406 292.710187 C 512.965063 292.710187 515.176 294.917219 515.176 297.639875 Z M 515.176 297.639875 " transform="matrix(1,0,0,-1,-66.426,302.968)"/>
</g>
<path style="fill-rule:nonzero;fill:rgb(80.117798%,91.175842%,97.410583%);fill-opacity:1;stroke-width:0.79701;stroke-linecap:butt;stroke-linejoin:miter;stroke:rgb(33.724976%,70.588684%,91.372681%);stroke-opacity:1;stroke-miterlimit:10;" d="M 89.972875 255.120344 C 89.972875 257.846906 87.765844 260.053937 85.039281 260.053937 C 82.316625 260.053937 80.109594 257.846906 80.109594 255.120344 C 80.109594 252.397687 82.316625 250.190656 85.039281 250.190656 C 87.765844 250.190656 89.972875 252.397687 89.972875 255.120344 Z M 89.972875 255.120344 " transform="matrix(1,0,0,-1,-66.426,302.968)"/>
<path style="fill-rule:nonzero;fill:rgb(97.059631%,88.703918%,69.999695%);fill-opacity:1;stroke-width:0.79701;stroke-linecap:butt;stroke-linejoin:miter;stroke:rgb(90.194702%,62.353516%,0%);stroke-opacity:1;stroke-miterlimit:10;" d="M 132.492406 255.120344 C 132.492406 257.846906 130.285375 260.053937 127.558813 260.053937 C 124.836156 260.053937 122.629125 257.846906 122.629125 255.120344 C 122.629125 252.397687 124.836156 250.190656 127.558813 250.190656 C 130.285375 250.190656 132.492406 252.397687 132.492406 255.120344 Z M 132.492406 255.120344 " transform="matrix(1,0,0,-1,-66.426,302.968)"/>
<path style="fill-rule:nonzero;fill:rgb(97.059631%,88.703918%,69.999695%);fill-opacity:1;stroke-width:0.79701;stroke-linecap:butt;stroke-linejoin:miter;stroke:rgb(90.194702%,62.353516%,0%);stroke-opacity:1;stroke-miterlimit:10;" d="M 175.011937 255.120344 C 175.011937 257.846906 172.804906 260.053937 170.08225 260.053937 C 167.355687 260.053937 165.148656 257.846906 165.148656 255.120344 C 165.148656 252.397687 167.355687 250.190656 170.08225 250.190656 C 172.804906 250.190656 175.011937 252.397687 175.011937 255.120344 Z M 175.011937 255.120344 " transform="matrix(1,0,0,-1,-66.426,302.968)"/>
<path style="fill-rule:nonzero;fill:rgb(97.059631%,88.703918%,69.999695%);fill-opacity:1;stroke-width:0.79701;stroke-linecap:butt;stroke-linejoin:miter;stroke:rgb(90.194702%,62.353516%,0%);stroke-opacity:1;stroke-miterlimit:10;" d="M 217.531469 255.120344 C 217.531469 257.846906 215.324437 260.053937 212.601781 260.053937 C 209.879125 260.053937 207.668187 257.846906 207.668187 255.120344 C 207.668187 252.397687 209.879125 250.190656 212.601781 250.190656 C 215.324437 250.190656 217.531469 252.397687 217.531469 255.120344 Z M 217.531469 255.120344 " transform="matrix(1,0,0,-1,-66.426,302.968)"/>
<path style="fill-rule:nonzero;fill:rgb(97.059631%,88.703918%,69.999695%);fill-opacity:1;stroke-width:0.79701;stroke-linecap:butt;stroke-linejoin:miter;stroke:rgb(90.194702%,62.353516%,0%);stroke-opacity:1;stroke-miterlimit:10;" d="M 260.054906 255.120344 C 260.054906 257.846906 257.843969 260.053937 255.121312 260.053937 C 252.398656 260.053937 250.187719 257.846906 250.187719 255.120344 C 250.187719 252.397687 252.398656 250.190656 255.121312 250.190656 C 257.843969 250.190656 260.054906 252.397687 260.054906 255.120344 Z M 260.054906 255.120344 " transform="matrix(1,0,0,-1,-66.426,302.968)"/>
<path style="fill-rule:nonzero;fill:rgb(97.059631%,88.703918%,69.999695%);fill-opacity:1;stroke-width:0.79701;stroke-linecap:butt;stroke-linejoin:miter;stroke:rgb(90.194702%,62.353516%,0%);stroke-opacity:1;stroke-miterlimit:10;" d="M 302.574437 255.120344 C 302.574437 257.846906 300.3635 260.053937 297.640844 260.053937 C 294.918187 260.053937 292.711156 257.846906 292.711156 255.120344 C 292.711156 252.397687 294.918187 250.190656 297.640844 250.190656 C 300.3635 250.190656 302.574437 252.397687 302.574437 255.120344 Z M 302.574437 255.120344 " transform="matrix(1,0,0,-1,-66.426,302.968)"/>
<path style="fill-rule:nonzero;fill:rgb(80.117798%,91.175842%,97.410583%);fill-opacity:1;stroke-width:0.79701;stroke-linecap:butt;stroke-linejoin:miter;stroke:rgb(33.724976%,70.588684%,91.372681%);stroke-opacity:1;stroke-miterlimit:10;" d="M 345.093969 255.120344 C 345.093969 257.846906 342.886937 260.053937 340.160375 260.053937 C 337.437719 260.053937 335.230687 257.846906 335.230687 255.120344 C 335.230687 252.397687 337.437719 250.190656 340.160375 250.190656 C 342.886937 250.190656 345.093969 252.397687 345.093969 255.120344 Z M 345.093969 255.120344 " transform="matrix(1,0,0,-1,-66.426,302.968)"/>
<path style="fill-rule:nonzero;fill:rgb(80.117798%,91.175842%,97.410583%);fill-opacity:1;stroke-width:0.79701;stroke-linecap:butt;stroke-linejoin:miter;stroke:rgb(33.724976%,70.588684%,91.372681%);stroke-opacity:1;stroke-miterlimit:10;" d="M 387.6135 255.120344 C 387.6135 257.846906 385.406469 260.053937 382.683812 260.053937 C 379.95725 260.053937 377.750219 257.846906 377.750219 255.120344 C 377.750219 252.397687 379.95725 250.190656 382.683812 250.190656 C 385.406469 250.190656 387.6135 252.397687 387.6135 255.120344 Z M 387.6135 255.120344 " transform="matrix(1,0,0,-1,-66.426,302.968)"/>
<path style="fill-rule:nonzero;fill:rgb(80.117798%,91.175842%,97.410583%);fill-opacity:1;stroke-width:0.79701;stroke-linecap:butt;stroke-linejoin:miter;stroke:rgb(33.724976%,70.588684%,91.372681%);stroke-opacity:1;stroke-miterlimit:10;" d="M 430.133031 255.120344 C 430.133031 257.846906 427.926 260.053937 425.203344 260.053937 C 422.476781 260.053937 420.26975 257.846906 420.26975 255.120344 C 420.26975 252.397687 422.476781 250.190656 425.203344 250.190656 C 427.926 250.190656 430.133031 252.397687 430.133031 255.120344 Z M 430.133031 255.120344 " transform="matrix(1,0,0,-1,-66.426,302.968)"/>
<path style="fill-rule:nonzero;fill:rgb(93.998718%,84.234619%,89.646912%);fill-opacity:1;stroke-width:0.79701;stroke-linecap:butt;stroke-linejoin:miter;stroke:rgb(79.998779%,47.451782%,65.489197%);stroke-opacity:1;stroke-miterlimit:10;" d="M 472.652562 255.120344 C 472.652562 257.846906 470.445531 260.053937 467.722875 260.053937 C 465.000219 260.053937 462.789281 257.846906 462.789281 255.120344 C 462.789281 252.397687 465.000219 250.190656 467.722875 250.190656 C 470.445531 250.190656 472.652562 252.397687 472.652562 255.120344 Z M 472.652562 255.120344 " transform="matrix(1,0,0,-1,-66.426,302.968)"/>
<path style=" stroke:none;fill-rule:nonzero;fill:rgb(93.998718%,84.234619%,89.646912%);fill-opacity:1;" d="M 448.75 47.847656 C 448.75 45.121094 446.539063 42.914063 443.816406 42.914063 C 441.09375 42.914063 438.886719 45.121094 438.886719 47.847656 C 438.886719 50.570313 441.09375 52.777344 443.816406 52.777344 C 446.539063 52.777344 448.75 50.570313 448.75 47.847656 Z M 448.75 47.847656 "/>
<g clip-path="url(#clip2)" clip-rule="nonzero">
<path style="fill:none;stroke-width:0.79701;stroke-linecap:butt;stroke-linejoin:miter;stroke:rgb(79.998779%,47.451782%,65.489197%);stroke-opacity:1;stroke-miterlimit:10;" d="M 515.176 255.120344 C 515.176 257.846906 512.965063 260.053937 510.242406 260.053937 C 507.51975 260.053937 505.312719 257.846906 505.312719 255.120344 C 505.312719 252.397687 507.51975 250.190656 510.242406 250.190656 C 512.965063 250.190656 515.176 252.397687 515.176 255.120344 Z M 515.176 255.120344 " transform="matrix(1,0,0,-1,-66.426,302.968)"/>
</g>
<path style="fill-rule:nonzero;fill:rgb(97.059631%,88.703918%,69.999695%);fill-opacity:1;stroke-width:0.79701;stroke-linecap:butt;stroke-linejoin:miter;stroke:rgb(90.194702%,62.353516%,0%);stroke-opacity:1;stroke-miterlimit:10;" d="M 89.972875 212.600812 C 89.972875 215.323469 87.765844 217.534406 85.039281 217.534406 C 82.316625 217.534406 80.109594 215.323469 80.109594 212.600812 C 80.109594 209.878156 82.316625 207.671125 85.039281 207.671125 C 87.765844 207.671125 89.972875 209.878156 89.972875 212.600812 Z M 89.972875 212.600812 " transform="matrix(1,0,0,-1,-66.426,302.968)"/>
<path style="fill-rule:nonzero;fill:rgb(97.059631%,88.703918%,69.999695%);fill-opacity:1;stroke-width:0.79701;stroke-linecap:butt;stroke-linejoin:miter;stroke:rgb(90.194702%,62.353516%,0%);stroke-opacity:1;stroke-miterlimit:10;" d="M 132.492406 212.600812 C 132.492406 215.323469 130.285375 217.534406 127.558813 217.534406 C 124.836156 217.534406 122.629125 215.323469 122.629125 212.600812 C 122.629125 209.878156 124.836156 207.671125 127.558813 207.671125 C 130.285375 207.671125 132.492406 209.878156 132.492406 212.600812 Z M 132.492406 212.600812 " transform="matrix(1,0,0,-1,-66.426,302.968)"/>
<path style="fill-rule:nonzero;fill:rgb(97.059631%,88.703918%,69.999695%);fill-opacity:1;stroke-width:0.79701;stroke-linecap:butt;stroke-linejoin:miter;stroke:rgb(90.194702%,62.353516%,0%);stroke-opacity:1;stroke-miterlimit:10;" d="M 175.011937 212.600812 C 175.011937 215.323469 172.804906 217.534406 170.08225 217.534406 C 167.355687 217.534406 165.148656 215.323469 165.148656 212.600812 C 165.148656 209.878156 167.355687 207.671125 170.08225 207.671125 C 172.804906 207.671125 175.011937 209.878156 175.011937 212.600812 Z M 175.011937 212.600812 " transform="matrix(1,0,0,-1,-66.426,302.968)"/>
<path style="fill-rule:nonzero;fill:rgb(80.117798%,91.175842%,97.410583%);fill-opacity:1;stroke-width:0.79701;stroke-linecap:butt;stroke-linejoin:miter;stroke:rgb(33.724976%,70.588684%,91.372681%);stroke-opacity:1;stroke-miterlimit:10;" d="M 217.531469 212.600812 C 217.531469 215.323469 215.324437 217.534406 212.601781 217.534406 C 209.879125 217.534406 207.668187 215.323469 207.668187 212.600812 C 207.668187 209.878156 209.879125 207.671125 212.601781 207.671125 C 215.324437 207.671125 217.531469 209.878156 217.531469 212.600812 Z M 217.531469 212.600812 " transform="matrix(1,0,0,-1,-66.426,302.968)"/>
<path style="fill-rule:nonzero;fill:rgb(97.059631%,88.703918%,69.999695%);fill-opacity:1;stroke-width:0.79701;stroke-linecap:butt;stroke-linejoin:miter;stroke:rgb(90.194702%,62.353516%,0%);stroke-opacity:1;stroke-miterlimit:10;" d="M 260.054906 212.600812 C 260.054906 215.323469 257.843969 217.534406 255.121312 217.534406 C 252.398656 217.534406 250.187719 215.323469 250.187719 212.600812 C 250.187719 209.878156 252.398656 207.671125 255.121312 207.671125 C 257.843969 207.671125 260.054906 209.878156 260.054906 212.600812 Z M 260.054906 212.600812 " transform="matrix(1,0,0,-1,-66.426,302.968)"/>
<path style="fill-rule:nonzero;fill:rgb(97.059631%,88.703918%,69.999695%);fill-opacity:1;stroke-width:0.79701;stroke-linecap:butt;stroke-linejoin:miter;stroke:rgb(90.194702%,62.353516%,0%);stroke-opacity:1;stroke-miterlimit:10;" d="M 302.574437 212.600812 C 302.574437 215.323469 300.3635 217.534406 297.640844 217.534406 C 294.918187 217.534406 292.711156 215.323469 292.711156 212.600812 C 292.711156 209.878156 294.918187 207.671125 297.640844 207.671125 C 300.3635 207.671125 302.574437 209.878156 302.574437 212.600812 Z M 302.574437 212.600812 " transform="matrix(1,0,0,-1,-66.426,302.968)"/>
<path style="fill-rule:nonzero;fill:rgb(80.117798%,91.175842%,97.410583%);fill-opacity:1;stroke-width:0.79701;stroke-linecap:butt;stroke-linejoin:miter;stroke:rgb(33.724976%,70.588684%,91.372681%);stroke-opacity:1;stroke-miterlimit:10;" d="M 345.093969 212.600812 C 345.093969 215.323469 342.886937 217.534406 340.160375 217.534406 C 337.437719 217.534406 335.230687 215.323469 335.230687 212.600812 C 335.230687 209.878156 337.437719 207.671125 340.160375 207.671125 C 342.886937 207.671125 345.093969 209.878156 345.093969 212.600812 Z M 345.093969 212.600812 " transform="matrix(1,0,0,-1,-66.426,302.968)"/>
<path style="fill-rule:nonzero;fill:rgb(93.998718%,84.234619%,89.646912%);fill-opacity:1;stroke-width:0.79701;stroke-linecap:butt;stroke-linejoin:miter;stroke:rgb(79.998779%,47.451782%,65.489197%);stroke-opacity:1;stroke-miterlimit:10;" d="M 387.6135 212.600812 C 387.6135 215.323469 385.406469 217.534406 382.683812 217.534406 C 379.95725 217.534406 377.750219 215.323469 377.750219 212.600812 C 377.750219 209.878156 379.95725 207.671125 382.683812 207.671125 C 385.406469 207.671125 387.6135 209.878156 387.6135 212.600812 Z M 387.6135 212.600812 " transform="matrix(1,0,0,-1,-66.426,302.968)"/>
<path style="fill-rule:nonzero;fill:rgb(80.117798%,91.175842%,97.410583%);fill-opacity:1;stroke-width:0.79701;stroke-linecap:butt;stroke-linejoin:miter;stroke:rgb(33.724976%,70.588684%,91.372681%);stroke-opacity:1;stroke-miterlimit:10;" d="M 430.133031 212.600812 C 430.133031 215.323469 427.926 217.534406 425.203344 217.534406 C 422.476781 217.534406 420.26975 215.323469 420.26975 212.600812 C 420.26975 209.878156 422.476781 207.671125 425.203344 207.671125 C 427.926 207.671125 430.133031 209.878156 430.133031 212.600812 Z M 430.133031 212.600812 " transform="matrix(1,0,0,-1,-66.426,302.968)"/>
<path style="fill-rule:nonzero;fill:rgb(93.998718%,84.234619%,89.646912%);fill-opacity:1;stroke-width:0.79701;stroke-linecap:butt;stroke-linejoin:miter;stroke:rgb(79.998779%,47.451782%,65.489197%);stroke-opacity:1;stroke-miterlimit:10;" d="M 472.652562 212.600812 C 472.652562 215.323469 470.445531 217.534406 467.722875 217.534406 C 465.000219 217.534406 462.789281 215.323469 462.789281 212.600812 C 462.789281 209.878156 465.000219 207.671125 467.722875 207.671125 C 470.445531 207.671125 472.652562 209.878156 472.652562 212.600812 Z M 472.652562 212.600812 " transform="matrix(1,0,0,-1,-66.426,302.968)"/>
<path style=" stroke:none;fill-rule:nonzero;fill:rgb(93.998718%,84.234619%,89.646912%);fill-opacity:1;" d="M 448.75 90.367188 C 448.75 87.644531 446.539063 85.433594 443.816406 85.433594 C 441.09375 85.433594 438.886719 87.644531 438.886719 90.367188 C 438.886719 93.089844 441.09375 95.296875 443.816406 95.296875 C 446.539063 95.296875 448.75 93.089844 448.75 90.367188 Z M 448.75 90.367188 "/>
<g clip-path="url(#clip3)" clip-rule="nonzero">
<path style="fill:none;stroke-width:0.79701;stroke-linecap:butt;stroke-linejoin:miter;stroke:rgb(79.998779%,47.451782%,65.489197%);stroke-opacity:1;stroke-miterlimit:10;" d="M 515.176 212.600812 C 515.176 215.323469 512.965063 217.534406 510.242406 217.534406 C 507.51975 217.534406 505.312719 215.323469 505.312719 212.600812 C 505.312719 209.878156 507.51975 207.671125 510.242406 207.671125 C 512.965063 207.671125 515.176 209.878156 515.176 212.600812 Z M 515.176 212.600812 " transform="matrix(1,0,0,-1,-66.426,302.968)"/>
</g>
<path style="fill-rule:nonzero;fill:rgb(80.117798%,91.175842%,97.410583%);fill-opacity:1;stroke-width:0.79701;stroke-linecap:butt;stroke-linejoin:miter;stroke:rgb(33.724976%,70.588684%,91.372681%);stroke-opacity:1;stroke-miterlimit:10;" d="M 89.972875 170.081281 C 89.972875 172.803937 87.765844 175.010969 85.039281 175.010969 C 82.316625 175.010969 80.109594 172.803937 80.109594 170.081281 C 80.109594 167.358625 82.316625 165.147687 85.039281 165.147687 C 87.765844 165.147687 89.972875 167.358625 89.972875 170.081281 Z M 89.972875 170.081281 " transform="matrix(1,0,0,-1,-66.426,302.968)"/>
<path style="fill-rule:nonzero;fill:rgb(97.059631%,88.703918%,69.999695%);fill-opacity:1;stroke-width:0.79701;stroke-linecap:butt;stroke-linejoin:miter;stroke:rgb(90.194702%,62.353516%,0%);stroke-opacity:1;stroke-miterlimit:10;" d="M 132.492406 170.081281 C 132.492406 172.803937 130.285375 175.010969 127.558813 175.010969 C 124.836156 175.010969 122.629125 172.803937 122.629125 170.081281 C 122.629125 167.358625 124.836156 165.147687 127.558813 165.147687 C 130.285375 165.147687 132.492406 167.358625 132.492406 170.081281 Z M 132.492406 170.081281 " transform="matrix(1,0,0,-1,-66.426,302.968)"/>
<path style="fill-rule:nonzero;fill:rgb(97.059631%,88.703918%,69.999695%);fill-opacity:1;stroke-width:0.79701;stroke-linecap:butt;stroke-linejoin:miter;stroke:rgb(90.194702%,62.353516%,0%);stroke-opacity:1;stroke-miterlimit:10;" d="M 175.011937 170.081281 C 175.011937 172.803937 172.804906 175.010969 170.08225 175.010969 C 167.355687 175.010969 165.148656 172.803937 165.148656 170.081281 C 165.148656 167.358625 167.355687 165.147687 170.08225 165.147687 C 172.804906 165.147687 175.011937 167.358625 175.011937 170.081281 Z M 175.011937 170.081281 " transform="matrix(1,0,0,-1,-66.426,302.968)"/>
<path style="fill-rule:nonzero;fill:rgb(97.059631%,88.703918%,69.999695%);fill-opacity:1;stroke-width:0.79701;stroke-linecap:butt;stroke-linejoin:miter;stroke:rgb(90.194702%,62.353516%,0%);stroke-opacity:1;stroke-miterlimit:10;" d="M 217.531469 170.081281 C 217.531469 172.803937 215.324437 175.010969 212.601781 175.010969 C 209.879125 175.010969 207.668187 172.803937 207.668187 170.081281 C 207.668187 167.358625 209.879125 165.147687 212.601781 165.147687 C 215.324437 165.147687 217.531469 167.358625 217.531469 170.081281 Z M 217.531469 170.081281 " transform="matrix(1,0,0,-1,-66.426,302.968)"/>
<path style="fill-rule:nonzero;fill:rgb(80.117798%,91.175842%,97.410583%);fill-opacity:1;stroke-width:0.79701;stroke-linecap:butt;stroke-linejoin:miter;stroke:rgb(33.724976%,70.588684%,91.372681%);stroke-opacity:1;stroke-miterlimit:10;" d="M 260.054906 170.081281 C 260.054906 172.803937 257.843969 175.010969 255.121312 175.010969 C 252.398656 175.010969 250.187719 172.803937 250.187719 170.081281 C 250.187719 167.358625 252.398656 165.147687 255.121312 165.147687 C 257.843969 165.147687 260.054906 167.358625 260.054906 170.081281 Z M 260.054906 170.081281 " transform="matrix(1,0,0,-1,-66.426,302.968)"/>
<path style="fill-rule:nonzero;fill:rgb(97.059631%,88.703918%,69.999695%);fill-opacity:1;stroke-width:0.79701;stroke-linecap:butt;stroke-linejoin:miter;stroke:rgb(90.194702%,62.353516%,0%);stroke-opacity:1;stroke-miterlimit:10;" d="M 302.574437 170.081281 C 302.574437 172.803937 300.3635 175.010969 297.640844 175.010969 C 294.918187 175.010969 292.711156 172.803937 292.711156 170.081281 C 292.711156 167.358625 294.918187 165.147687 297.640844 165.147687 C 300.3635 165.147687 302.574437 167.358625 302.574437 170.081281 Z M 302.574437 170.081281 " transform="matrix(1,0,0,-1,-66.426,302.968)"/>
<path style="fill-rule:nonzero;fill:rgb(80.117798%,91.175842%,97.410583%);fill-opacity:1;stroke-width:0.79701;stroke-linecap:butt;stroke-linejoin:miter;stroke:rgb(33.724976%,70.588684%,91.372681%);stroke-opacity:1;stroke-miterlimit:10;" d="M 345.093969 170.081281 C 345.093969 172.803937 342.886937 175.010969 340.160375 175.010969 C 337.437719 175.010969 335.230687 172.803937 335.230687 170.081281 C 335.230687 167.358625 337.437719 165.147687 340.160375 165.147687 C 342.886937 165.147687 345.093969 167.358625 345.093969 170.081281 Z M 345.093969 170.081281 " transform="matrix(1,0,0,-1,-66.426,302.968)"/>
<path style="fill-rule:nonzero;fill:rgb(93.998718%,84.234619%,89.646912%);fill-opacity:1;stroke-width:0.79701;stroke-linecap:butt;stroke-linejoin:miter;stroke:rgb(79.998779%,47.451782%,65.489197%);stroke-opacity:1;stroke-miterlimit:10;" d="M 387.6135 170.081281 C 387.6135 172.803937 385.406469 175.010969 382.683812 175.010969 C 379.95725 175.010969 377.750219 172.803937 377.750219 170.081281 C 377.750219 167.358625 379.95725 165.147687 382.683812 165.147687 C 385.406469 165.147687 387.6135 167.358625 387.6135 170.081281 Z M 387.6135 170.081281 " transform="matrix(1,0,0,-1,-66.426,302.968)"/>
<path style="fill-rule:nonzero;fill:rgb(80.117798%,91.175842%,97.410583%);fill-opacity:1;stroke-width:0.79701;stroke-linecap:butt;stroke-linejoin:miter;stroke:rgb(33.724976%,70.588684%,91.372681%);stroke-opacity:1;stroke-miterlimit:10;" d="M 430.133031 170.081281 C 430.133031 172.803937 427.926 175.010969 425.203344 175.010969 C 422.476781 175.010969 420.26975 172.803937 420.26975 170.081281 C 420.26975 167.358625 422.476781 165.147687 425.203344 165.147687 C 427.926 165.147687 430.133031 167.358625 430.133031 170.081281 Z M 430.133031 170.081281 " transform="matrix(1,0,0,-1,-66.426,302.968)"/>
<path style="fill-rule:nonzero;fill:rgb(93.998718%,84.234619%,89.646912%);fill-opacity:1;stroke-width:0.79701;stroke-linecap:butt;stroke-linejoin:miter;stroke:rgb(79.998779%,47.451782%,65.489197%);stroke-opacity:1;stroke-miterlimit:10;" d="M 472.652562 170.081281 C 472.652562 172.803937 470.445531 175.010969 467.722875 175.010969 C 465.000219 175.010969 462.789281 172.803937 462.789281 170.081281 C 462.789281 167.358625 465.000219 165.147687 467.722875 165.147687 C 470.445531 165.147687 472.652562 167.358625 472.652562 170.081281 Z M 472.652562 170.081281 " transform="matrix(1,0,0,-1,-66.426,302.968)"/>
<path style=" stroke:none;fill-rule:nonzero;fill:rgb(93.998718%,84.234619%,89.646912%);fill-opacity:1;" d="M 448.75 132.886719 C 448.75 130.164063 446.539063 127.957031 443.816406 127.957031 C 441.09375 127.957031 438.886719 130.164063 438.886719 132.886719 C 438.886719 135.609375 441.09375 137.820313 443.816406 137.820313 C 446.539063 137.820313 448.75 135.609375 448.75 132.886719 Z M 448.75 132.886719 "/>
<g clip-path="url(#clip4)" clip-rule="nonzero">
<path style="fill:none;stroke-width:0.79701;stroke-linecap:butt;stroke-linejoin:miter;stroke:rgb(79.998779%,47.451782%,65.489197%);stroke-opacity:1;stroke-miterlimit:10;" d="M 515.176 170.081281 C 515.176 172.803937 512.965063 175.010969 510.242406 175.010969 C 507.51975 175.010969 505.312719 172.803937 505.312719 170.081281 C 505.312719 167.358625 507.51975 165.147687 510.242406 165.147687 C 512.965063 165.147687 515.176 167.358625 515.176 170.081281 Z M 515.176 170.081281 " transform="matrix(1,0,0,-1,-66.426,302.968)"/>
</g>
<path style="fill-rule:nonzero;fill:rgb(97.059631%,88.703918%,69.999695%);fill-opacity:1;stroke-width:0.79701;stroke-linecap:butt;stroke-linejoin:miter;stroke:rgb(90.194702%,62.353516%,0%);stroke-opacity:1;stroke-miterlimit:10;" d="M 89.972875 127.56175 C 89.972875 130.284406 87.765844 132.491437 85.039281 132.491437 C 82.316625 132.491437 80.109594 130.284406 80.109594 127.56175 C 80.109594 124.835187 82.316625 122.628156 85.039281 122.628156 C 87.765844 122.628156 89.972875 124.835187 89.972875 127.56175 Z M 89.972875 127.56175 " transform="matrix(1,0,0,-1,-66.426,302.968)"/>
<path style="fill-rule:nonzero;fill:rgb(97.059631%,88.703918%,69.999695%);fill-opacity:1;stroke-width:0.79701;stroke-linecap:butt;stroke-linejoin:miter;stroke:rgb(90.194702%,62.353516%,0%);stroke-opacity:1;stroke-miterlimit:10;" d="M 132.492406 127.56175 C 132.492406 130.284406 130.285375 132.491437 127.558813 132.491437 C 124.836156 132.491437 122.629125 130.284406 122.629125 127.56175 C 122.629125 124.835187 124.836156 122.628156 127.558813 122.628156 C 130.285375 122.628156 132.492406 124.835187 132.492406 127.56175 Z M 132.492406 127.56175 " transform="matrix(1,0,0,-1,-66.426,302.968)"/>
<path style="fill-rule:nonzero;fill:rgb(97.059631%,88.703918%,69.999695%);fill-opacity:1;stroke-width:0.79701;stroke-linecap:butt;stroke-linejoin:miter;stroke:rgb(90.194702%,62.353516%,0%);stroke-opacity:1;stroke-miterlimit:10;" d="M 175.011937 127.56175 C 175.011937 130.284406 172.804906 132.491437 170.08225 132.491437 C 167.355687 132.491437 165.148656 130.284406 165.148656 127.56175 C 165.148656 124.835187 167.355687 122.628156 170.08225 122.628156 C 172.804906 122.628156 175.011937 124.835187 175.011937 127.56175 Z M 175.011937 127.56175 " transform="matrix(1,0,0,-1,-66.426,302.968)"/>
<path style="fill-rule:nonzero;fill:rgb(80.117798%,91.175842%,97.410583%);fill-opacity:1;stroke-width:0.79701;stroke-linecap:butt;stroke-linejoin:miter;stroke:rgb(33.724976%,70.588684%,91.372681%);stroke-opacity:1;stroke-miterlimit:10;" d="M 217.531469 127.56175 C 217.531469 130.284406 215.324437 132.491437 212.601781 132.491437 C 209.879125 132.491437 207.668187 130.284406 207.668187 127.56175 C 207.668187 124.835187 209.879125 122.628156 212.601781 122.628156 C 215.324437 122.628156 217.531469 124.835187 217.531469 127.56175 Z M 217.531469 127.56175 " transform="matrix(1,0,0,-1,-66.426,302.968)"/>
<path style="fill-rule:nonzero;fill:rgb(80.117798%,91.175842%,97.410583%);fill-opacity:1;stroke-width:0.79701;stroke-linecap:butt;stroke-linejoin:miter;stroke:rgb(33.724976%,70.588684%,91.372681%);stroke-opacity:1;stroke-miterlimit:10;" d="M 260.054906 127.56175 C 260.054906 130.284406 257.843969 132.491437 255.121312 132.491437 C 252.398656 132.491437 250.187719 130.284406 250.187719 127.56175 C 250.187719 124.835187 252.398656 122.628156 255.121312 122.628156 C 257.843969 122.628156 260.054906 124.835187 260.054906 127.56175 Z M 260.054906 127.56175 " transform="matrix(1,0,0,-1,-66.426,302.968)"/>
<path style="fill-rule:nonzero;fill:rgb(80.117798%,91.175842%,97.410583%);fill-opacity:1;stroke-width:0.79701;stroke-linecap:butt;stroke-linejoin:miter;stroke:rgb(33.724976%,70.588684%,91.372681%);stroke-opacity:1;stroke-miterlimit:10;" d="M 302.574437 127.56175 C 302.574437 130.284406 300.3635 132.491437 297.640844 132.491437 C 294.918187 132.491437 292.711156 130.284406 292.711156 127.56175 C 292.711156 124.835187 294.918187 122.628156 297.640844 122.628156 C 300.3635 122.628156 302.574437 124.835187 302.574437 127.56175 Z M 302.574437 127.56175 " transform="matrix(1,0,0,-1,-66.426,302.968)"/>
<path style="fill-rule:nonzero;fill:rgb(80.117798%,91.175842%,97.410583%);fill-opacity:1;stroke-width:0.79701;stroke-linecap:butt;stroke-linejoin:miter;stroke:rgb(33.724976%,70.588684%,91.372681%);stroke-opacity:1;stroke-miterlimit:10;" d="M 345.093969 127.56175 C 345.093969 130.284406 342.886937 132.491437 340.160375 132.491437 C 337.437719 132.491437 335.230687 130.284406 335.230687 127.56175 C 335.230687 124.835187 337.437719 122.628156 340.160375 122.628156 C 342.886937 122.628156 345.093969 124.835187 345.093969 127.56175 Z M 345.093969 127.56175 " transform="matrix(1,0,0,-1,-66.426,302.968)"/>
<path style="fill-rule:nonzero;fill:rgb(93.998718%,84.234619%,89.646912%);fill-opacity:1;stroke-width:0.79701;stroke-linecap:butt;stroke-linejoin:miter;stroke:rgb(79.998779%,47.451782%,65.489197%);stroke-opacity:1;stroke-miterlimit:10;" d="M 387.6135 127.56175 C 387.6135 130.284406 385.406469 132.491437 382.683812 132.491437 C 379.95725 132.491437 377.750219 130.284406 377.750219 127.56175 C 377.750219 124.835187 379.95725 122.628156 382.683812 122.628156 C 385.406469 122.628156 387.6135 124.835187 387.6135 127.56175 Z M 387.6135 127.56175 " transform="matrix(1,0,0,-1,-66.426,302.968)"/>
<path style="fill-rule:nonzero;fill:rgb(93.998718%,84.234619%,89.646912%);fill-opacity:1;stroke-width:0.79701;stroke-linecap:butt;stroke-linejoin:miter;stroke:rgb(79.998779%,47.451782%,65.489197%);stroke-opacity:1;stroke-miterlimit:10;" d="M 430.133031 127.56175 C 430.133031 130.284406 427.926 132.491437 425.203344 132.491437 C 422.476781 132.491437 420.26975 130.284406 420.26975 127.56175 C 420.26975 124.835187 422.476781 122.628156 425.203344 122.628156 C 427.926 122.628156 430.133031 124.835187 430.133031 127.56175 Z M 430.133031 127.56175 " transform="matrix(1,0,0,-1,-66.426,302.968)"/>
<path style="fill-rule:nonzero;fill:rgb(93.998718%,84.234619%,89.646912%);fill-opacity:1;stroke-width:0.79701;stroke-linecap:butt;stroke-linejoin:miter;stroke:rgb(79.998779%,47.451782%,65.489197%);stroke-opacity:1;stroke-miterlimit:10;" d="M 472.652562 127.56175 C 472.652562 130.284406 470.445531 132.491437 467.722875 132.491437 C 465.000219 132.491437 462.789281 130.284406 462.789281 127.56175 C 462.789281 124.835187 465.000219 122.628156 467.722875 122.628156 C 470.445531 122.628156 472.652562 124.835187 472.652562 127.56175 Z M 472.652562 127.56175 " transform="matrix(1,0,0,-1,-66.426,302.968)"/>
<path style=" stroke:none;fill-rule:nonzero;fill:rgb(93.998718%,84.234619%,89.646912%);fill-opacity:1;" d="M 448.75 175.40625 C 448.75 172.683594 446.539063 170.476563 443.816406 170.476563 C 441.09375 170.476563 438.886719 172.683594 438.886719 175.40625 C 438.886719 178.132813 441.09375 180.339844 443.816406 180.339844 C 446.539063 180.339844 448.75 178.132813 448.75 175.40625 Z M 448.75 175.40625 "/>
<g clip-path="url(#clip5)" clip-rule="nonzero">
<path style="fill:none;stroke-width:0.79701;stroke-linecap:butt;stroke-linejoin:miter;stroke:rgb(79.998779%,47.451782%,65.489197%);stroke-opacity:1;stroke-miterlimit:10;" d="M 515.176 127.56175 C 515.176 130.284406 512.965063 132.491437 510.242406 132.491437 C 507.51975 132.491437 505.312719 130.284406 505.312719 127.56175 C 505.312719 124.835187 507.51975 122.628156 510.242406 122.628156 C 512.965063 122.628156 515.176 124.835187 515.176 127.56175 Z M 515.176 127.56175 " transform="matrix(1,0,0,-1,-66.426,302.968)"/>
</g>
<path style="fill-rule:nonzero;fill:rgb(80.117798%,91.175842%,97.410583%);fill-opacity:1;stroke-width:0.79701;stroke-linecap:butt;stroke-linejoin:miter;stroke:rgb(33.724976%,70.588684%,91.372681%);stroke-opacity:1;stroke-miterlimit:10;" d="M 89.972875 85.042219 C 89.972875 87.764875 87.765844 89.971906 85.039281 89.971906 C 82.316625 89.971906 80.109594 87.764875 80.109594 85.042219 C 80.109594 82.315656 82.316625 80.108625 85.039281 80.108625 C 87.765844 80.108625 89.972875 82.315656 89.972875 85.042219 Z M 89.972875 85.042219 " transform="matrix(1,0,0,-1,-66.426,302.968)"/>
<path style="fill-rule:nonzero;fill:rgb(97.059631%,88.703918%,69.999695%);fill-opacity:1;stroke-width:0.79701;stroke-linecap:butt;stroke-linejoin:miter;stroke:rgb(90.194702%,62.353516%,0%);stroke-opacity:1;stroke-miterlimit:10;" d="M 132.492406 85.042219 C 132.492406 87.764875 130.285375 89.971906 127.558813 89.971906 C 124.836156 89.971906 122.629125 87.764875 122.629125 85.042219 C 122.629125 82.315656 124.836156 80.108625 127.558813 80.108625 C 130.285375 80.108625 132.492406 82.315656 132.492406 85.042219 Z M 132.492406 85.042219 " transform="matrix(1,0,0,-1,-66.426,302.968)"/>
<path style="fill-rule:nonzero;fill:rgb(97.059631%,88.703918%,69.999695%);fill-opacity:1;stroke-width:0.79701;stroke-linecap:butt;stroke-linejoin:miter;stroke:rgb(90.194702%,62.353516%,0%);stroke-opacity:1;stroke-miterlimit:10;" d="M 175.011937 85.042219 C 175.011937 87.764875 172.804906 89.971906 170.08225 89.971906 C 167.355687 89.971906 165.148656 87.764875 165.148656 85.042219 C 165.148656 82.315656 167.355687 80.108625 170.08225 80.108625 C 172.804906 80.108625 175.011937 82.315656 175.011937 85.042219 Z M 175.011937 85.042219 " transform="matrix(1,0,0,-1,-66.426,302.968)"/>
<path style="fill-rule:nonzero;fill:rgb(97.059631%,88.703918%,69.999695%);fill-opacity:1;stroke-width:0.79701;stroke-linecap:butt;stroke-linejoin:miter;stroke:rgb(90.194702%,62.353516%,0%);stroke-opacity:1;stroke-miterlimit:10;" d="M 217.531469 85.042219 C 217.531469 87.764875 215.324437 89.971906 212.601781 89.971906 C 209.879125 89.971906 207.668187 87.764875 207.668187 85.042219 C 207.668187 82.315656 209.879125 80.108625 212.601781 80.108625 C 215.324437 80.108625 217.531469 82.315656 217.531469 85.042219 Z M 217.531469 85.042219 " transform="matrix(1,0,0,-1,-66.426,302.968)"/>
<path style="fill-rule:nonzero;fill:rgb(80.117798%,91.175842%,97.410583%);fill-opacity:1;stroke-width:0.79701;stroke-linecap:butt;stroke-linejoin:miter;stroke:rgb(33.724976%,70.588684%,91.372681%);stroke-opacity:1;stroke-miterlimit:10;" d="M 260.054906 85.042219 C 260.054906 87.764875 257.843969 89.971906 255.121312 89.971906 C 252.398656 89.971906 250.187719 87.764875 250.187719 85.042219 C 250.187719 82.315656 252.398656 80.108625 255.121312 80.108625 C 257.843969 80.108625 260.054906 82.315656 260.054906 85.042219 Z M 260.054906 85.042219 " transform="matrix(1,0,0,-1,-66.426,302.968)"/>
<path style="fill-rule:nonzero;fill:rgb(80.117798%,91.175842%,97.410583%);fill-opacity:1;stroke-width:0.79701;stroke-linecap:butt;stroke-linejoin:miter;stroke:rgb(33.724976%,70.588684%,91.372681%);stroke-opacity:1;stroke-miterlimit:10;" d="M 302.574437 85.042219 C 302.574437 87.764875 300.3635 89.971906 297.640844 89.971906 C 294.918187 89.971906 292.711156 87.764875 292.711156 85.042219 C 292.711156 82.315656 294.918187 80.108625 297.640844 80.108625 C 300.3635 80.108625 302.574437 82.315656 302.574437 85.042219 Z M 302.574437 85.042219 " transform="matrix(1,0,0,-1,-66.426,302.968)"/>
<path style="fill-rule:nonzero;fill:rgb(93.998718%,84.234619%,89.646912%);fill-opacity:1;stroke-width:0.79701;stroke-linecap:butt;stroke-linejoin:miter;stroke:rgb(79.998779%,47.451782%,65.489197%);stroke-opacity:1;stroke-miterlimit:10;" d="M 345.093969 85.042219 C 345.093969 87.764875 342.886937 89.971906 340.160375 89.971906 C 337.437719 89.971906 335.230687 87.764875 335.230687 85.042219 C 335.230687 82.315656 337.437719 80.108625 340.160375 80.108625 C 342.886937 80.108625 345.093969 82.315656 345.093969 85.042219 Z M 345.093969 85.042219 " transform="matrix(1,0,0,-1,-66.426,302.968)"/>
<path style="fill-rule:nonzero;fill:rgb(93.998718%,84.234619%,89.646912%);fill-opacity:1;stroke-width:0.79701;stroke-linecap:butt;stroke-linejoin:miter;stroke:rgb(79.998779%,47.451782%,65.489197%);stroke-opacity:1;stroke-miterlimit:10;" d="M 387.6135 85.042219 C 387.6135 87.764875 385.406469 89.971906 382.683812 89.971906 C 379.95725 89.971906 377.750219 87.764875 377.750219 85.042219 C 377.750219 82.315656 379.95725 80.108625 382.683812 80.108625 C 385.406469 80.108625 387.6135 82.315656 387.6135 85.042219 Z M 387.6135 85.042219 " transform="matrix(1,0,0,-1,-66.426,302.968)"/>
<path style="fill-rule:nonzero;fill:rgb(93.998718%,84.234619%,89.646912%);fill-opacity:1;stroke-width:0.79701;stroke-linecap:butt;stroke-linejoin:miter;stroke:rgb(79.998779%,47.451782%,65.489197%);stroke-opacity:1;stroke-miterlimit:10;" d="M 430.133031 85.042219 C 430.133031 87.764875 427.926 89.971906 425.203344 89.971906 C 422.476781 89.971906 420.26975 87.764875 420.26975 85.042219 C 420.26975 82.315656 422.476781 80.108625 425.203344 80.108625 C 427.926 80.108625 430.133031 82.315656 430.133031 85.042219 Z M 430.133031 85.042219 " transform="matrix(1,0,0,-1,-66.426,302.968)"/>
<path style="fill-rule:nonzero;fill:rgb(93.998718%,84.234619%,89.646912%);fill-opacity:1;stroke-width:0.79701;stroke-linecap:butt;stroke-linejoin:miter;stroke:rgb(79.998779%,47.451782%,65.489197%);stroke-opacity:1;stroke-miterlimit:10;" d="M 472.652562 85.042219 C 472.652562 87.764875 470.445531 89.971906 467.722875 89.971906 C 465.000219 89.971906 462.789281 87.764875 462.789281 85.042219 C 462.789281 82.315656 465.000219 80.108625 467.722875 80.108625 C 470.445531 80.108625 472.652562 82.315656 472.652562 85.042219 Z M 472.652562 85.042219 " transform="matrix(1,0,0,-1,-66.426,302.968)"/>
<path style=" stroke:none;fill-rule:nonzero;fill:rgb(93.998718%,84.234619%,89.646912%);fill-opacity:1;" d="M 448.75 217.925781 C 448.75 215.203125 446.539063 212.996094 443.816406 212.996094 C 441.09375 212.996094 438.886719 215.203125 438.886719 217.925781 C 438.886719 220.652344 441.09375 222.859375 443.816406 222.859375 C 446.539063 222.859375 448.75 220.652344 448.75 217.925781 Z M 448.75 217.925781 "/>
<g clip-path="url(#clip6)" clip-rule="nonzero">
<path style="fill:none;stroke-width:0.79701;stroke-linecap:butt;stroke-linejoin:miter;stroke:rgb(79.998779%,47.451782%,65.489197%);stroke-opacity:1;stroke-miterlimit:10;" d="M 515.176 85.042219 C 515.176 87.764875 512.965063 89.971906 510.242406 89.971906 C 507.51975 89.971906 505.312719 87.764875 505.312719 85.042219 C 505.312719 82.315656 507.51975 80.108625 510.242406 80.108625 C 512.965063 80.108625 515.176 82.315656 515.176 85.042219 Z M 515.176 85.042219 " transform="matrix(1,0,0,-1,-66.426,302.968)"/>
</g>
<path style="fill-rule:nonzero;fill:rgb(97.059631%,88.703918%,69.999695%);fill-opacity:1;stroke-width:0.79701;stroke-linecap:butt;stroke-linejoin:miter;stroke:rgb(90.194702%,62.353516%,0%);stroke-opacity:1;stroke-miterlimit:10;" d="M 89.972875 42.518781 C 89.972875 45.245344 87.765844 47.452375 85.039281 47.452375 C 82.316625 47.452375 80.109594 45.245344 80.109594 42.518781 C 80.109594 39.796125 82.316625 37.589094 85.039281 37.589094 C 87.765844 37.589094 89.972875 39.796125 89.972875 42.518781 Z M 89.972875 42.518781 " transform="matrix(1,0,0,-1,-66.426,302.968)"/>
<path style="fill-rule:nonzero;fill:rgb(97.059631%,88.703918%,69.999695%);fill-opacity:1;stroke-width:0.79701;stroke-linecap:butt;stroke-linejoin:miter;stroke:rgb(90.194702%,62.353516%,0%);stroke-opacity:1;stroke-miterlimit:10;" d="M 132.492406 42.518781 C 132.492406 45.245344 130.285375 47.452375 127.558813 47.452375 C 124.836156 47.452375 122.629125 45.245344 122.629125 42.518781 C 122.629125 39.796125 124.836156 37.589094 127.558813 37.589094 C 130.285375 37.589094 132.492406 39.796125 132.492406 42.518781 Z M 132.492406 42.518781 " transform="matrix(1,0,0,-1,-66.426,302.968)"/>
<path style="fill-rule:nonzero;fill:rgb(97.059631%,88.703918%,69.999695%);fill-opacity:1;stroke-width:0.79701;stroke-linecap:butt;stroke-linejoin:miter;stroke:rgb(90.194702%,62.353516%,0%);stroke-opacity:1;stroke-miterlimit:10;" d="M 175.011937 42.518781 C 175.011937 45.245344 172.804906 47.452375 170.08225 47.452375 C 167.355687 47.452375 165.148656 45.245344 165.148656 42.518781 C 165.148656 39.796125 167.355687 37.589094 170.08225 37.589094 C 172.804906 37.589094 175.011937 39.796125 175.011937 42.518781 Z M 175.011937 42.518781 " transform="matrix(1,0,0,-1,-66.426,302.968)"/>
<path style="fill-rule:nonzero;fill:rgb(97.059631%,88.703918%,69.999695%);fill-opacity:1;stroke-width:0.79701;stroke-linecap:butt;stroke-linejoin:miter;stroke:rgb(90.194702%,62.353516%,0%);stroke-opacity:1;stroke-miterlimit:10;" d="M 217.531469 42.518781 C 217.531469 45.245344 215.324437 47.452375 212.601781 47.452375 C 209.879125 47.452375 207.668187 45.245344 207.668187 42.518781 C 207.668187 39.796125 209.879125 37.589094 212.601781 37.589094 C 215.324437 37.589094 217.531469 39.796125 217.531469 42.518781 Z M 217.531469 42.518781 " transform="matrix(1,0,0,-1,-66.426,302.968)"/>
<path style="fill-rule:nonzero;fill:rgb(80.117798%,91.175842%,97.410583%);fill-opacity:1;stroke-width:0.79701;stroke-linecap:butt;stroke-linejoin:miter;stroke:rgb(33.724976%,70.588684%,91.372681%);stroke-opacity:1;stroke-miterlimit:10;" d="M 260.054906 42.518781 C 260.054906 45.245344 257.843969 47.452375 255.121312 47.452375 C 252.398656 47.452375 250.187719 45.245344 250.187719 42.518781 C 250.187719 39.796125 252.398656 37.589094 255.121312 37.589094 C 257.843969 37.589094 260.054906 39.796125 260.054906 42.518781 Z M 260.054906 42.518781 " transform="matrix(1,0,0,-1,-66.426,302.968)"/>
<path style="fill-rule:nonzero;fill:rgb(80.117798%,91.175842%,97.410583%);fill-opacity:1;stroke-width:0.79701;stroke-linecap:butt;stroke-linejoin:miter;stroke:rgb(33.724976%,70.588684%,91.372681%);stroke-opacity:1;stroke-miterlimit:10;" d="M 302.574437 42.518781 C 302.574437 45.245344 300.3635 47.452375 297.640844 47.452375 C 294.918187 47.452375 292.711156 45.245344 292.711156 42.518781 C 292.711156 39.796125 294.918187 37.589094 297.640844 37.589094 C 300.3635 37.589094 302.574437 39.796125 302.574437 42.518781 Z M 302.574437 42.518781 " transform="matrix(1,0,0,-1,-66.426,302.968)"/>
<path style="fill-rule:nonzero;fill:rgb(93.998718%,84.234619%,89.646912%);fill-opacity:1;stroke-width:0.79701;stroke-linecap:butt;stroke-linejoin:miter;stroke:rgb(79.998779%,47.451782%,65.489197%);stroke-opacity:1;stroke-miterlimit:10;" d="M 345.093969 42.518781 C 345.093969 45.245344 342.886937 47.452375 340.160375 47.452375 C 337.437719 47.452375 335.230687 45.245344 335.230687 42.518781 C 335.230687 39.796125 337.437719 37.589094 340.160375 37.589094 C 342.886937 37.589094 345.093969 39.796125 345.093969 42.518781 Z M 345.093969 42.518781 " transform="matrix(1,0,0,-1,-66.426,302.968)"/>
<path style="fill-rule:nonzero;fill:rgb(93.998718%,84.234619%,89.646912%);fill-opacity:1;stroke-width:0.79701;stroke-linecap:butt;stroke-linejoin:miter;stroke:rgb(79.998779%,47.451782%,65.489197%);stroke-opacity:1;stroke-miterlimit:10;" d="M 387.6135 42.518781 C 387.6135 45.245344 385.406469 47.452375 382.683812 47.452375 C 379.95725 47.452375 377.750219 45.245344 377.750219 42.518781 C 377.750219 39.796125 379.95725 37.589094 382.683812 37.589094 C 385.406469 37.589094 387.6135 39.796125 387.6135 42.518781 Z M 387.6135 42.518781 " transform="matrix(1,0,0,-1,-66.426,302.968)"/>
<path style="fill-rule:nonzero;fill:rgb(93.998718%,84.234619%,89.646912%);fill-opacity:1;stroke-width:0.79701;stroke-linecap:butt;stroke-linejoin:miter;stroke:rgb(79.998779%,47.451782%,65.489197%);stroke-opacity:1;stroke-miterlimit:10;" d="M 430.133031 42.518781 C 430.133031 45.245344 427.926 47.452375 425.203344 47.452375 C 422.476781 47.452375 420.26975 45.245344 420.26975 42.518781 C 420.26975 39.796125 422.476781 37.589094 425.203344 37.589094 C 427.926 37.589094 430.133031 39.796125 430.133031 42.518781 Z M 430.133031 42.518781 " transform="matrix(1,0,0,-1,-66.426,302.968)"/>
<path style="fill-rule:nonzero;fill:rgb(93.998718%,84.234619%,89.646912%);fill-opacity:1;stroke-width:0.79701;stroke-linecap:butt;stroke-linejoin:miter;stroke:rgb(79.998779%,47.451782%,65.489197%);stroke-opacity:1;stroke-miterlimit:10;" d="M 472.652562 42.518781 C 472.652562 45.245344 470.445531 47.452375 467.722875 47.452375 C 465.000219 47.452375 462.789281 45.245344 462.789281 42.518781 C 462.789281 39.796125 465.000219 37.589094 467.722875 37.589094 C 470.445531 37.589094 472.652562 39.796125 472.652562 42.518781 Z M 472.652562 42.518781 " transform="matrix(1,0,0,-1,-66.426,302.968)"/>
<path style=" stroke:none;fill-rule:nonzero;fill:rgb(93.998718%,84.234619%,89.646912%);fill-opacity:1;" d="M 448.75 260.449219 C 448.75 257.722656 446.539063 255.515625 443.816406 255.515625 C 441.09375 255.515625 438.886719 257.722656 438.886719 260.449219 C 438.886719 263.171875 441.09375 265.378906 443.816406 265.378906 C 446.539063 265.378906 448.75 263.171875 448.75 260.449219 Z M 448.75 260.449219 "/>
<g clip-path="url(#clip7)" clip-rule="nonzero">
<path style="fill:none;stroke-width:0.79701;stroke-linecap:butt;stroke-linejoin:miter;stroke:rgb(79.998779%,47.451782%,65.489197%);stroke-opacity:1;stroke-miterlimit:10;" d="M 515.176 42.518781 C 515.176 45.245344 512.965063 47.452375 510.242406 47.452375 C 507.51975 47.452375 505.312719 45.245344 505.312719 42.518781 C 505.312719 39.796125 507.51975 37.589094 510.242406 37.589094 C 512.965063 37.589094 515.176 39.796125 515.176 42.518781 Z M 515.176 42.518781 " transform="matrix(1,0,0,-1,-66.426,302.968)"/>
</g>
<g clip-path="url(#clip8)" clip-rule="nonzero">
<path style="fill:none;stroke-width:0.79701;stroke-linecap:butt;stroke-linejoin:miter;stroke:rgb(33.724976%,70.588684%,91.372681%);stroke-opacity:1;stroke-dasharray:0.79701,0.99628;stroke-miterlimit:10;" d="M 302.574437 -0.00075 C 302.574437 2.721906 300.3635 4.932844 297.640844 4.932844 C 294.918187 4.932844 292.711156 2.721906 292.711156 -0.00075 C 292.711156 -2.723406 294.918187 -4.930438 297.640844 -4.930438 C 300.3635 -4.930438 302.574437 -2.723406 302.574437 -0.00075 Z M 302.574437 -0.00075 " transform="matrix(1,0,0,-1,-66.426,302.968)"/>
</g>
<path xmlns="http://www.w3.org/2000/svg" style="fill:none;stroke-width:0.79701;stroke-linecap:butt;stroke-linejoin:miter;stroke:rgb(0%,0%,0%);stroke-opacity:1;stroke-miterlimit:10;" d="M 85.051 292.546125 L 85.051 264.948469 " transform="matrix(1,0,0,-1,-66.426,302.968)"/>
<path xmlns="http://www.w3.org/2000/svg" style=" stroke:none;fill-rule:nonzero;fill:rgb(0%,0%,0%);fill-opacity:1;" d="M 18.625 42.683594 C 18.886719 41.300781 19.660156 39.058594 20.570313 37.503906 L 16.683594 37.503906 C 17.589844 39.058594 18.367188 41.300781 18.625 42.683594 "/>
<path xmlns="http://www.w3.org/2000/svg" style="fill:none;stroke-width:0.79701;stroke-linecap:butt;stroke-linejoin:miter;stroke:rgb(0%,0%,0%);stroke-opacity:1;stroke-miterlimit:10;" d="M 132.70725 297.682844 L 160.308812 297.682844 " transform="matrix(1,0,0,-1,-66.426,302.968)"/>
<path xmlns="http://www.w3.org/2000/svg" style=" stroke:none;fill-rule:nonzero;fill:rgb(0%,0%,0%);fill-opacity:1;" d="M 98.542969 5.285156 C 97.164063 5.027344 94.917969 4.25 93.363281 3.34375 L 93.363281 7.226563 C 94.917969 6.320313 97.164063 5.542969 98.542969 5.285156 "/>
<path xmlns="http://www.w3.org/2000/svg" style="fill:none;stroke-width:0.79701;stroke-linecap:butt;stroke-linejoin:miter;stroke:rgb(0%,0%,0%);stroke-opacity:1;stroke-miterlimit:10;" d="M 172.683812 293.218 C 186.047094 270.06175 155.218969 271.901594 165.187719 289.167219 " transform="matrix(1,0,0,-1,-66.426,302.968)"/>
<path xmlns="http://www.w3.org/2000/svg" style=" stroke:none;fill-rule:nonzero;fill:rgb(0%,0%,0%);fill-opacity:1;" d="M 101.101563 9.75 C 100.183594 10.820313 98.382813 12.378906 96.816406 13.273438 L 100.191406 15.222656 C 100.183594 13.417969 100.632813 11.078125 101.101563 9.75 "/>
<path xmlns="http://www.w3.org/2000/svg" style="fill:none;stroke-width:0.79701;stroke-linecap:butt;stroke-linejoin:miter;stroke:rgb(0%,0%,0%);stroke-opacity:1;stroke-miterlimit:10;" d="M 208.980687 294.0305 L 177.043187 262.096906 " transform="matrix(1,0,0,-1,-66.426,302.968)"/>
<path xmlns="http://www.w3.org/2000/svg" style=" stroke:none;fill-rule:nonzero;fill:rgb(0%,0%,0%);fill-opacity:1;" d="M 107.320313 44.167969 C 108.480469 43.375 110.617188 42.335938 112.359375 41.878906 L 109.609375 39.132813 C 109.152344 40.871094 108.117188 43.007813 107.320313 44.167969 "/>
<path xmlns="http://www.w3.org/2000/svg" style="fill:none;stroke-width:0.79701;stroke-linecap:butt;stroke-linejoin:miter;stroke:rgb(0%,0%,0%);stroke-opacity:1;stroke-miterlimit:10;" d="M 258.801 294.038312 L 290.7385 262.096906 " transform="matrix(1,0,0,-1,-66.426,302.968)"/>
<path xmlns="http://www.w3.org/2000/svg" style=" stroke:none;fill-rule:nonzero;fill:rgb(0%,0%,0%);fill-opacity:1;" d="M 227.609375 44.167969 C 226.816406 43.007813 225.777344 40.871094 225.320313 39.132813 L 222.574219 41.878906 C 224.3125 42.335938 226.449219 43.375 227.609375 44.167969 "/>
<path xmlns="http://www.w3.org/2000/svg" style="fill:none;stroke-width:0.79701;stroke-linecap:butt;stroke-linejoin:miter;stroke:rgb(0%,0%,0%);stroke-opacity:1;stroke-miterlimit:10;" d="M 302.285375 295.378156 L 373.968969 259.534406 " transform="matrix(1,0,0,-1,-66.426,302.968)"/>
<path xmlns="http://www.w3.org/2000/svg" style=" stroke:none;fill-rule:nonzero;fill:rgb(0%,0%,0%);fill-opacity:1;" d="M 311.710938 45.519531 C 310.59375 44.667969 308.933594 42.96875 307.949219 41.464844 L 306.210938 44.9375 C 308.007813 44.824219 310.359375 45.132813 311.710938 45.519531 "/>
<path xmlns="http://www.w3.org/2000/svg" style="fill:none;stroke-width:0.79701;stroke-linecap:butt;stroke-linejoin:miter;stroke:rgb(0%,0%,0%);stroke-opacity:1;stroke-miterlimit:10;" d="M 343.851781 294.038312 L 375.793187 262.096906 " transform="matrix(1,0,0,-1,-66.426,302.968)"/>
<path xmlns="http://www.w3.org/2000/svg" style=" stroke:none;fill-rule:nonzero;fill:rgb(0%,0%,0%);fill-opacity:1;" d="M 312.664063 44.167969 C 311.867188 43.007813 310.832031 40.871094 310.371094 39.132813 L 307.625 41.878906 C 309.367188 42.335938 311.503906 43.375 312.664063 44.167969 "/>
<path xmlns="http://www.w3.org/2000/svg" style="fill:none;stroke-width:0.79701;stroke-linecap:butt;stroke-linejoin:miter;stroke:rgb(0%,0%,0%);stroke-opacity:1;stroke-miterlimit:10;" d="M 382.734594 292.546125 L 382.734594 264.948469 " transform="matrix(1,0,0,-1,-66.426,302.968)"/>
<path xmlns="http://www.w3.org/2000/svg" style=" stroke:none;fill-rule:nonzero;fill:rgb(0%,0%,0%);fill-opacity:1;" d="M 316.308594 42.683594 C 316.566406 41.300781 317.34375 39.058594 318.25 37.503906 L 314.367188 37.503906 C 315.273438 39.058594 316.050781 41.300781 316.308594 42.683594 "/>
<path xmlns="http://www.w3.org/2000/svg" style="fill:none;stroke-width:0.79701;stroke-linecap:butt;stroke-linejoin:miter;stroke:rgb(0%,0%,0%);stroke-opacity:1;stroke-miterlimit:10;" d="M 421.609594 294.0305 L 389.672094 262.093 " transform="matrix(1,0,0,-1,-66.426,302.968)"/>
<path xmlns="http://www.w3.org/2000/svg" style=" stroke:none;fill-rule:nonzero;fill:rgb(0%,0%,0%);fill-opacity:1;" d="M 319.949219 44.171875 C 321.109375 43.375 323.246094 42.339844 324.984375 41.878906 L 322.238281 39.132813 C 321.78125 40.875 320.742188 43.011719 319.949219 44.171875 "/>
<path xmlns="http://www.w3.org/2000/svg" style="fill:none;stroke-width:0.79701;stroke-linecap:butt;stroke-linejoin:miter;stroke:rgb(0%,0%,0%);stroke-opacity:1;stroke-miterlimit:10;" d="M 464.926 293.393781 L 388.179906 178.276594 " transform="matrix(1,0,0,-1,-66.426,302.968)"/>
<path xmlns="http://www.w3.org/2000/svg" style=" stroke:none;fill-rule:nonzero;fill:rgb(0%,0%,0%);fill-opacity:1;" d="M 319.160156 128.582031 C 320.144531 127.574219 322.042969 126.132813 323.664063 125.339844 L 320.421875 123.179688 C 320.3125 124.980469 319.710938 127.285156 319.160156 128.582031 "/>
<path xmlns="http://www.w3.org/2000/svg" style="fill:none;stroke-width:0.79701;stroke-linecap:butt;stroke-linejoin:miter;stroke:rgb(0%,0%,0%);stroke-opacity:1;stroke-miterlimit:10;" d="M 510.312719 292.546125 L 510.312719 264.948469 " transform="matrix(1,0,0,-1,-66.426,302.968)"/>
<path xmlns="http://www.w3.org/2000/svg" style=" stroke:none;fill-rule:nonzero;fill:rgb(0%,0%,0%);fill-opacity:1;" d="M 443.886719 42.683594 C 444.144531 41.300781 444.921875 39.058594 445.828125 37.503906 L 441.945313 37.503906 C 442.851563 39.058594 443.628906 41.300781 443.886719 42.683594 "/>
<path xmlns="http://www.w3.org/2000/svg" style="fill:none;stroke-width:0.79701;stroke-linecap:butt;stroke-linejoin:miter;stroke:rgb(0%,0%,0%);stroke-opacity:1;stroke-miterlimit:10;" d="M 89.508031 257.729719 C 112.668188 271.096906 110.828344 240.268781 93.558813 250.245344 " transform="matrix(1,0,0,-1,-66.426,302.968)"/>
<path xmlns="http://www.w3.org/2000/svg" style=" stroke:none;fill-rule:nonzero;fill:rgb(0%,0%,0%);fill-opacity:1;" d="M 23.082031 50.382813 C 24.152344 51.300781 25.714844 53.101563 26.609375 54.671875 L 28.558594 51.296875 C 26.753906 51.300781 24.414063 50.851563 23.082031 50.382813 "/>
<path xmlns="http://www.w3.org/2000/svg" style="fill:none;stroke-width:0.79701;stroke-linecap:butt;stroke-linejoin:miter;stroke:rgb(0%,0%,0%);stroke-opacity:1;stroke-miterlimit:10;" d="M 129.871312 250.56175 L 165.715062 178.878156 " transform="matrix(1,0,0,-1,-66.426,302.968)"/>
<path xmlns="http://www.w3.org/2000/svg" style=" stroke:none;fill-rule:nonzero;fill:rgb(0%,0%,0%);fill-opacity:1;" d="M 101.375 128.257813 C 100.988281 126.90625 100.679688 124.550781 100.792969 122.753906 L 97.320313 124.492188 C 98.824219 125.476563 100.523438 127.136719 101.375 128.257813 "/>
<path xmlns="http://www.w3.org/2000/svg" style="fill:none;stroke-width:0.79701;stroke-linecap:butt;stroke-linejoin:miter;stroke:rgb(0%,0%,0%);stroke-opacity:1;stroke-miterlimit:10;" d="M 174.711156 252.850812 L 246.390844 217.010969 " transform="matrix(1,0,0,-1,-66.426,302.968)"/>
<path xmlns="http://www.w3.org/2000/svg" style=" stroke:none;fill-rule:nonzero;fill:rgb(0%,0%,0%);fill-opacity:1;" d="M 184.136719 88.042969 C 183.015625 87.195313 181.355469 85.496094 180.371094 83.988281 L 178.632813 87.464844 C 180.429688 87.347656 182.785156 87.65625 184.136719 88.042969 "/>
<path xmlns="http://www.w3.org/2000/svg" style="fill:none;stroke-width:0.79701;stroke-linecap:butt;stroke-linejoin:miter;stroke:rgb(0%,0%,0%);stroke-opacity:1;stroke-miterlimit:10;" d="M 217.234594 252.850812 L 288.918187 217.010969 " transform="matrix(1,0,0,-1,-66.426,302.968)"/>
<path xmlns="http://www.w3.org/2000/svg" style=" stroke:none;fill-rule:nonzero;fill:rgb(0%,0%,0%);fill-opacity:1;" d="M 226.660156 88.042969 C 225.542969 87.195313 223.882813 85.496094 222.898438 83.988281 L 221.160156 87.464844 C 222.953125 87.347656 225.308594 87.65625 226.660156 88.042969 "/>
<path xmlns="http://www.w3.org/2000/svg" style="fill:none;stroke-width:0.79701;stroke-linecap:butt;stroke-linejoin:miter;stroke:rgb(0%,0%,0%);stroke-opacity:1;stroke-miterlimit:10;" d="M 258.801 251.510969 L 290.7385 219.569562 " transform="matrix(1,0,0,-1,-66.426,302.968)"/>
<path xmlns="http://www.w3.org/2000/svg" style=" stroke:none;fill-rule:nonzero;fill:rgb(0%,0%,0%);fill-opacity:1;" d="M 227.609375 86.695313 C 226.816406 85.535156 225.777344 83.398438 225.320313 81.65625 L 222.574219 84.40625 C 224.3125 84.863281 226.449219 85.902344 227.609375 86.695313 "/>
<path xmlns="http://www.w3.org/2000/svg" style="fill:none;stroke-width:0.79701;stroke-linecap:butt;stroke-linejoin:miter;stroke:rgb(0%,0%,0%);stroke-opacity:1;stroke-miterlimit:10;" d="M 300.254125 250.694562 C 315.101781 224.983625 315.097875 200.272687 302.590062 178.608625 " transform="matrix(1,0,0,-1,-66.426,302.968)"/>
<path xmlns="http://www.w3.org/2000/svg" style=" stroke:none;fill-rule:nonzero;fill:rgb(0%,0%,0%);fill-opacity:1;" d="M 233.828125 128.40625 C 234.746094 127.335938 236.546875 125.777344 238.113281 124.882813 L 234.738281 122.933594 C 234.746094 124.738281 234.296875 127.078125 233.828125 128.40625 "/>
<path xmlns="http://www.w3.org/2000/svg" style="fill:none;stroke-width:0.79701;stroke-linecap:butt;stroke-linejoin:miter;stroke:rgb(0%,0%,0%);stroke-opacity:1;stroke-miterlimit:10;" d="M 345.336156 255.1555 L 372.933812 255.1555 " transform="matrix(1,0,0,-1,-66.426,302.968)"/>
<path xmlns="http://www.w3.org/2000/svg" style=" stroke:none;fill-rule:nonzero;fill:rgb(0%,0%,0%);fill-opacity:1;" d="M 311.171875 47.8125 C 309.789063 47.554688 307.542969 46.777344 305.992188 45.867188 L 305.992188 49.753906 C 307.542969 48.847656 309.789063 48.070313 311.171875 47.8125 "/>
<path xmlns="http://www.w3.org/2000/svg" style="fill:none;stroke-width:0.79701;stroke-linecap:butt;stroke-linejoin:miter;stroke:rgb(0%,0%,0%);stroke-opacity:1;stroke-miterlimit:10;" d="M 387.187719 252.589094 C 410.347875 239.206281 382.726781 225.389875 382.734594 245.358625 " transform="matrix(1,0,0,-1,-66.426,302.968)"/>
<path xmlns="http://www.w3.org/2000/svg" style=" stroke:none;fill-rule:nonzero;fill:rgb(0%,0%,0%);fill-opacity:1;" d="M 316.3125 52.945313 C 316.050781 54.328125 315.273438 56.574219 314.367188 58.128906 L 318.25 58.128906 C 317.34375 56.574219 316.570313 54.328125 316.3125 52.945313 "/>
<path xmlns="http://www.w3.org/2000/svg" style="fill:none;stroke-width:0.79701;stroke-linecap:butt;stroke-linejoin:miter;stroke:rgb(0%,0%,0%);stroke-opacity:1;stroke-miterlimit:10;" d="M 420.121312 255.1555 L 392.523656 255.1555 " transform="matrix(1,0,0,-1,-66.426,302.968)"/>
<path xmlns="http://www.w3.org/2000/svg" style=" stroke:none;fill-rule:nonzero;fill:rgb(0%,0%,0%);fill-opacity:1;" d="M 321.433594 47.8125 C 322.816406 48.070313 325.0625 48.847656 326.613281 49.753906 L 326.613281 45.867188 C 325.0625 46.777344 322.816406 47.554688 321.433594 47.8125 "/>
<path xmlns="http://www.w3.org/2000/svg" style="fill:none;stroke-width:0.79701;stroke-linecap:butt;stroke-linejoin:miter;stroke:rgb(0%,0%,0%);stroke-opacity:1;stroke-miterlimit:10;" d="M 467.789281 250.022687 L 467.785375 222.421125 " transform="matrix(1,0,0,-1,-66.426,302.968)"/>
<path xmlns="http://www.w3.org/2000/svg" style=" stroke:none;fill-rule:nonzero;fill:rgb(0%,0%,0%);fill-opacity:1;" d="M 401.359375 85.210938 C 401.621094 83.828125 402.398438 81.582031 403.304688 80.027344 L 399.417969 80.027344 C 400.324219 81.582031 401.101563 83.828125 401.359375 85.210938 "/>
<path xmlns="http://www.w3.org/2000/svg" style="fill:none;stroke-width:0.79701;stroke-linecap:butt;stroke-linejoin:miter;stroke:rgb(0%,0%,0%);stroke-opacity:1;stroke-miterlimit:10;" d="M 510.312719 250.022687 L 510.312719 222.421125 " transform="matrix(1,0,0,-1,-66.426,302.968)"/>
<path xmlns="http://www.w3.org/2000/svg" style=" stroke:none;fill-rule:nonzero;fill:rgb(0%,0%,0%);fill-opacity:1;" d="M 443.886719 85.210938 C 444.144531 83.828125 444.921875 81.582031 445.828125 80.027344 L 441.945313 80.027344 C 442.851563 81.582031 443.628906 83.828125 443.886719 85.210938 "/>
<path xmlns="http://www.w3.org/2000/svg" style="fill:none;stroke-width:0.79701;stroke-linecap:butt;stroke-linejoin:miter;stroke:rgb(0%,0%,0%);stroke-opacity:1;stroke-miterlimit:10;" d="M 88.699438 208.983625 L 120.636938 177.046125 " transform="matrix(1,0,0,-1,-66.426,302.968)"/>
<path xmlns="http://www.w3.org/2000/svg" style=" stroke:none;fill-rule:nonzero;fill:rgb(0%,0%,0%);fill-opacity:1;" d="M 57.507813 129.21875 C 56.710938 128.058594 55.675781 125.921875 55.214844 124.183594 L 52.46875 126.929688 C 54.210938 127.386719 56.347656 128.425781 57.507813 129.21875 "/>
<path xmlns="http://www.w3.org/2000/svg" style="fill:none;stroke-width:0.79701;stroke-linecap:butt;stroke-linejoin:miter;stroke:rgb(0%,0%,0%);stroke-opacity:1;stroke-miterlimit:10;" d="M 127.578344 207.495344 L 127.578344 179.893781 " transform="matrix(1,0,0,-1,-66.426,302.968)"/>
<path xmlns="http://www.w3.org/2000/svg" style=" stroke:none;fill-rule:nonzero;fill:rgb(0%,0%,0%);fill-opacity:1;" d="M 61.152344 127.734375 C 61.410156 126.351563 62.1875 124.109375 63.09375 122.554688 L 59.210938 122.554688 C 60.117188 124.109375 60.894531 126.351563 61.152344 127.734375 "/>
<path xmlns="http://www.w3.org/2000/svg" style="fill:none;stroke-width:0.79701;stroke-linecap:butt;stroke-linejoin:miter;stroke:rgb(0%,0%,0%);stroke-opacity:1;stroke-miterlimit:10;" d="M 170.105687 207.495344 L 170.105687 179.893781 " transform="matrix(1,0,0,-1,-66.426,302.968)"/>
<path xmlns="http://www.w3.org/2000/svg" style=" stroke:none;fill-rule:nonzero;fill:rgb(0%,0%,0%);fill-opacity:1;" d="M 103.679688 127.734375 C 103.9375 126.351563 104.714844 124.109375 105.621094 122.554688 L 101.734375 122.554688 C 102.640625 124.109375 103.417969 126.351563 103.679688 127.734375 "/>
<path xmlns="http://www.w3.org/2000/svg" style="fill:none;stroke-width:0.79701;stroke-linecap:butt;stroke-linejoin:miter;stroke:rgb(0%,0%,0%);stroke-opacity:1;stroke-miterlimit:10;" d="M 216.273656 208.983625 L 248.215062 177.046125 " transform="matrix(1,0,0,-1,-66.426,302.968)"/>
<path xmlns="http://www.w3.org/2000/svg" style=" stroke:none;fill-rule:nonzero;fill:rgb(0%,0%,0%);fill-opacity:1;" d="M 185.082031 129.21875 C 184.289063 128.058594 183.253906 125.921875 182.792969 124.183594 L 180.046875 126.929688 C 181.789063 127.386719 183.925781 128.425781 185.082031 129.21875 "/>
<path xmlns="http://www.w3.org/2000/svg" style="fill:none;stroke-width:0.79701;stroke-linecap:butt;stroke-linejoin:miter;stroke:rgb(0%,0%,0%);stroke-opacity:1;stroke-miterlimit:10;" d="M 258.801 208.987531 L 290.7385 177.046125 " transform="matrix(1,0,0,-1,-66.426,302.968)"/>
<path xmlns="http://www.w3.org/2000/svg" style=" stroke:none;fill-rule:nonzero;fill:rgb(0%,0%,0%);fill-opacity:1;" d="M 227.609375 129.21875 C 226.816406 128.058594 225.777344 125.921875 225.320313 124.183594 L 222.574219 126.929688 C 224.3125 127.386719 226.449219 128.425781 227.609375 129.21875 "/>
<path xmlns="http://www.w3.org/2000/svg" style="fill:none;stroke-width:0.79701;stroke-linecap:butt;stroke-linejoin:miter;stroke:rgb(0%,0%,0%);stroke-opacity:1;stroke-miterlimit:10;" d="M 297.683812 207.495344 L 297.683812 179.893781 " transform="matrix(1,0,0,-1,-66.426,302.968)"/>
<path xmlns="http://www.w3.org/2000/svg" style=" stroke:none;fill-rule:nonzero;fill:rgb(0%,0%,0%);fill-opacity:1;" d="M 231.257813 127.734375 C 231.515625 126.351563 232.292969 124.109375 233.199219 122.554688 L 229.3125 122.554688 C 230.21875 124.109375 230.996094 126.351563 231.257813 127.734375 "/>
<path xmlns="http://www.w3.org/2000/svg" style="fill:none;stroke-width:0.79701;stroke-linecap:butt;stroke-linejoin:miter;stroke:rgb(0%,0%,0%);stroke-opacity:1;stroke-miterlimit:10;" d="M 343.851781 216.272687 L 375.785375 248.210187 " transform="matrix(1,0,0,-1,-66.426,302.968)"/>
<path xmlns="http://www.w3.org/2000/svg" style=" stroke:none;fill-rule:nonzero;fill:rgb(0%,0%,0%);fill-opacity:1;" d="M 312.65625 51.460938 C 311.496094 52.257813 309.359375 53.292969 307.621094 53.75 L 310.367188 56.5 C 310.824219 54.757813 311.863281 52.621094 312.65625 51.460938 "/>
<path xmlns="http://www.w3.org/2000/svg" style="fill:none;stroke-width:0.79701;stroke-linecap:butt;stroke-linejoin:miter;stroke:rgb(0%,0%,0%);stroke-opacity:1;stroke-miterlimit:10;" d="M 382.734594 207.495344 L 382.734594 179.893781 " transform="matrix(1,0,0,-1,-66.426,302.968)"/>
<path xmlns="http://www.w3.org/2000/svg" style=" stroke:none;fill-rule:nonzero;fill:rgb(0%,0%,0%);fill-opacity:1;" d="M 316.308594 127.734375 C 316.566406 126.351563 317.34375 124.109375 318.25 122.554688 L 314.367188 122.554688 C 315.273438 124.109375 316.050781 126.351563 316.308594 127.734375 "/>
<path xmlns="http://www.w3.org/2000/svg" style="fill:none;stroke-width:0.79701;stroke-linecap:butt;stroke-linejoin:miter;stroke:rgb(0%,0%,0%);stroke-opacity:1;stroke-miterlimit:10;" d="M 425.261937 207.495344 L 425.261937 179.893781 " transform="matrix(1,0,0,-1,-66.426,302.968)"/>
<path xmlns="http://www.w3.org/2000/svg" style=" stroke:none;fill-rule:nonzero;fill:rgb(0%,0%,0%);fill-opacity:1;" d="M 358.835938 127.734375 C 359.09375 126.351563 359.871094 124.109375 360.777344 122.554688 L 356.890625 122.554688 C 357.796875 124.109375 358.574219 126.351563 358.835938 127.734375 "/>
<path xmlns="http://www.w3.org/2000/svg" style="fill:none;stroke-width:0.79701;stroke-linecap:butt;stroke-linejoin:miter;stroke:rgb(0%,0%,0%);stroke-opacity:1;stroke-miterlimit:10;" d="M 471.426 208.987531 L 503.351781 177.06175 " transform="matrix(1,0,0,-1,-66.426,302.968)"/>
<path xmlns="http://www.w3.org/2000/svg" style=" stroke:none;fill-rule:nonzero;fill:rgb(0%,0%,0%);fill-opacity:1;" d="M 440.238281 129.21875 C 439.441406 128.054688 438.398438 125.90625 437.9375 124.15625 L 435.175781 126.917969 C 436.925781 127.378906 439.074219 128.421875 440.238281 129.21875 "/>
<path xmlns="http://www.w3.org/2000/svg" style="fill:none;stroke-width:0.79701;stroke-linecap:butt;stroke-linejoin:miter;stroke:rgb(0%,0%,0%);stroke-opacity:1;stroke-miterlimit:10;" d="M 510.312719 207.495344 L 510.312719 179.893781 " transform="matrix(1,0,0,-1,-66.426,302.968)"/>
<path xmlns="http://www.w3.org/2000/svg" style=" stroke:none;fill-rule:nonzero;fill:rgb(0%,0%,0%);fill-opacity:1;" d="M 443.886719 127.734375 C 444.144531 126.351563 444.921875 124.109375 445.828125 122.554688 L 441.945313 122.554688 C 442.851563 124.109375 443.628906 126.351563 443.886719 127.734375 "/>
<path xmlns="http://www.w3.org/2000/svg" style="fill:none;stroke-width:0.79701;stroke-linecap:butt;stroke-linejoin:miter;stroke:rgb(0%,0%,0%);stroke-opacity:1;stroke-miterlimit:10;" d="M 89.922094 168.479719 L 203.324437 130.678937 " transform="matrix(1,0,0,-1,-66.426,302.968)"/>
<path xmlns="http://www.w3.org/2000/svg" style=" stroke:none;fill-rule:nonzero;fill:rgb(0%,0%,0%);fill-opacity:1;" d="M 141.328125 173.765625 C 140.097656 173.082031 138.210938 171.632813 137.023438 170.28125 L 135.792969 173.972656 C 137.554688 173.601563 139.933594 173.574219 141.328125 173.765625 "/>
<path xmlns="http://www.w3.org/2000/svg" style="fill:none;stroke-width:0.79701;stroke-linecap:butt;stroke-linejoin:miter;stroke:rgb(0%,0%,0%);stroke-opacity:1;stroke-miterlimit:10;" d="M 135.816625 170.104719 L 161.8635 170.104719 " transform="matrix(1,0,0,-1,-66.426,302.968)"/>
<path xmlns="http://www.w3.org/2000/svg" style=" stroke:none;fill-rule:nonzero;fill:rgb(0%,0%,0%);fill-opacity:1;" d="M 66.28125 132.863281 C 67.578125 133.121094 69.910156 133.640625 71.460938 134.804688 C 70.167969 133.382813 70.167969 132.34375 71.460938 130.921875 C 69.910156 132.085938 67.578125 132.605469 66.28125 132.863281 Z M 66.28125 132.863281 "/>
<path xmlns="http://www.w3.org/2000/svg" style=" stroke:none;fill-rule:nonzero;fill:rgb(0%,0%,0%);fill-opacity:1;" d="M 98.542969 132.863281 C 97.25 132.605469 94.917969 132.085938 93.363281 130.921875 C 94.660156 132.347656 94.660156 133.382813 93.363281 134.808594 C 94.917969 133.640625 97.25 133.121094 98.542969 132.863281 Z M 98.542969 132.863281 "/>
<path xmlns="http://www.w3.org/2000/svg" style="fill:none;stroke-width:0.79701;stroke-linecap:butt;stroke-linejoin:miter;stroke:rgb(0%,0%,0%);stroke-opacity:1;stroke-miterlimit:10;" d="M 208.980687 166.456281 L 177.047094 134.518781 " transform="matrix(1,0,0,-1,-66.426,302.968)"/>
<path xmlns="http://www.w3.org/2000/svg" style=" stroke:none;fill-rule:nonzero;fill:rgb(0%,0%,0%);fill-opacity:1;" d="M 107.324219 171.746094 C 108.480469 170.953125 110.621094 169.914063 112.359375 169.457031 L 109.613281 166.707031 C 109.152344 168.449219 108.117188 170.585938 107.324219 171.746094 "/>
<path xmlns="http://www.w3.org/2000/svg" style="fill:none;stroke-width:0.79701;stroke-linecap:butt;stroke-linejoin:miter;stroke:rgb(0%,0%,0%);stroke-opacity:1;stroke-miterlimit:10;" d="M 259.761937 167.800031 L 331.441625 131.960187 " transform="matrix(1,0,0,-1,-66.426,302.968)"/>
<path xmlns="http://www.w3.org/2000/svg" style=" stroke:none;fill-rule:nonzero;fill:rgb(0%,0%,0%);fill-opacity:1;" d="M 269.1875 173.09375 C 268.066406 172.246094 266.40625 170.546875 265.421875 169.039063 L 263.683594 172.515625 C 265.480469 172.398438 267.835938 172.707031 269.1875 173.09375 "/>
<path xmlns="http://www.w3.org/2000/svg" style="fill:none;stroke-width:0.79701;stroke-linecap:butt;stroke-linejoin:miter;stroke:rgb(0%,0%,0%);stroke-opacity:1;stroke-miterlimit:10;" d="M 293.218969 172.678937 C 253.14475 195.815656 214.633031 195.81175 178.609594 175.014875 " transform="matrix(1,0,0,-1,-66.426,302.968)"/>
<path xmlns="http://www.w3.org/2000/svg" style=" stroke:none;fill-rule:nonzero;fill:rgb(0%,0%,0%);fill-opacity:1;" d="M 108.132813 130.292969 C 109.464844 129.824219 111.804688 129.375 113.609375 129.382813 L 111.660156 126.003906 C 110.765625 127.574219 109.203125 129.375 108.132813 130.292969 "/>
<path xmlns="http://www.w3.org/2000/svg" style="fill:none;stroke-width:0.79701;stroke-linecap:butt;stroke-linejoin:miter;stroke:rgb(0%,0%,0%);stroke-opacity:1;stroke-miterlimit:10;" d="M 342.500219 174.690656 L 378.340062 246.37425 " transform="matrix(1,0,0,-1,-66.426,302.968)"/>
<path xmlns="http://www.w3.org/2000/svg" style=" stroke:none;fill-rule:nonzero;fill:rgb(0%,0%,0%);fill-opacity:1;" d="M 314 52.421875 C 313.152344 53.542969 311.453125 55.203125 309.945313 56.1875 L 313.421875 57.925781 C 313.304688 56.128906 313.613281 53.773438 314 52.421875 "/>
<path xmlns="http://www.w3.org/2000/svg" style="fill:none;stroke-width:0.79701;stroke-linecap:butt;stroke-linejoin:miter;stroke:rgb(0%,0%,0%);stroke-opacity:1;stroke-miterlimit:10;" d="M 387.336156 172.4055 L 459.01975 208.245344 " transform="matrix(1,0,0,-1,-66.426,302.968)"/>
<path xmlns="http://www.w3.org/2000/svg" style=" stroke:none;fill-rule:nonzero;fill:rgb(0%,0%,0%);fill-opacity:1;" d="M 396.761719 92.636719 C 395.410156 93.023438 393.058594 93.332031 391.261719 93.214844 L 393 96.691406 C 393.984375 95.183594 395.644531 93.484375 396.761719 92.636719 "/>
<path xmlns="http://www.w3.org/2000/svg" style="fill:none;stroke-width:0.79701;stroke-linecap:butt;stroke-linejoin:miter;stroke:rgb(0%,0%,0%);stroke-opacity:1;stroke-miterlimit:10;" d="M 420.664281 167.807844 L 348.980687 131.964094 " transform="matrix(1,0,0,-1,-66.426,302.968)"/>
<path xmlns="http://www.w3.org/2000/svg" style=" stroke:none;fill-rule:nonzero;fill:rgb(0%,0%,0%);fill-opacity:1;" d="M 278.386719 173.089844 C 279.738281 172.703125 282.09375 172.394531 283.886719 172.507813 L 282.148438 169.035156 C 281.164063 170.539063 279.503906 172.238281 278.386719 173.089844 "/>
<path xmlns="http://www.w3.org/2000/svg" style="fill:none;stroke-width:0.79701;stroke-linecap:butt;stroke-linejoin:miter;stroke:rgb(0%,0%,0%);stroke-opacity:1;stroke-miterlimit:10;" d="M 464.136937 166.456281 L 432.199437 134.518781 " transform="matrix(1,0,0,-1,-66.426,302.968)"/>
<path xmlns="http://www.w3.org/2000/svg" style=" stroke:none;fill-rule:nonzero;fill:rgb(0%,0%,0%);fill-opacity:1;" d="M 362.476563 171.746094 C 363.636719 170.953125 365.773438 169.917969 367.511719 169.457031 L 364.765625 166.710938 C 364.304688 168.449219 363.269531 170.589844 362.476563 171.746094 "/>
<path xmlns="http://www.w3.org/2000/svg" style="fill:none;stroke-width:0.79701;stroke-linecap:butt;stroke-linejoin:miter;stroke:rgb(0%,0%,0%);stroke-opacity:1;stroke-miterlimit:10;" d="M 508.683812 174.975812 L 470.883031 288.378156 " transform="matrix(1,0,0,-1,-66.426,302.968)"/>
<path xmlns="http://www.w3.org/2000/svg" style=" stroke:none;fill-rule:nonzero;fill:rgb(0%,0%,0%);fill-opacity:1;" d="M 402.980469 10.164063 C 403.171875 11.558594 403.144531 13.933594 402.773438 15.699219 L 406.464844 14.46875 C 405.113281 13.277344 403.664063 11.394531 402.980469 10.164063 "/>
<path xmlns="http://www.w3.org/2000/svg" style="fill:none;stroke-width:0.79701;stroke-linecap:butt;stroke-linejoin:miter;stroke:rgb(0%,0%,0%);stroke-opacity:1;stroke-miterlimit:10;" d="M 90.183813 127.577375 L 117.781469 127.577375 " transform="matrix(1,0,0,-1,-66.426,302.968)"/>
<path xmlns="http://www.w3.org/2000/svg" style=" stroke:none;fill-rule:nonzero;fill:rgb(0%,0%,0%);fill-opacity:1;" d="M 56.019531 175.390625 C 54.636719 175.132813 52.390625 174.355469 50.839844 173.449219 L 50.839844 177.332031 C 52.390625 176.425781 54.636719 175.648438 56.019531 175.390625 "/>
<path xmlns="http://www.w3.org/2000/svg" style="fill:none;stroke-width:0.79701;stroke-linecap:butt;stroke-linejoin:miter;stroke:rgb(0%,0%,0%);stroke-opacity:1;stroke-miterlimit:10;" d="M 131.203344 131.206281 L 163.176 163.175031 " transform="matrix(1,0,0,-1,-66.426,302.968)"/>
<path xmlns="http://www.w3.org/2000/svg" style=" stroke:none;fill-rule:nonzero;fill:rgb(0%,0%,0%);fill-opacity:1;" d="M 100.046875 136.496094 C 98.886719 137.289063 96.75 138.328125 95.011719 138.785156 L 97.757813 141.53125 C 98.214844 139.792969 99.253906 137.65625 100.046875 136.496094 "/>
<path xmlns="http://www.w3.org/2000/svg" style="fill:none;stroke-width:0.79701;stroke-linecap:butt;stroke-linejoin:miter;stroke:rgb(0%,0%,0%);stroke-opacity:1;stroke-miterlimit:10;" d="M 164.968969 127.577375 L 137.371312 127.577375 " transform="matrix(1,0,0,-1,-66.426,302.968)"/>
<path xmlns="http://www.w3.org/2000/svg" style=" stroke:none;fill-rule:nonzero;fill:rgb(0%,0%,0%);fill-opacity:1;" d="M 66.28125 175.390625 C 67.664063 175.648438 69.910156 176.425781 71.460938 177.332031 L 71.460938 173.449219 C 69.910156 174.355469 67.664063 175.132813 66.28125 175.390625 "/>
<path xmlns="http://www.w3.org/2000/svg" style="fill:none;stroke-width:0.79701;stroke-linecap:butt;stroke-linejoin:miter;stroke:rgb(0%,0%,0%);stroke-opacity:1;stroke-miterlimit:10;" d="M 217.500219 129.202375 L 330.902562 167.003156 " transform="matrix(1,0,0,-1,-66.426,302.968)"/>
<path xmlns="http://www.w3.org/2000/svg" style=" stroke:none;fill-rule:nonzero;fill:rgb(0%,0%,0%);fill-opacity:1;" d="M 268.902344 134.492188 C 267.511719 134.683594 265.132813 134.65625 263.371094 134.285156 L 264.597656 137.976563 C 265.789063 136.621094 267.675781 135.171875 268.902344 134.492188 "/>
<path xmlns="http://www.w3.org/2000/svg" style="fill:none;stroke-width:0.79701;stroke-linecap:butt;stroke-linejoin:miter;stroke:rgb(0%,0%,0%);stroke-opacity:1;stroke-miterlimit:10;" d="M 255.156469 132.706281 L 255.156469 160.307844 " transform="matrix(1,0,0,-1,-66.426,302.968)"/>
<path xmlns="http://www.w3.org/2000/svg" style=" stroke:none;fill-rule:nonzero;fill:rgb(0%,0%,0%);fill-opacity:1;" d="M 188.730469 138 C 188.472656 139.378906 187.695313 141.625 186.789063 143.179688 L 190.671875 143.179688 C 189.765625 141.625 188.988281 139.378906 188.730469 138 "/>
<path xmlns="http://www.w3.org/2000/svg" style="fill:none;stroke-width:0.79701;stroke-linecap:butt;stroke-linejoin:miter;stroke:rgb(0%,0%,0%);stroke-opacity:1;stroke-miterlimit:10;" d="M 302.808812 127.577375 L 330.410375 127.577375 " transform="matrix(1,0,0,-1,-66.426,302.968)"/>
<path xmlns="http://www.w3.org/2000/svg" style=" stroke:none;fill-rule:nonzero;fill:rgb(0%,0%,0%);fill-opacity:1;" d="M 268.644531 175.390625 C 267.265625 175.132813 265.019531 174.355469 263.464844 173.449219 L 263.464844 177.332031 C 265.019531 176.425781 267.265625 175.648438 268.644531 175.390625 "/>
<path xmlns="http://www.w3.org/2000/svg" style="fill:none;stroke-width:0.79701;stroke-linecap:butt;stroke-linejoin:miter;stroke:rgb(0%,0%,0%);stroke-opacity:1;stroke-miterlimit:10;" d="M 340.211156 132.706281 L 340.20725 160.307844 " transform="matrix(1,0,0,-1,-66.426,302.968)"/>
<path xmlns="http://www.w3.org/2000/svg" style=" stroke:none;fill-rule:nonzero;fill:rgb(0%,0%,0%);fill-opacity:1;" d="M 273.78125 138 C 273.523438 139.378906 272.746094 141.625 271.839844 143.179688 L 275.726563 143.179688 C 274.816406 141.625 274.042969 139.378906 273.78125 138 "/>
<path xmlns="http://www.w3.org/2000/svg" style="fill:none;stroke-width:0.79701;stroke-linecap:butt;stroke-linejoin:miter;stroke:rgb(0%,0%,0%);stroke-opacity:1;stroke-miterlimit:10;" d="M 382.734594 132.706281 L 382.734594 160.307844 " transform="matrix(1,0,0,-1,-66.426,302.968)"/>
<path xmlns="http://www.w3.org/2000/svg" style=" stroke:none;fill-rule:nonzero;fill:rgb(0%,0%,0%);fill-opacity:1;" d="M 316.308594 138 C 316.050781 139.378906 315.273438 141.625 314.367188 143.179688 L 318.25 143.179688 C 317.34375 141.625 316.566406 139.378906 316.308594 138 "/>
<path xmlns="http://www.w3.org/2000/svg" style="fill:none;stroke-width:0.79701;stroke-linecap:butt;stroke-linejoin:miter;stroke:rgb(0%,0%,0%);stroke-opacity:1;stroke-miterlimit:10;" d="M 425.261937 122.444562 L 425.261937 94.843 " transform="matrix(1,0,0,-1,-66.426,302.968)"/>
<path xmlns="http://www.w3.org/2000/svg" style=" stroke:none;fill-rule:nonzero;fill:rgb(0%,0%,0%);fill-opacity:1;" d="M 358.835938 212.785156 C 359.09375 211.402344 359.871094 209.160156 360.777344 207.605469 L 356.890625 207.605469 C 357.796875 209.160156 358.574219 211.402344 358.835938 212.785156 "/>
<path xmlns="http://www.w3.org/2000/svg" style="fill:none;stroke-width:0.79701;stroke-linecap:butt;stroke-linejoin:miter;stroke:rgb(0%,0%,0%);stroke-opacity:1;stroke-miterlimit:10;" d="M 471.426 131.218 L 503.347875 163.139875 " transform="matrix(1,0,0,-1,-66.426,302.968)"/>
<path xmlns="http://www.w3.org/2000/svg" style=" stroke:none;fill-rule:nonzero;fill:rgb(0%,0%,0%);fill-opacity:1;" d="M 440.234375 136.511719 C 439.070313 137.3125 436.921875 138.355469 435.171875 138.8125 L 437.933594 141.574219 C 438.394531 139.828125 439.4375 137.679688 440.234375 136.511719 "/>
<path xmlns="http://www.w3.org/2000/svg" style="fill:none;stroke-width:0.79701;stroke-linecap:butt;stroke-linejoin:miter;stroke:rgb(0%,0%,0%);stroke-opacity:1;stroke-miterlimit:10;" d="M 510.312719 132.706281 L 510.312719 160.307844 " transform="matrix(1,0,0,-1,-66.426,302.968)"/>
<path xmlns="http://www.w3.org/2000/svg" style=" stroke:none;fill-rule:nonzero;fill:rgb(0%,0%,0%);fill-opacity:1;" d="M 443.886719 138 C 443.628906 139.378906 442.851563 141.625 441.945313 143.179688 L 445.828125 143.179688 C 444.921875 141.625 444.144531 139.378906 443.886719 138 "/>
<path xmlns="http://www.w3.org/2000/svg" style="fill:none;stroke-width:0.79701;stroke-linecap:butt;stroke-linejoin:miter;stroke:rgb(0%,0%,0%);stroke-opacity:1;stroke-miterlimit:10;" d="M 89.508031 87.62425 C 112.668188 100.995344 110.828344 70.167219 93.558813 80.139875 " transform="matrix(1,0,0,-1,-66.426,302.968)"/>
<path xmlns="http://www.w3.org/2000/svg" style=" stroke:none;fill-rule:nonzero;fill:rgb(0%,0%,0%);fill-opacity:1;" d="M 23.082031 220.488281 C 24.152344 221.40625 25.714844 223.207031 26.609375 224.773438 L 28.558594 221.398438 C 26.753906 221.40625 24.414063 220.957031 23.082031 220.488281 "/>
<path xmlns="http://www.w3.org/2000/svg" style="fill:none;stroke-width:0.79701;stroke-linecap:butt;stroke-linejoin:miter;stroke:rgb(0%,0%,0%);stroke-opacity:1;stroke-miterlimit:10;" d="M 131.222875 81.4055 L 163.160375 49.468 " transform="matrix(1,0,0,-1,-66.426,302.968)"/>
<path xmlns="http://www.w3.org/2000/svg" style=" stroke:none;fill-rule:nonzero;fill:rgb(0%,0%,0%);fill-opacity:1;" d="M 100.03125 256.796875 C 99.238281 255.636719 98.199219 253.5 97.742188 251.757813 L 94.992188 254.507813 C 96.734375 254.964844 98.871094 256.003906 100.03125 256.796875 "/>
<path xmlns="http://www.w3.org/2000/svg" style="fill:none;stroke-width:0.79701;stroke-linecap:butt;stroke-linejoin:miter;stroke:rgb(0%,0%,0%);stroke-opacity:1;stroke-miterlimit:10;" d="M 170.105687 79.917219 L 170.105687 52.319562 " transform="matrix(1,0,0,-1,-66.426,302.968)"/>
<path xmlns="http://www.w3.org/2000/svg" style=" stroke:none;fill-rule:nonzero;fill:rgb(0%,0%,0%);fill-opacity:1;" d="M 103.679688 255.3125 C 103.9375 253.929688 104.714844 251.683594 105.621094 250.128906 L 101.734375 250.128906 C 102.640625 251.683594 103.417969 253.929688 103.679688 255.3125 "/>
<path xmlns="http://www.w3.org/2000/svg" style="fill:none;stroke-width:0.79701;stroke-linecap:butt;stroke-linejoin:miter;stroke:rgb(0%,0%,0%);stroke-opacity:1;stroke-miterlimit:10;" d="M 208.980687 81.4055 L 177.047094 49.468 " transform="matrix(1,0,0,-1,-66.426,302.968)"/>
<path xmlns="http://www.w3.org/2000/svg" style=" stroke:none;fill-rule:nonzero;fill:rgb(0%,0%,0%);fill-opacity:1;" d="M 107.324219 256.796875 C 108.484375 256.003906 110.621094 254.964844 112.359375 254.507813 L 109.613281 251.761719 C 109.152344 253.5 108.117188 255.636719 107.324219 256.796875 "/>
<path xmlns="http://www.w3.org/2000/svg" style="fill:none;stroke-width:0.79701;stroke-linecap:butt;stroke-linejoin:miter;stroke:rgb(0%,0%,0%);stroke-opacity:1;stroke-miterlimit:10;" d="M 260.285375 85.053937 L 287.883031 85.050031 " transform="matrix(1,0,0,-1,-66.426,302.968)"/>
<path xmlns="http://www.w3.org/2000/svg" style=" stroke:none;fill-rule:nonzero;fill:rgb(0%,0%,0%);fill-opacity:1;" d="M 226.121094 217.917969 C 224.738281 217.65625 222.492188 216.878906 220.941406 215.972656 L 220.941406 219.859375 C 222.492188 218.953125 224.738281 218.175781 226.121094 217.917969 "/>
<path xmlns="http://www.w3.org/2000/svg" style="fill:none;stroke-width:0.79701;stroke-linecap:butt;stroke-linejoin:miter;stroke:rgb(0%,0%,0%);stroke-opacity:1;stroke-miterlimit:10;" d="M 301.324437 88.694562 L 333.261937 120.632062 " transform="matrix(1,0,0,-1,-66.426,302.968)"/>
<path xmlns="http://www.w3.org/2000/svg" style=" stroke:none;fill-rule:nonzero;fill:rgb(0%,0%,0%);fill-opacity:1;" d="M 270.132813 179.039063 C 268.972656 179.832031 266.835938 180.871094 265.09375 181.328125 L 267.84375 184.074219 C 268.300781 182.335938 269.339844 180.199219 270.132813 179.039063 "/>
<path xmlns="http://www.w3.org/2000/svg" style="fill:none;stroke-width:0.79701;stroke-linecap:butt;stroke-linejoin:miter;stroke:rgb(0%,0%,0%);stroke-opacity:1;stroke-miterlimit:10;" d="M 345.336156 85.053937 L 372.933812 85.050031 " transform="matrix(1,0,0,-1,-66.426,302.968)"/>
<path xmlns="http://www.w3.org/2000/svg" style=" stroke:none;fill-rule:nonzero;fill:rgb(0%,0%,0%);fill-opacity:1;" d="M 311.171875 217.917969 C 309.789063 217.65625 307.542969 216.878906 305.992188 215.972656 L 305.992188 219.859375 C 307.542969 218.953125 309.789063 218.175781 311.171875 217.917969 "/>
<path xmlns="http://www.w3.org/2000/svg" style="fill:none;stroke-width:0.79701;stroke-linecap:butt;stroke-linejoin:miter;stroke:rgb(0%,0%,0%);stroke-opacity:1;stroke-miterlimit:10;" d="M 386.375219 88.694562 L 418.312719 120.632062 " transform="matrix(1,0,0,-1,-66.426,302.968)"/>
<path xmlns="http://www.w3.org/2000/svg" style=" stroke:none;fill-rule:nonzero;fill:rgb(0%,0%,0%);fill-opacity:1;" d="M 355.183594 179.039063 C 354.023438 179.832031 351.886719 180.871094 350.148438 181.328125 L 352.894531 184.074219 C 353.351563 182.335938 354.390625 180.199219 355.183594 179.039063 "/>
<path xmlns="http://www.w3.org/2000/svg" style="fill:none;stroke-width:0.79701;stroke-linecap:butt;stroke-linejoin:miter;stroke:rgb(0%,0%,0%);stroke-opacity:1;stroke-miterlimit:10;" d="M 430.386937 85.053937 L 457.984594 85.050031 " transform="matrix(1,0,0,-1,-66.426,302.968)"/>
<path xmlns="http://www.w3.org/2000/svg" style=" stroke:none;fill-rule:nonzero;fill:rgb(0%,0%,0%);fill-opacity:1;" d="M 396.222656 217.917969 C 394.839844 217.65625 392.59375 216.878906 391.042969 215.972656 L 391.042969 219.859375 C 392.59375 218.953125 394.839844 218.175781 396.222656 217.917969 "/>
<path xmlns="http://www.w3.org/2000/svg" style="fill:none;stroke-width:0.79701;stroke-linecap:butt;stroke-linejoin:miter;stroke:rgb(0%,0%,0%);stroke-opacity:1;stroke-miterlimit:10;" d="M 467.789281 90.182844 L 467.785375 117.7805 " transform="matrix(1,0,0,-1,-66.426,302.968)"/>
<path xmlns="http://www.w3.org/2000/svg" style=" stroke:none;fill-rule:nonzero;fill:rgb(0%,0%,0%);fill-opacity:1;" d="M 401.359375 180.523438 C 401.101563 181.90625 400.324219 184.148438 399.417969 185.703125 L 403.304688 185.703125 C 402.394531 184.148438 401.621094 181.90625 401.359375 180.523438 "/>
<g xmlns="http://www.w3.org/2000/svg" clip-path="url(#clip9)" clip-rule="nonzero">
<path style="fill:none;stroke-width:0.79701;stroke-linecap:butt;stroke-linejoin:miter;stroke:rgb(0%,0%,0%);stroke-opacity:1;stroke-miterlimit:10;" d="M 512.066625 89.878156 C 522.121313 117.507062 522.121313 137.643781 513.664281 160.885969 " transform="matrix(1,0,0,-1,-66.426,302.968)"/>
</g>
<path xmlns="http://www.w3.org/2000/svg" style=" stroke:none;fill-rule:nonzero;fill:rgb(0%,0%,0%);fill-opacity:1;" d="M 445.640625 137.695313 C 445.871094 139.082031 445.90625 141.460938 445.585938 143.234375 L 449.242188 141.902344 C 447.855469 140.75 446.355469 138.90625 445.640625 137.695313 "/>
<path xmlns="http://www.w3.org/2000/svg" style="fill:none;stroke-width:0.79701;stroke-linecap:butt;stroke-linejoin:miter;stroke:rgb(0%,0%,0%);stroke-opacity:1;stroke-miterlimit:10;" d="M 90.183813 42.526594 L 117.781469 42.526594 " transform="matrix(1,0,0,-1,-66.426,302.968)"/>
<path xmlns="http://www.w3.org/2000/svg" style=" stroke:none;fill-rule:nonzero;fill:rgb(0%,0%,0%);fill-opacity:1;" d="M 56.019531 260.441406 C 54.636719 260.183594 52.390625 259.40625 50.839844 258.5 L 50.839844 262.386719 C 52.390625 261.476563 54.636719 260.699219 56.019531 260.441406 "/>
<path xmlns="http://www.w3.org/2000/svg" style="fill:none;stroke-width:0.79701;stroke-linecap:butt;stroke-linejoin:miter;stroke:rgb(0%,0%,0%);stroke-opacity:1;stroke-miterlimit:10;" d="M 132.70725 42.526594 L 160.308812 42.526594 " transform="matrix(1,0,0,-1,-66.426,302.968)"/>
<path xmlns="http://www.w3.org/2000/svg" style=" stroke:none;fill-rule:nonzero;fill:rgb(0%,0%,0%);fill-opacity:1;" d="M 98.542969 260.441406 C 97.164063 260.183594 94.917969 259.40625 93.363281 258.5 L 93.363281 262.386719 C 94.917969 261.476563 97.164063 260.699219 98.542969 260.441406 "/>
<path xmlns="http://www.w3.org/2000/svg" style="fill:none;stroke-width:0.79701;stroke-linecap:butt;stroke-linejoin:miter;stroke:rgb(0%,0%,0%);stroke-opacity:1;stroke-miterlimit:10;" d="M 172.679906 38.065656 C 186.047094 14.909406 155.218969 16.74925 165.191625 34.014875 " transform="matrix(1,0,0,-1,-66.426,302.968)"/>
<path xmlns="http://www.w3.org/2000/svg" style=" stroke:none;fill-rule:nonzero;fill:rgb(0%,0%,0%);fill-opacity:1;" d="M 101.105469 264.902344 C 100.1875 265.972656 98.386719 267.53125 96.816406 268.425781 L 100.195313 270.375 C 100.1875 268.570313 100.636719 266.230469 101.105469 264.902344 "/>
<path xmlns="http://www.w3.org/2000/svg" style="fill:none;stroke-width:0.79701;stroke-linecap:butt;stroke-linejoin:miter;stroke:rgb(0%,0%,0%);stroke-opacity:1;stroke-miterlimit:10;" d="M 207.496312 42.526594 L 179.89475 42.526594 " transform="matrix(1,0,0,-1,-66.426,302.968)"/>
<path xmlns="http://www.w3.org/2000/svg" style=" stroke:none;fill-rule:nonzero;fill:rgb(0%,0%,0%);fill-opacity:1;" d="M 108.808594 260.441406 C 110.1875 260.699219 112.433594 261.476563 113.988281 262.386719 L 113.988281 258.5 C 112.433594 259.40625 110.1875 260.183594 108.808594 260.441406 "/>
<path xmlns="http://www.w3.org/2000/svg" style="fill:none;stroke-width:0.79701;stroke-linecap:butt;stroke-linejoin:miter;stroke:rgb(0%,0%,0%);stroke-opacity:1;stroke-miterlimit:10;" d="M 255.156469 47.6555 L 255.156469 75.257062 " transform="matrix(1,0,0,-1,-66.426,302.968)"/>
<path xmlns="http://www.w3.org/2000/svg" style=" stroke:none;fill-rule:nonzero;fill:rgb(0%,0%,0%);fill-opacity:1;" d="M 188.730469 223.050781 C 188.472656 224.429688 187.695313 226.675781 186.789063 228.230469 L 190.671875 228.230469 C 189.765625 226.675781 188.988281 224.429688 188.730469 223.050781 "/>
<path xmlns="http://www.w3.org/2000/svg" style="fill:none;stroke-width:0.79701;stroke-linecap:butt;stroke-linejoin:miter;stroke:rgb(0%,0%,0%);stroke-opacity:1;stroke-miterlimit:10;" d="M 294.035375 46.171125 L 262.097875 78.108625 " transform="matrix(1,0,0,-1,-66.426,302.968)"/>
<path xmlns="http://www.w3.org/2000/svg" style=" stroke:none;fill-rule:nonzero;fill:rgb(0%,0%,0%);fill-opacity:1;" d="M 192.375 221.5625 C 193.167969 222.71875 194.203125 224.859375 194.664063 226.597656 L 197.410156 223.851563 C 195.671875 223.390625 193.535156 222.355469 192.375 221.5625 "/>
<path xmlns="http://www.w3.org/2000/svg" style="fill:none;stroke-width:0.79701;stroke-linecap:butt;stroke-linejoin:miter;stroke:rgb(0%,0%,0%);stroke-opacity:1;stroke-miterlimit:10;" d="M 344.812719 44.827375 L 416.492406 80.671125 " transform="matrix(1,0,0,-1,-66.426,302.968)"/>
<path xmlns="http://www.w3.org/2000/svg" style=" stroke:none;fill-rule:nonzero;fill:rgb(0%,0%,0%);fill-opacity:1;" d="M 354.238281 220.214844 C 352.886719 220.597656 350.53125 220.90625 348.734375 220.792969 L 350.472656 224.265625 C 351.457031 222.761719 353.117188 221.0625 354.238281 220.214844 "/>
<path xmlns="http://www.w3.org/2000/svg" style="fill:none;stroke-width:0.79701;stroke-linecap:butt;stroke-linejoin:miter;stroke:rgb(0%,0%,0%);stroke-opacity:1;stroke-miterlimit:10;" d="M 386.375219 46.167219 L 418.297094 78.089094 " transform="matrix(1,0,0,-1,-66.426,302.968)"/>
<path xmlns="http://www.w3.org/2000/svg" style=" stroke:none;fill-rule:nonzero;fill:rgb(0%,0%,0%);fill-opacity:1;" d="M 355.183594 221.5625 C 354.019531 222.363281 351.871094 223.40625 350.121094 223.863281 L 352.882813 226.625 C 353.34375 224.878906 354.386719 222.730469 355.183594 221.5625 "/>
<path xmlns="http://www.w3.org/2000/svg" style="fill:none;stroke-width:0.79701;stroke-linecap:butt;stroke-linejoin:miter;stroke:rgb(0%,0%,0%);stroke-opacity:1;stroke-miterlimit:10;" d="M 425.261937 47.6555 L 425.261937 75.257062 " transform="matrix(1,0,0,-1,-66.426,302.968)"/>
<path xmlns="http://www.w3.org/2000/svg" style=" stroke:none;fill-rule:nonzero;fill:rgb(0%,0%,0%);fill-opacity:1;" d="M 358.835938 223.050781 C 358.574219 224.429688 357.796875 226.675781 356.890625 228.230469 L 360.777344 228.230469 C 359.871094 226.675781 359.09375 224.429688 358.835938 223.050781 "/>
<path xmlns="http://www.w3.org/2000/svg" style="fill:none;stroke-width:0.79701;stroke-linecap:butt;stroke-linejoin:miter;stroke:rgb(0%,0%,0%);stroke-opacity:1;stroke-miterlimit:10;" d="M 467.789281 47.6555 L 467.785375 75.257062 " transform="matrix(1,0,0,-1,-66.426,302.968)"/>
<path xmlns="http://www.w3.org/2000/svg" style=" stroke:none;fill-rule:nonzero;fill:rgb(0%,0%,0%);fill-opacity:1;" d="M 401.359375 223.050781 C 401.101563 224.429688 400.324219 226.675781 399.417969 228.230469 L 403.304688 228.230469 C 402.394531 226.675781 401.621094 224.429688 401.359375 223.050781 "/>
<path xmlns="http://www.w3.org/2000/svg" style="fill:none;stroke-width:0.79701;stroke-linecap:butt;stroke-linejoin:miter;stroke:rgb(0%,0%,0%);stroke-opacity:1;stroke-miterlimit:10;" d="M 508.551 47.354719 C 492.820531 90.565656 492.820531 122.06175 506.953344 160.885969 " transform="matrix(1,0,0,-1,-66.426,302.968)"/>
<path xmlns="http://www.w3.org/2000/svg" style=" stroke:none;fill-rule:nonzero;fill:rgb(0%,0%,0%);fill-opacity:1;" d="M 442.125 137.695313 C 441.40625 138.90625 439.90625 140.75 438.523438 141.902344 L 442.175781 143.234375 C 441.855469 141.460938 441.894531 139.082031 442.125 137.695313 "/>
<path xmlns="http://www.w3.org/2000/svg" style="fill:none;stroke-width:0.79701;stroke-linecap:butt;stroke-linejoin:miter;stroke:rgb(0%,0%,0%);stroke-opacity:1;stroke-miterlimit:10;" d="M 297.683812 5.132062 L 297.683812 32.729719 " transform="matrix(1,0,0,-1,-66.426,302.968)"/>
<path xmlns="http://www.w3.org/2000/svg" style=" stroke:none;fill-rule:nonzero;fill:rgb(0%,0%,0%);fill-opacity:1;" d="M 231.257813 265.574219 C 230.996094 266.957031 230.21875 269.199219 229.3125 270.753906 L 233.199219 270.753906 C 232.292969 269.199219 231.515625 266.957031 231.257813 265.574219 "/>
</g>
</svg>
