<?xml version="1.0" encoding="UTF-8" standalone="no"?>
<!DOCTYPE svg PUBLIC "-//W3C//DTD SVG 1.1//EN" "http://www.w3.org/Graphics/SVG/1.1/DTD/svg11.dtd">
<svg xmlns="http://www.w3.org/2000/svg" xmlns:xlink="http://www.w3.org/1999/xlink" version="1.1" width="207.278pt" height="130.157pt" viewBox="0 0 207.278 130.157">
<g enable-background="new">
<path transform="matrix(1,0,0,-1,-23.92,146.15799)" d="M 32.57393 141.73404 C 32.57393 144.06864 30.6814 145.96117 28.3468 145.96117 C 26.0122 145.96117 24.11967 144.06864 24.11967 141.73404 C 24.11967 139.39945 26.0122 137.50691 28.3468 137.50691 C 30.6814 137.50691 32.57393 139.39945 32.57393 141.73404 Z M 28.3468 141.73404 " fill="#f1c233"/>
<path transform="matrix(1,0,0,-1,-23.92,146.15799)" stroke-width=".3985" stroke-linecap="butt" stroke-miterlimit="10" stroke-linejoin="miter" fill="none" stroke="#f1c233" d="M 32.57393 141.73404 C 32.57393 144.06864 30.6814 145.96117 28.3468 145.96117 C 26.0122 145.96117 24.11967 144.06864 24.11967 141.73404 C 24.11967 139.39945 26.0122 137.50691 28.3468 137.50691 C 30.6814 137.50691 32.57393 139.39945 32.57393 141.73404 Z M 28.3468 141.73404 "/>
<path transform="matrix(1,0,0,-1,-23.92,146.15799)" d="M 60.92073 141.73404 C 60.92073 144.06864 59.02821 145.96117 56.69362 145.96117 C 54.35901 145.96117 52.46649 144.06864 52.46649 141.73404 C 52.46649 139.39945 54.35901 137.50691 56.69362 137.50691 C 59.02821 137.50691 60.92073 139.39945 60.92073 141.73404 Z M 56.69362 141.73404 " fill="#f1c233"/>
<path transform="matrix(1,0,0,-1,-23.92,146.15799)" stroke-width=".3985" stroke-linecap="butt" stroke-miterlimit="10" stroke-linejoin="miter" fill="none" stroke="#f1c233" d="M 60.92073 141.73404 C 60.92073 144.06864 59.02821 145.96117 56.69362 145.96117 C 54.35901 145.96117 52.46649 144.06864 52.46649 141.73404 C 52.46649 139.39945 54.35901 137.50691 56.69362 137.50691 C 59.02821 137.50691 60.92073 139.39945 60.92073 141.73404 Z M 56.69362 141.73404 "/>
<path transform="matrix(1,0,0,-1,-23.92,146.15799)" d="M 89.26755 141.73404 C 89.26755 144.06864 87.37502 145.96117 85.04042 145.96117 C 82.70583 145.96117 80.8133 144.06864 80.8133 141.73404 C 80.8133 139.39945 82.70583 137.50691 85.04042 137.50691 C 87.37502 137.50691 89.26755 139.39945 89.26755 141.73404 Z M 85.04042 141.73404 " fill="#f1c233"/>
<path transform="matrix(1,0,0,-1,-23.92,146.15799)" stroke-width=".3985" stroke-linecap="butt" stroke-miterlimit="10" stroke-linejoin="miter" fill="none" stroke="#f1c233" d="M 89.26755 141.73404 C 89.26755 144.06864 87.37502 145.96117 85.04042 145.96117 C 82.70583 145.96117 80.8133 144.06864 80.8133 141.73404 C 80.8133 139.39945 82.70583 137.50691 85.04042 137.50691 C 87.37502 137.50691 89.26755 139.39945 89.26755 141.73404 Z M 85.04042 141.73404 "/>
<path transform="matrix(1,0,0,-1,-23.92,146.15799)" d="M 117.61435 141.73404 C 117.61435 144.06864 115.72183 145.96117 113.38724 145.96117 C 111.05263 145.96117 109.16011 144.06864 109.16011 141.73404 C 109.16011 139.39945 111.05263 137.50691 113.38724 137.50691 C 115.72183 137.50691 117.61435 139.39945 117.61435 141.73404 Z M 113.38724 141.73404 " fill="#f1c233"/>
<path transform="matrix(1,0,0,-1,-23.92,146.15799)" stroke-width=".3985" stroke-linecap="butt" stroke-miterlimit="10" stroke-linejoin="miter" fill="none" stroke="#f1c233" d="M 117.61435 141.73404 C 117.61435 144.06864 115.72183 145.96117 113.38724 145.96117 C 111.05263 145.96117 109.16011 144.06864 109.16011 141.73404 C 109.16011 139.39945 111.05263 137.50691 113.38724 137.50691 C 115.72183 137.50691 117.61435 139.39945 117.61435 141.73404 Z M 113.38724 141.73404 "/>
<path transform="matrix(1,0,0,-1,-23.92,146.15799)" d="M 145.96117 141.73404 C 145.96117 144.06864 144.06864 145.96117 141.73404 145.96117 C 139.39945 145.96117 137.50691 144.06864 137.50691 141.73404 C 137.50691 139.39945 139.39945 137.50691 141.73404 137.50691 C 144.06864 137.50691 145.96117 139.39945 145.96117 141.73404 Z M 141.73404 141.73404 " fill="#f1c233"/>
<path transform="matrix(1,0,0,-1,-23.92,146.15799)" stroke-width=".3985" stroke-linecap="butt" stroke-miterlimit="10" stroke-linejoin="miter" fill="none" stroke="#f1c233" d="M 145.96117 141.73404 C 145.96117 144.06864 144.06864 145.96117 141.73404 145.96117 C 139.39945 145.96117 137.50691 144.06864 137.50691 141.73404 C 137.50691 139.39945 139.39945 137.50691 141.73404 137.50691 C 144.06864 137.50691 145.96117 139.39945 145.96117 141.73404 Z M 141.73404 141.73404 "/>
<path transform="matrix(1,0,0,-1,-23.92,146.15799)" d="M 174.30797 141.73404 C 174.30797 144.06864 172.41545 145.96117 170.08086 145.96117 C 167.74625 145.96117 165.85373 144.06864 165.85373 141.73404 C 165.85373 139.39945 167.74625 137.50691 170.08086 137.50691 C 172.41545 137.50691 174.30797 139.39945 174.30797 141.73404 Z M 170.08086 141.73404 " fill="#f1c233"/>
<path transform="matrix(1,0,0,-1,-23.92,146.15799)" stroke-width=".3985" stroke-linecap="butt" stroke-miterlimit="10" stroke-linejoin="miter" fill="none" stroke="#f1c233" d="M 174.30797 141.73404 C 174.30797 144.06864 172.41545 145.96117 170.08086 145.96117 C 167.74625 145.96117 165.85373 144.06864 165.85373 141.73404 C 165.85373 139.39945 167.74625 137.50691 170.08086 137.50691 C 172.41545 137.50691 174.30797 139.39945 174.30797 141.73404 Z M 170.08086 141.73404 "/>
<path transform="matrix(1,0,0,-1,-23.92,146.15799)" d="M 202.65479 141.73404 C 202.65479 144.06864 200.76226 145.96117 198.42766 145.96117 C 196.09307 145.96117 194.20053 144.06864 194.20053 141.73404 C 194.20053 139.39945 196.09307 137.50691 198.42766 137.50691 C 200.76226 137.50691 202.65479 139.39945 202.65479 141.73404 Z M 198.42766 141.73404 " fill="#f1c233"/>
<path transform="matrix(1,0,0,-1,-23.92,146.15799)" stroke-width=".3985" stroke-linecap="butt" stroke-miterlimit="10" stroke-linejoin="miter" fill="none" stroke="#f1c233" d="M 202.65479 141.73404 C 202.65479 144.06864 200.76226 145.96117 198.42766 145.96117 C 196.09307 145.96117 194.20053 144.06864 194.20053 141.73404 C 194.20053 139.39945 196.09307 137.50691 198.42766 137.50691 C 200.76226 137.50691 202.65479 139.39945 202.65479 141.73404 Z M 198.42766 141.73404 "/>
<path transform="matrix(1,0,0,-1,-23.92,146.15799)" d="M 231.00159 141.73404 C 231.00159 144.06864 229.10907 145.96117 226.77448 145.96117 C 224.43988 145.96117 222.54735 144.06864 222.54735 141.73404 C 222.54735 139.39945 224.43988 137.50691 226.77448 137.50691 C 229.10907 137.50691 231.00159 139.39945 231.00159 141.73404 Z M 226.77448 141.73404 " fill="#f1c233"/>
<path transform="matrix(1,0,0,-1,-23.92,146.15799)" stroke-width=".3985" stroke-linecap="butt" stroke-miterlimit="10" stroke-linejoin="miter" fill="none" stroke="#f1c233" d="M 231.00159 141.73404 C 231.00159 144.06864 229.10907 145.96117 226.77448 145.96117 C 224.43988 145.96117 222.54735 144.06864 222.54735 141.73404 C 222.54735 139.39945 224.43988 137.50691 226.77448 137.50691 C 229.10907 137.50691 231.00159 139.39945 231.00159 141.73404 Z M 226.77448 141.73404 "/>
<path transform="matrix(1,0,0,-1,-23.92,146.15799)" d="M 32.57393 85.04042 C 32.57393 87.37502 30.6814 89.26755 28.3468 89.26755 C 26.0122 89.26755 24.11967 87.37502 24.11967 85.04042 C 24.11967 82.70583 26.0122 80.8133 28.3468 80.8133 C 30.6814 80.8133 32.57393 82.70583 32.57393 85.04042 Z M 28.3468 85.04042 " fill="#69a84f"/>
<path transform="matrix(1,0,0,-1,-23.92,146.15799)" stroke-width=".3985" stroke-linecap="butt" stroke-miterlimit="10" stroke-linejoin="miter" fill="none" stroke="#69a84f" d="M 32.57393 85.04042 C 32.57393 87.37502 30.6814 89.26755 28.3468 89.26755 C 26.0122 89.26755 24.11967 87.37502 24.11967 85.04042 C 24.11967 82.70583 26.0122 80.8133 28.3468 80.8133 C 30.6814 80.8133 32.57393 82.70583 32.57393 85.04042 Z M 28.3468 85.04042 "/>
<path transform="matrix(1,0,0,-1,-23.92,146.15799)" d="M 60.92073 85.04042 C 60.92073 87.37502 59.02821 89.26755 56.69362 89.26755 C 54.35901 89.26755 52.46649 87.37502 52.46649 85.04042 C 52.46649 82.70583 54.35901 80.8133 56.69362 80.8133 C 59.02821 80.8133 60.92073 82.70583 60.92073 85.04042 Z M 56.69362 85.04042 " fill="#69a84f"/>
<path transform="matrix(1,0,0,-1,-23.92,146.15799)" stroke-width=".3985" stroke-linecap="butt" stroke-miterlimit="10" stroke-linejoin="miter" fill="none" stroke="#69a84f" d="M 60.92073 85.04042 C 60.92073 87.37502 59.02821 89.26755 56.69362 89.26755 C 54.35901 89.26755 52.46649 87.37502 52.46649 85.04042 C 52.46649 82.70583 54.35901 80.8133 56.69362 80.8133 C 59.02821 80.8133 60.92073 82.70583 60.92073 85.04042 Z M 56.69362 85.04042 "/>
<path transform="matrix(1,0,0,-1,-23.92,146.15799)" d="M 89.26755 85.04042 C 89.26755 87.37502 87.37502 89.26755 85.04042 89.26755 C 82.70583 89.26755 80.8133 87.37502 80.8133 85.04042 C 80.8133 82.70583 82.70583 80.8133 85.04042 80.8133 C 87.37502 80.8133 89.26755 82.70583 89.26755 85.04042 Z M 85.04042 85.04042 " fill="#69a84f"/>
<path transform="matrix(1,0,0,-1,-23.92,146.15799)" stroke-width=".3985" stroke-linecap="butt" stroke-miterlimit="10" stroke-linejoin="miter" fill="none" stroke="#69a84f" d="M 89.26755 85.04042 C 89.26755 87.37502 87.37502 89.26755 85.04042 89.26755 C 82.70583 89.26755 80.8133 87.37502 80.8133 85.04042 C 80.8133 82.70583 82.70583 80.8133 85.04042 80.8133 C 87.37502 80.8133 89.26755 82.70583 89.26755 85.04042 Z M 85.04042 85.04042 "/>
<path transform="matrix(1,0,0,-1,-23.92,146.15799)" d="M 117.61435 85.04042 C 117.61435 87.37502 115.72183 89.26755 113.38724 89.26755 C 111.05263 89.26755 109.16011 87.37502 109.16011 85.04042 C 109.16011 82.70583 111.05263 80.8133 113.38724 80.8133 C 115.72183 80.8133 117.61435 82.70583 117.61435 85.04042 Z M 113.38724 85.04042 " fill="#69a84f"/>
<path transform="matrix(1,0,0,-1,-23.92,146.15799)" stroke-width=".3985" stroke-linecap="butt" stroke-miterlimit="10" stroke-linejoin="miter" fill="none" stroke="#69a84f" d="M 117.61435 85.04042 C 117.61435 87.37502 115.72183 89.26755 113.38724 89.26755 C 111.05263 89.26755 109.16011 87.37502 109.16011 85.04042 C 109.16011 82.70583 111.05263 80.8133 113.38724 80.8133 C 115.72183 80.8133 117.61435 82.70583 117.61435 85.04042 Z M 113.38724 85.04042 "/>
<path transform="matrix(1,0,0,-1,-23.92,146.15799)" d="M 145.96117 85.04042 C 145.96117 87.37502 144.06864 89.26755 141.73404 89.26755 C 139.39945 89.26755 137.50691 87.37502 137.50691 85.04042 C 137.50691 82.70583 139.39945 80.8133 141.73404 80.8133 C 144.06864 80.8133 145.96117 82.70583 145.96117 85.04042 Z M 141.73404 85.04042 " fill="#69a84f"/>
<path transform="matrix(1,0,0,-1,-23.92,146.15799)" stroke-width=".3985" stroke-linecap="butt" stroke-miterlimit="10" stroke-linejoin="miter" fill="none" stroke="#69a84f" d="M 145.96117 85.04042 C 145.96117 87.37502 144.06864 89.26755 141.73404 89.26755 C 139.39945 89.26755 137.50691 87.37502 137.50691 85.04042 C 137.50691 82.70583 139.39945 80.8133 141.73404 80.8133 C 144.06864 80.8133 145.96117 82.70583 145.96117 85.04042 Z M 141.73404 85.04042 "/>
<path transform="matrix(1,0,0,-1,-23.92,146.15799)" d="M 174.30797 85.04042 C 174.30797 87.37502 172.41545 89.26755 170.08086 89.26755 C 167.74625 89.26755 165.85373 87.37502 165.85373 85.04042 C 165.85373 82.70583 167.74625 80.8133 170.08086 80.8133 C 172.41545 80.8133 174.30797 82.70583 174.30797 85.04042 Z M 170.08086 85.04042 " fill="#69a84f"/>
<path transform="matrix(1,0,0,-1,-23.92,146.15799)" stroke-width=".3985" stroke-linecap="butt" stroke-miterlimit="10" stroke-linejoin="miter" fill="none" stroke="#69a84f" d="M 174.30797 85.04042 C 174.30797 87.37502 172.41545 89.26755 170.08086 89.26755 C 167.74625 89.26755 165.85373 87.37502 165.85373 85.04042 C 165.85373 82.70583 167.74625 80.8133 170.08086 80.8133 C 172.41545 80.8133 174.30797 82.70583 174.30797 85.04042 Z M 170.08086 85.04042 "/>
<path transform="matrix(1,0,0,-1,-23.92,146.15799)" d="M 202.65479 85.04042 C 202.65479 87.37502 200.76226 89.26755 198.42766 89.26755 C 196.09307 89.26755 194.20053 87.37502 194.20053 85.04042 C 194.20053 82.70583 196.09307 80.8133 198.42766 80.8133 C 200.76226 80.8133 202.65479 82.70583 202.65479 85.04042 Z M 198.42766 85.04042 " fill="#69a84f"/>
<path transform="matrix(1,0,0,-1,-23.92,146.15799)" stroke-width=".3985" stroke-linecap="butt" stroke-miterlimit="10" stroke-linejoin="miter" fill="none" stroke="#69a84f" d="M 202.65479 85.04042 C 202.65479 87.37502 200.76226 89.26755 198.42766 89.26755 C 196.09307 89.26755 194.20053 87.37502 194.20053 85.04042 C 194.20053 82.70583 196.09307 80.8133 198.42766 80.8133 C 200.76226 80.8133 202.65479 82.70583 202.65479 85.04042 Z M 198.42766 85.04042 "/>
<path transform="matrix(1,0,0,-1,-23.92,146.15799)" d="M 231.00159 85.04042 C 231.00159 87.37502 229.10907 89.26755 226.77448 89.26755 C 224.43988 89.26755 222.54735 87.37502 222.54735 85.04042 C 222.54735 82.70583 224.43988 80.8133 226.77448 80.8133 C 229.10907 80.8133 231.00159 82.70583 231.00159 85.04042 Z M 226.77448 85.04042 " fill="#69a84f"/>
<path transform="matrix(1,0,0,-1,-23.92,146.15799)" stroke-width=".3985" stroke-linecap="butt" stroke-miterlimit="10" stroke-linejoin="miter" fill="none" stroke="#69a84f" d="M 231.00159 85.04042 C 231.00159 87.37502 229.10907 89.26755 226.77448 89.26755 C 224.43988 89.26755 222.54735 87.37502 222.54735 85.04042 C 222.54735 82.70583 224.43988 80.8133 226.77448 80.8133 C 229.10907 80.8133 231.00159 82.70583 231.00159 85.04042 Z M 226.77448 85.04042 "/>
<path transform="matrix(1,0,0,-1,-23.92,146.15799)" d="M 32.57393 28.3468 C 32.57393 30.6814 30.6814 32.57393 28.3468 32.57393 C 26.0122 32.57393 24.11967 30.6814 24.11967 28.3468 C 24.11967 26.0122 26.0122 24.11967 28.3468 24.11967 C 30.6814 24.11967 32.57393 26.0122 32.57393 28.3468 Z M 28.3468 28.3468 " fill="#3b78d9"/>
<path transform="matrix(1,0,0,-1,-23.92,146.15799)" stroke-width=".3985" stroke-linecap="butt" stroke-miterlimit="10" stroke-linejoin="miter" fill="none" stroke="#3b78d9" d="M 32.57393 28.3468 C 32.57393 30.6814 30.6814 32.57393 28.3468 32.57393 C 26.0122 32.57393 24.11967 30.6814 24.11967 28.3468 C 24.11967 26.0122 26.0122 24.11967 28.3468 24.11967 C 30.6814 24.11967 32.57393 26.0122 32.57393 28.3468 Z M 28.3468 28.3468 "/>
<path transform="matrix(1,0,0,-1,-23.92,146.15799)" d="M 60.92073 28.3468 C 60.92073 30.6814 59.02821 32.57393 56.69362 32.57393 C 54.35901 32.57393 52.46649 30.6814 52.46649 28.3468 C 52.46649 26.0122 54.35901 24.11967 56.69362 24.11967 C 59.02821 24.11967 60.92073 26.0122 60.92073 28.3468 Z M 56.69362 28.3468 " fill="#3b78d9"/>
<path transform="matrix(1,0,0,-1,-23.92,146.15799)" stroke-width=".3985" stroke-linecap="butt" stroke-miterlimit="10" stroke-linejoin="miter" fill="none" stroke="#3b78d9" d="M 60.92073 28.3468 C 60.92073 30.6814 59.02821 32.57393 56.69362 32.57393 C 54.35901 32.57393 52.46649 30.6814 52.46649 28.3468 C 52.46649 26.0122 54.35901 24.11967 56.69362 24.11967 C 59.02821 24.11967 60.92073 26.0122 60.92073 28.3468 Z M 56.69362 28.3468 "/>
<path transform="matrix(1,0,0,-1,-23.92,146.15799)" d="M 89.26755 28.3468 C 89.26755 30.6814 87.37502 32.57393 85.04042 32.57393 C 82.70583 32.57393 80.8133 30.6814 80.8133 28.3468 C 80.8133 26.0122 82.70583 24.11967 85.04042 24.11967 C 87.37502 24.11967 89.26755 26.0122 89.26755 28.3468 Z M 85.04042 28.3468 " fill="#3b78d9"/>
<path transform="matrix(1,0,0,-1,-23.92,146.15799)" stroke-width=".3985" stroke-linecap="butt" stroke-miterlimit="10" stroke-linejoin="miter" fill="none" stroke="#3b78d9" d="M 89.26755 28.3468 C 89.26755 30.6814 87.37502 32.57393 85.04042 32.57393 C 82.70583 32.57393 80.8133 30.6814 80.8133 28.3468 C 80.8133 26.0122 82.70583 24.11967 85.04042 24.11967 C 87.37502 24.11967 89.26755 26.0122 89.26755 28.3468 Z M 85.04042 28.3468 "/>
<path transform="matrix(1,0,0,-1,-23.92,146.15799)" d="M 117.61435 28.3468 C 117.61435 30.6814 115.72183 32.57393 113.38724 32.57393 C 111.05263 32.57393 109.16011 30.6814 109.16011 28.3468 C 109.16011 26.0122 111.05263 24.11967 113.38724 24.11967 C 115.72183 24.11967 117.61435 26.0122 117.61435 28.3468 Z M 113.38724 28.3468 " fill="#3b78d9"/>
<path transform="matrix(1,0,0,-1,-23.92,146.15799)" stroke-width=".3985" stroke-linecap="butt" stroke-miterlimit="10" stroke-linejoin="miter" fill="none" stroke="#3b78d9" d="M 117.61435 28.3468 C 117.61435 30.6814 115.72183 32.57393 113.38724 32.57393 C 111.05263 32.57393 109.16011 30.6814 109.16011 28.3468 C 109.16011 26.0122 111.05263 24.11967 113.38724 24.11967 C 115.72183 24.11967 117.61435 26.0122 117.61435 28.3468 Z M 113.38724 28.3468 "/>
<path transform="matrix(1,0,0,-1,-23.92,146.15799)" d="M 145.96117 28.3468 C 145.96117 30.6814 144.06864 32.57393 141.73404 32.57393 C 139.39945 32.57393 137.50691 30.6814 137.50691 28.3468 C 137.50691 26.0122 139.39945 24.11967 141.73404 24.11967 C 144.06864 24.11967 145.96117 26.0122 145.96117 28.3468 Z M 141.73404 28.3468 " fill="#3b78d9"/>
<path transform="matrix(1,0,0,-1,-23.92,146.15799)" stroke-width=".3985" stroke-linecap="butt" stroke-miterlimit="10" stroke-linejoin="miter" fill="none" stroke="#3b78d9" d="M 145.96117 28.3468 C 145.96117 30.6814 144.06864 32.57393 141.73404 32.57393 C 139.39945 32.57393 137.50691 30.6814 137.50691 28.3468 C 137.50691 26.0122 139.39945 24.11967 141.73404 24.11967 C 144.06864 24.11967 145.96117 26.0122 145.96117 28.3468 Z M 141.73404 28.3468 "/>
<path transform="matrix(1,0,0,-1,-23.92,146.15799)" d="M 174.30797 28.3468 C 174.30797 30.6814 172.41545 32.57393 170.08086 32.57393 C 167.74625 32.57393 165.85373 30.6814 165.85373 28.3468 C 165.85373 26.0122 167.74625 24.11967 170.08086 24.11967 C 172.41545 24.11967 174.30797 26.0122 174.30797 28.3468 Z M 170.08086 28.3468 " fill="#3b78d9"/>
<path transform="matrix(1,0,0,-1,-23.92,146.15799)" stroke-width=".3985" stroke-linecap="butt" stroke-miterlimit="10" stroke-linejoin="miter" fill="none" stroke="#3b78d9" d="M 174.30797 28.3468 C 174.30797 30.6814 172.41545 32.57393 170.08086 32.57393 C 167.74625 32.57393 165.85373 30.6814 165.85373 28.3468 C 165.85373 26.0122 167.74625 24.11967 170.08086 24.11967 C 172.41545 24.11967 174.30797 26.0122 174.30797 28.3468 Z M 170.08086 28.3468 "/>
<path transform="matrix(1,0,0,-1,-23.92,146.15799)" d="M 202.65479 28.3468 C 202.65479 30.6814 200.76226 32.57393 198.42766 32.57393 C 196.09307 32.57393 194.20053 30.6814 194.20053 28.3468 C 194.20053 26.0122 196.09307 24.11967 198.42766 24.11967 C 200.76226 24.11967 202.65479 26.0122 202.65479 28.3468 Z M 198.42766 28.3468 " fill="#3b78d9"/>
<path transform="matrix(1,0,0,-1,-23.92,146.15799)" stroke-width=".3985" stroke-linecap="butt" stroke-miterlimit="10" stroke-linejoin="miter" fill="none" stroke="#3b78d9" d="M 202.65479 28.3468 C 202.65479 30.6814 200.76226 32.57393 198.42766 32.57393 C 196.09307 32.57393 194.20053 30.6814 194.20053 28.3468 C 194.20053 26.0122 196.09307 24.11967 198.42766 24.11967 C 200.76226 24.11967 202.65479 26.0122 202.65479 28.3468 Z M 198.42766 28.3468 "/>
<path transform="matrix(1,0,0,-1,-23.92,146.15799)" d="M 231.00159 28.3468 C 231.00159 30.6814 229.10907 32.57393 226.77448 32.57393 C 224.43988 32.57393 222.54735 30.6814 222.54735 28.3468 C 222.54735 26.0122 224.43988 24.11967 226.77448 24.11967 C 229.10907 24.11967 231.00159 26.0122 231.00159 28.3468 Z M 226.77448 28.3468 " fill="#3b78d9"/>
<path transform="matrix(1,0,0,-1,-23.92,146.15799)" stroke-width=".3985" stroke-linecap="butt" stroke-miterlimit="10" stroke-linejoin="miter" fill="none" stroke="#3b78d9" d="M 231.00159 28.3468 C 231.00159 30.6814 229.10907 32.57393 226.77448 32.57393 C 224.43988 32.57393 222.54735 30.6814 222.54735 28.3468 C 222.54735 26.0122 224.43988 24.11967 226.77448 24.11967 C 229.10907 24.11967 231.00159 26.0122 231.00159 28.3468 Z M 226.77448 28.3468 "/>
<path transform="matrix(1,0,0,-1,-23.92,146.15799)" stroke-width="1.19553" stroke-linecap="butt" stroke-miterlimit="10" stroke-linejoin="miter" fill="none" stroke="#000000" d="M 138.44393 88.00291 C 107.49124 115.87317 62.58961 115.87317 32.34782 88.643 "/>
<path transform="matrix(-.7433,.66927,.66927,.7433,8.42782,57.51499)" stroke-width=".9564" stroke-linecap="round" stroke-linejoin="round" fill="none" stroke="#000000" d="M -1.91284 2.55046 C -1.75343 1.59402 0 .15938 .4782 0 C 0 -.15938 -1.75343 -1.59402 -1.91284 -2.55046 "/>
<path transform="matrix(1,0,0,-1,-23.92,146.15799)" stroke-width="1.19553" stroke-linecap="butt" stroke-miterlimit="10" stroke-linejoin="miter" fill="none" stroke="#000000" d="M 166.67484 82.18216 C 143.30551 62.57266 111.81575 62.57266 89.18239 81.5646 "/>
<path transform="matrix(-.76949,-.6457,-.6457,.76949,65.26239,64.5934)" stroke-width=".9564" stroke-linecap="round" stroke-linejoin="round" fill="none" stroke="#000000" d="M -1.91284 2.55046 C -1.75343 1.59402 0 .15938 .4782 0 C 0 -.15938 -1.75343 -1.59402 -1.91284 -2.55046 "/>
<path transform="matrix(1,0,0,-1,-23.92,146.15799)" stroke-width="1.19553" stroke-linecap="butt" stroke-miterlimit="10" stroke-linejoin="miter" fill="none" stroke="#000000" d="M 200.30294 32.36812 C 217.66483 69.60056 217.66483 100.48029 200.7081 136.84384 "/>
<path transform="matrix(-.42363,-.9085,-.9085,.42363,176.7881,9.314163)" stroke-width=".9564" stroke-linecap="round" stroke-linejoin="round" fill="none" stroke="#000000" d="M -1.91284 2.55046 C -1.75343 1.59402 0 .15938 .4782 0 C 0 -.15938 -1.75343 -1.59402 -1.91284 -2.55046 "/>
<path transform="matrix(1,0,0,-1,-23.92,146.15799)" stroke-width="1.19553" stroke-linecap="butt" stroke-miterlimit="10" stroke-linejoin="miter" fill="none" stroke="#000000" d="M 60.85834 26.83098 C 88.96942 16.59927 109.45824 16.59927 136.66947 26.50346 "/>
<path transform="matrix(.94089,-.34244,-.34244,-.94089,112.74945,119.654529)" stroke-width=".9564" stroke-linecap="round" stroke-linejoin="round" fill="none" stroke="#000000" d="M -1.91284 2.55046 C -1.75343 1.59402 0 .15938 .4782 0 C 0 -.15938 -1.75343 -1.59402 -1.91284 -2.55046 "/>
<path transform="matrix(1,0,0,-1,-23.92,146.15799)" stroke-width="1.19553" stroke-linecap="butt" stroke-miterlimit="10" stroke-linejoin="miter" fill="none" stroke="#000000" d="M 194.58216 30.56686 C 158.88585 51.17609 124.58223 51.17609 89.71684 31.04657 "/>
<path transform="matrix(-.86877,.50157,.50157,.86877,65.796848,115.1114)" stroke-width=".9564" stroke-linecap="round" stroke-linejoin="round" fill="none" stroke="#000000" d="M -1.91284 2.55046 C -1.75343 1.59402 0 .15938 .4782 0 C 0 -.15938 -1.75343 -1.59402 -1.91284 -2.55046 "/>
<path transform="matrix(1,0,0,-1,-23.92,146.15799)" stroke-width="1.19553" stroke-linecap="butt" stroke-miterlimit="10" stroke-linejoin="miter" fill="none" stroke="#000000" d="M 113.38724 137.30767 L 113.38724 90.42322 "/>
<path transform="matrix(0,1,1,0,89.46724,55.73477)" stroke-width=".9564" stroke-linecap="round" stroke-linejoin="round" fill="none" stroke="#000000" d="M -1.91284 2.55046 C -1.75343 1.59402 0 .15938 .4782 0 C 0 -.15938 -1.75343 -1.59402 -1.91284 -2.55046 "/>
<path transform="matrix(1,0,0,-1,-23.92,146.15799)" stroke-width="1.19553" stroke-linecap="butt" stroke-miterlimit="10" stroke-linejoin="miter" fill="none" stroke="#000000" d="M 88.73471 87.50343 L 165.58834 138.73903 "/>
<path transform="matrix(.83461,-.5564,-.5564,-.83461,141.66832,7.4189608)" stroke-width=".9564" stroke-linecap="round" stroke-linejoin="round" fill="none" stroke="#000000" d="M -1.91284 2.55046 C -1.75343 1.59402 0 .15938 .4782 0 C 0 -.15938 -1.75343 -1.59402 -1.91284 -2.55046 "/>
<path transform="matrix(1,0,0,-1,-23.92,146.15799)" stroke-width="1.19553" stroke-linecap="butt" stroke-miterlimit="10" stroke-linejoin="miter" fill="none" stroke="#000000" d="M 226.77448 137.30767 L 226.77448 90.42322 "/>
<path transform="matrix(0,1,1,0,202.85448,55.73477)" stroke-width=".9564" stroke-linecap="round" stroke-linejoin="round" fill="none" stroke="#000000" d="M -1.91284 2.55046 C -1.75343 1.59402 0 .15938 .4782 0 C 0 -.15938 -1.75343 -1.59402 -1.91284 -2.55046 "/>
<path transform="matrix(1,0,0,-1,-23.92,146.15799)" stroke-width="1.19553" stroke-linecap="butt" stroke-miterlimit="10" stroke-linejoin="miter" fill="none" stroke="#000000" d="M 30.32642 81.08138 L 54.28471 33.1647 "/>
<path transform="matrix(.44899,.898,.898,-.44899,30.364699,112.993289)" stroke-width=".9564" stroke-linecap="round" stroke-linejoin="round" fill="none" stroke="#000000" d="M -1.91284 2.55046 C -1.75343 1.59402 0 .15938 .4782 0 C 0 -.15938 -1.75343 -1.59402 -1.91284 -2.55046 "/>
<path transform="matrix(1,0,0,-1,-23.92,146.15799)" stroke-width="1.19553" stroke-linecap="butt" stroke-miterlimit="10" stroke-linejoin="miter" fill="none" stroke="#000000" d="M 138.03975 30.80981 L 61.18613 82.04541 "/>
<path transform="matrix(-.83461,-.5564,-.5564,.83461,37.266138,64.11258)" stroke-width=".9564" stroke-linecap="round" stroke-linejoin="round" fill="none" stroke="#000000" d="M -1.91284 2.55046 C -1.75343 1.59402 0 .15938 .4782 0 C 0 -.15938 -1.75343 -1.59402 -1.91284 -2.55046 "/>
<path transform="matrix(1,0,0,-1,-23.92,146.15799)" stroke-width="1.19553" stroke-linecap="butt" stroke-miterlimit="10" stroke-linejoin="miter" fill="none" stroke="#000000" d="M 117.08153 30.80981 L 193.93514 82.04541 "/>
<path transform="matrix(.83461,-.5564,-.5564,-.83461,170.01512,64.11258)" stroke-width=".9564" stroke-linecap="round" stroke-linejoin="round" fill="none" stroke="#000000" d="M -1.91284 2.55046 C -1.75343 1.59402 0 .15938 .4782 0 C 0 -.15938 -1.75343 -1.59402 -1.91284 -2.55046 "/>
</g>
</svg>
