<?xml version="1.0" encoding="UTF-8" standalone="no"?>
<!DOCTYPE svg PUBLIC "-//W3C//DTD SVG 1.1//EN" "http://www.w3.org/Graphics/SVG/1.1/DTD/svg11.dtd">
<svg xmlns="http://www.w3.org/2000/svg" xmlns:xlink="http://www.w3.org/1999/xlink" version="1.1" width="144.721pt" height="68.43pt" viewBox="0 0 144.721 68.43">
<g enable-background="new">
<path transform="matrix(1,0,0,-1,-26.852,-22.477997)" stroke-width=".3985" stroke-linecap="butt" stroke-miterlimit="10" stroke-linejoin="miter" fill="none" stroke="#000000" d="M 28.3468 -22.67752 L 28.3468 -90.7097 "/>
<path transform="matrix(1,0,0,-1,-26.852,-22.477997)" stroke-width=".3985" stroke-linecap="butt" stroke-miterlimit="10" stroke-linejoin="miter" fill="none" stroke="#000000" d="M 56.69362 -22.67752 L 56.69362 -90.7097 "/>
<path transform="matrix(1,0,0,-1,-26.852,-22.477997)" stroke-width=".3985" stroke-linecap="butt" stroke-miterlimit="10" stroke-linejoin="miter" fill="none" stroke="#000000" d="M 85.04042 -22.67752 L 85.04042 -90.7097 "/>
<path transform="matrix(1,0,0,-1,-26.852,-22.477997)" stroke-width=".3985" stroke-linecap="butt" stroke-miterlimit="10" stroke-linejoin="miter" fill="none" stroke="#000000" d="M 113.38724 -22.67752 L 113.38724 -90.7097 "/>
<path transform="matrix(1,0,0,-1,-26.852,-22.477997)" stroke-width=".3985" stroke-linecap="butt" stroke-miterlimit="10" stroke-linejoin="miter" fill="none" stroke="#000000" d="M 141.73404 -22.67752 L 141.73404 -90.7097 "/>
<path transform="matrix(1,0,0,-1,-26.852,-22.477997)" stroke-width=".3985" stroke-linecap="butt" stroke-miterlimit="10" stroke-linejoin="miter" fill="none" stroke="#000000" d="M 170.08086 -22.67752 L 170.08086 -90.7097 "/>
<path transform="matrix(1,0,0,-1,-26.852,-22.477997)" stroke-width="2.98883" stroke-linecap="round" stroke-linejoin="round" fill="none" stroke="#f1c233" d="M 28.3468 -85.04042 L 56.69362 -28.3468 L 85.04042 -56.69362 L 113.38724 -28.3468 L 141.73404 -85.04042 L 170.08086 -56.69362 "/>
<path transform="matrix(1,0,0,-1,-26.852,-22.477997)" stroke-width="2.98883" stroke-linecap="round" stroke-linejoin="round" fill="none" stroke="#3b78d9" d="M 28.3468 -56.69362 L 56.69362 -85.04042 L 85.04042 -28.3468 L 113.38724 -56.69362 L 141.73404 -28.3468 L 170.08086 -85.04042 "/>
<path transform="matrix(1,0,0,-1,-26.852,-22.477997)" stroke-width="2.98883" stroke-linecap="round" stroke-linejoin="round" fill="none" stroke="#69a84f" d="M 28.3468 -28.3468 L 56.69362 -56.69362 L 85.04042 -85.04042 L 113.38724 -85.04042 L 141.73404 -56.69362 L 170.08086 -28.3468 "/>
</g>
</svg>
