<?xml version="1.0" encoding="UTF-8"?>
<svg width="700pt" height="700pt" version="1.1" viewBox="0 0 700 700" xmlns="http://www.w3.org/2000/svg" xmlns:xlink="http://www.w3.org/1999/xlink">
 <g>
  <path stroke="#1E90FF" fill="#1E90FF" d="m608.72 532 6.7188-52.641c0.55859-2.8008-0.55859-5.0391-2.2383-6.7188l-227.36-227.36c33.602-38.641 31.922-96.879-5.0391-133.84l-78.961-78.961c-24.641-24.641-64.961-24.641-89.602 0l-108.08 108.08c-24.641 24.641-24.641 64.961 0 89.602l78.961 78.961c35.84 35.84 92.961 38.078 131.6 6.7188l20.719 20.719c1.1211 1.1211 2.2383 3.3594 2.2383 5.0391l2.2383 34.719c0 3.3594 2.8008 5.6016 6.1602 6.1602l51.52 3.3594c3.3594 0 5.6016 2.8008 6.1602 6.1602l3.3594 51.52c0 3.3594 2.8008 5.6016 6.1602 6.1602l51.52 3.3594c3.3594 0 5.6016 2.8008 6.1602 6.1602l3.3594 52.078c0 3.3594 2.8008 5.6016 6.1602 6.1602l34.719 2.2383c1.6797 0 3.9219 1.1211 5.0391 2.2383l21.84 21.84c1.6797 1.6797 4.4805 2.8008 6.7188 2.2383l52.641-6.1602c3.3672-0.54688 6.7266-3.9062 7.2852-7.8281zm-412.16-348.88c-15.68-15.68-15.68-41.441 0-57.68 15.68-15.68 41.441-15.68 57.68 0 16.238 15.68 15.68 41.441 0 57.68-16.238 15.68-42 15.68-57.68 0z"/>
 </g>
</svg>