<?xml version="1.0" encoding="UTF-8"?>
<svg width="700pt" height="700pt" version="1.1" viewBox="0 0 700 700" xmlns="http://www.w3.org/2000/svg">
 <path stroke="#FFD700" fill="#FFD700" d="m518 196v-56c0-37.129-14.75-72.738-41.004-98.996-26.258-26.254-61.867-41.004-98.996-41.004h-56c-37.129 0-72.738 14.75-98.996 41.004-26.254 26.258-41.004 61.867-41.004 98.996v56c-14.852 0-29.098 5.8984-39.598 16.402-10.504 10.5-16.402 24.746-16.402 39.598v252c0 14.852 5.8984 29.098 16.402 39.598 10.5 10.504 24.746 16.402 39.598 16.402h336c14.852 0 29.098-5.8984 39.598-16.402 10.504-10.5 16.402-24.746 16.402-39.598v-252c0-14.852-5.8984-29.098-16.402-39.598-10.5-10.504-24.746-16.402-39.598-16.402zm-140 188.44v91.559h-56v-91.559c-14.336-8.2773-24.273-22.473-27.148-38.773-2.875-16.305 1.6094-33.039 12.25-45.723 10.641-12.68 26.344-20.004 42.898-20.004s32.258 7.3242 42.898 20.004c10.641 12.684 15.125 29.418 12.25 45.723-2.875 16.301-12.812 30.496-27.148 38.773zm56-188.44h-168v-56c0-14.852 5.8984-29.098 16.402-39.598 10.5-10.504 24.746-16.402 39.598-16.402h56c14.852 0 29.098 5.8984 39.598 16.402 10.504 10.5 16.402 24.746 16.402 39.598z"/>
</svg>
